<?xml version="1.0" encoding="UTF-8"?>
<svg id="Capa_1" data-name="Capa 1" xmlns="http://www.w3.org/2000/svg" viewBox="0 0 1759.18 434.64">
  <defs>
    <style>
      .cls-1 {
        fill: #fff;
      }

      .cls-2 {
        fill: #fafafa;
      }

      .cls-3 {
        fill: #222;
      }

      .cls-4 {
        fill: #020202;
      }

      .cls-5 {
        fill: #dedede;
      }

      .cls-6 {
        fill: #313131;
      }

      .cls-7 {
        fill: #282828;
      }

      .cls-8 {
        fill: #fdfdfd;
      }

      .cls-9 {
        fill: #ebebeb;
      }

      .cls-10 {
        fill: #161616;
      }

      .cls-11 {
        fill: #3c3c3c;
      }

      .cls-12 {
        fill: #fefefe;
      }
    </style>
  </defs>
  <g>
    <path class="cls-1" d="m1568.94,337.11c1.04,1.03,2.08,2.05,3.11,3.08h37.07v-173.71c-12.82,5.44-24.35-4.67-37.07-1.24v31.44c0,10.27-.79,20.62.22,30.79,1.02,10.26-3.92,19.48-3.44,29.56.49,10.25.11,20.53.11,30.8v49.29Zm-990.27,0c-1.39-22.62,3.24-45.51-3.11-67.91,1.55-22.1-2.41-44.27,2.67-66.47,2.54-11.07.44-23.17.44-34.78h-40.48c0,21.74-.03,43.15.05,64.56,0,1.88.32,4.01,1.24,5.61,3.59,6.21,3.34,13.8,1.25,19.03-3.02,7.54-2.26,14.68-2.46,22.01-.32,11.78-.09,23.57-.09,35.36v28.76c10.21,0,19.01.27,27.78-.14,3.24-.15,6.4-1.91,9.59-2.94.08,3.62,3.14,3.99,4.79,2.64,2.52-2.07,2.73-4.9-1.67-5.72Zm295.84-172.58c-1.04,1.03-2.08,2.05-3.11,3.08v171.72c7.5,2.42,14.32.44,21.42,3.29,6.97,2.8,16.87,2.2,24.18-.43,10.31-3.72,20.27-.51,30.24-1.99,7.22,6.12,15.43,1.79,22.76,3.19,2.17-8.02,3.8-15.03,6-21.86,1.61-4.98,2.77-9.48-1.68-13.69-.89-.84-.34-3.29-1.25-3.99-4.63-3.57-9.51-6.82-16.1-11.44-5.47,8.38-20.24,1.65-23.52,15.48-.18.76-2.9.64-3.85,1.55-7.27,6.95-13.69,1.2-20.83-1.3,0-46.96,0-94.09-.02-141.21,0-.45-.24-.93-.49-1.33-.26-.43-.67-.77-.93-1.07-11.05,0-21.94,0-32.82,0Zm-137.02,3.08v124.73c0,3.59,1.16,7.7-.2,10.69-5.55,12.18-1.58,24.55-3.17,36.8h36.44c1.47-1.45,2.57-2.54,4.21-4.16v-33.48c4.55-5.68,8.4-10.47,12.11-15.09,8.49,4.46,7.11,12.36,9.73,18.32,5.71,13.02,7.08,28.8,23.8,34.23h28.19c1.65-1.63,2.75-2.72,3.21-3.18-1.15-4-1.6-7.88-3.31-11.1-11.2-21.06-18.68-43.69-28.28-65.42-6.47-14.65-8.52-29.57,1.09-44.88,9.3-14.8,16.46-30.93,24.54-46.43-11.24-5.23-23.34-4.29-32.14-4.06-10.7,2.87-14.45,8.43-17.26,15.69-3.24,8.39-8.29,16.09-12.16,24.27-1.84,3.89-3.43,7.2-9.66,5.53,1.51-14.87-2.57-29.86,3.77-45.54-13.18,0-25.48,0-37.79,0-1.04,1.03-2.08,2.05-3.11,3.08Zm348.77,40.06c2.91,6.18,6.86,3.8,10.02.67,3.16-3.13,5.56-7.04-.68-9.92-1.2-10.81-2.41-21.62-3.66-32.9-1.03-1.02-2.49-2.47-3.92-3.88-15.8-1.9-30.9,4.38-46.81,3.17-16.86-1.28-33.89-.29-50.38-.29-1.16,5.49-2.11,10.03-3.09,14.67,1.39,2.6,2.98,5.56,5.35,9.97v151.03h77.61q.5,6.41,6.23,4.55v-4.55h6.23v6.36c3.88-.33,6.65-.56,9.34-.79v-5.57c0-1.54-.67-3.72.1-4.52,7.08-7.29,6.59-16.14,5.59-27.07-4.36-4.31-9.8-9.69-13.6-13.44-17.35-4.36-25.79,5.5-33.29,13.44h-20.54v-36.04c11.69-5.67,23.84-7.06,37.05-6.15-.84-10.3,2.03-19.92-3.11-25.61-11.92-8.51-22.98-3.88-33.32-5.78-9.07-13.22-2.34-26.35.11-39.85,7,.79,14.31-1.71,20.53,3.25,1.04,1.03,2.08,2.05,3.11,3.08,2.73,1.98,5.46,3.95,6.89,4.99,6.4,1.64,11.47,2.93,14.7,3.76,4.19-1.14,6.87-1.86,9.55-2.59Zm-685.09-36.98c-1.04,1.03-2.08,2.05-3.11,3.08,0,28.64-.5,57.29.14,85.91.63,27.61,2.44,55.2,3.75,82.96h36.59c0-4.18,1.26-8.39-.23-11.14-4.96-9.12-1.94-18.7-2.88-28-.76-7.42,2.07-13.43,7.82-18.78,11.45,0,23.35-.74,35.1.21,11.28.92,20.4-2.55,28.7-9.46h4.55c2.46-5.99,4.93-12.01,7.69-18.71v-12.31c-2.96-.93-6.04-1.91-9.13-2.88,0-15.86.16-31.72-.06-47.58-.12-8.56-2.09-17.31-9.84-21.78-5.13-2.97-11.41-5.26-18.19-4.69-18.15,1.52-36.42-2.08-54.64,2.8-8.19,2.19-17.48.37-26.26.37Zm1030.75,83.21c0,5.62-.26,11.24.05,16.84,1.2,21.92,2.58,43.83,3.93,66.37,6.66,0,13.31-.36,19.9.1,6.56.46,13.06,1.75,20.48,2.8-5.79-10.21-3.8-19.87-3.73-29.19.07-9.29-1.91-18.91,1.87-28.32-.49-1.64-1.22-4.05-1.94-6.46,5.29,4.42,8.48,9.82,12.47,14.56,6.41,7.61,8.28,17.89,15.49,24.94.34,7.53,4.5,13.18,9.34,18.49,1.04,1.03,2.08,2.05,3.11,3.08,1.04,1.03,2.08,2.05,3.11,3.08h29.58c2.1-2.08,3.2-3.16,4.67-4.62,0-9.8-.42-20,.07-30.15,2.2-45.65-5.1-91.03-3.1-135.82-2-2.19-3.38-3.7-4.63-5.07-11.12,0-21.97,0-32.83,0-1.04,1.03-2.08,2.05-3.11,3.08-2.15,7.21,3.38,13.23,3.17,20.19-.23,7.66-.05,15.33-.05,23v21.53c-1.31,5.75-5.31,2.62-8.38,2.51-2.63-6.46-5.33-12.83-10.3-17.92-.47-2.34,1.54-5.9-3.11-6.16.51-5.23-2.98-8.88-5.33-12.93-5.92-10.16-12.01-20.23-17.96-30.22-3.83,0-7.4,0-10.96,0-1.22-1.03-2.33-2.73-3.68-2.94-2.86-.46-5.84-.14-8.77-.14h-12.46c0,2.93-.15,4.9.03,6.83.99,10.74,2.55,21.45,2.96,32.21.52,13.68.13,27.39.13,41.08v9.25Zm-314.52,55.47h-6.43c.33,3.84.57,6.58.8,9.25h5.63v21.57c7.67,0,14.33.04,20.98-.01,6.53-.05,13.05-.19,20.69-.3-5.86-13.3-4.15-25.89-4.28-38.32-.09-8.69-.02-17.39-.02-26.09h3.11c4.76-.73,7.6,1.69,9.33,5.72,2.69,6.28,5.35,12.56,11.05,15.5h23.55c5.22-8.87,10.58-17.98,15.96-27.11h8.63c0,2.18.04,4.09,0,6-.52,20.53,1.89,41.21-3.11,61.52,1.04,1.03,2.08,2.05,3.11,3.08h38.14c.9-3.99,3.3-8.46,2-10.15-2.85-3.71-2.51-7.38-2.8-11.3-1.04-13.95,1.26-27.85-2.56-42-2.72-10.07-.97-21.45-.4-32.21.55-10.38-2.92-21.2,2.99-31.08v-48.79c-8.9.3-15.79-6.02-23.28-3.03-7.08,2.82-13.53,7.18-20.51,11-10.01,22.96-20.13,46.18-31.06,71.26-12.33-26.85-23.75-51.72-34.23-74.56-13-7.05-24.7-10-37.28-6.88v146.92Zm-440.09-.54h-33.24c0-3.04-.13-5.55.02-8.04,1-16.5,2.48-32.99,2.98-49.51.52-17.33.12-34.69.12-51.86,6.93-1.06,13.16-2.01,21.04-3.21,4.78,2.66,9.32,8.82,9.63,15.29.37,7.63,4.15,13.79,4.49,20.72h14.58c11.37-4.36,17.73-11.57,22.09-21.32-1.87-12.62,3.97-26.84-6.11-38.55-10.42-5.28-20.92-8.6-32.75-7.94-19.78,1.11-39.8-2.29-60.92,4.65-2.12,2.13-5.75,5.77-9.43,9.46,0,16.84.34,33.77-.1,50.69-.42,16.52.51,32.94-2.44,49.61-2.72,15.42-.58,31.68-.58,47.61,3.48,4.72,6.99,9.47,10.13,13.72h83.82c3.48-1.77,6.06-3.08,8.44-4.29,1.03-6.84,5.34-12.36,7.47-18.71,2.58-7.67,2.4-14.79,1.59-21.93-.64-5.59-.23-12.52-9.16-17.24-7.4.95-17.15,2.2-27.3,3.5v23.03c-1.64,1.62-2.74,2.71-4.37,4.33Zm983.98,31.07c3.77-8.37,7.46-16.58,10.95-24.36,12.51,0,23.9,0,35.29,0,2.56,2.54,5.13,5.07,8.23,8.14v12.33c1.64,1.62,2.74,2.71,4.22,4.17,6.3,0,12.98.16,19.66-.05,6.45-.2,13.05.98,19.55-.92-2.36-7.18-4.56-13.47-6.49-19.83-5.26-17.33-10.28-34.73-15.64-52.02-3.94-12.71-9.34-25.08-12.17-38.01-4.59-21-12.51-40.98-16.57-61.11h-40.88c-5.49,19.96-10.9,38.85-15.85,57.86-4.95,19.02-9.32,38.19-14.17,57.24-4.78,18.77-9.86,37.47-14.9,56.55h38.77Zm-379.47-2.79c7.19,0,13.61-1.94,17.26.38,8.93,5.68,15.96,1.84,23.54-1.56,2.15-6.89,4.25-13.65,6.26-20.07h39.4c8.03,5.57,2.68,13.63,4.72,19.69,1.64,1.75,3.04,3.25,3.82,4.09h42.67c-.28-1.98.03-4.08-.75-4.61-7.67-5.19-9.23-14.26-11.06-21.59-1.98-7.93-4.92-15.56-6.78-23.46-5.38-22.81-15.57-44.3-18.79-67.68-8.63-14.55-6.26-31.98-14.13-48.01-2.33-2.49-5.83-6.24-9.51-10.17-9.28-1.16-18.63-2.33-27.18-3.4-4.13,4.8-7.45,7.73-8.85,13.33-1.84,7.35-3.9,14.77-5.69,22.19-2.5,10.34-7.27,20.25-6.27,31.27-6.35,3.66-1.46,10.99-5.73,16.29-3.48,4.31-2.15,12.19-3.69,18.31-3.51,13.9-7.59,27.65-11.2,41.53-2.77,10.65-5.15,21.39-8.04,33.47Z"/>
    <path d="m1223.28,337.11c5-20.31,2.59-40.99,3.11-61.52.05-1.91,0-3.82,0-6h-8.63c-5.37,9.13-10.73,18.24-15.96,27.11h-23.55c-5.7-2.94-8.36-9.22-11.05-15.5-1.73-4.03-4.57-6.45-9.33-5.72-.3-2.98-.6-5.96-.91-8.94-.74.08-1.47.15-2.21.23v8.71c0,8.7-.07,17.39.02,26.09.13,12.43-1.58,25.02,4.28,38.32-7.63.11-14.16.25-20.69.3-6.65.05-13.3.01-20.98.01v-177.74c12.58-3.13,24.28-.17,37.28,6.88,10.49,22.84,21.9,47.71,34.23,74.56,10.93-25.08,21.05-48.3,31.06-71.26,6.98-3.82,13.43-8.17,20.51-11,7.49-2.99,14.38,3.34,23.28,3.03v48.79c-5.91,9.88-2.44,20.7-2.99,31.08-.57,10.76-2.32,22.14.4,32.21,3.82,14.15,1.51,28.05,2.56,42,.29,3.93-.05,7.59,2.8,11.3,1.3,1.69-1.1,6.16-2,10.15h-38.14c-1.04-1.03-2.08-2.05-3.11-3.08Zm20.24-129.44c.81-5.43,1.27-8.55,1.99-13.41-8.36,1.82-14.93,3.26-21.81,4.76-3.89,13.3-8.98,26.04-16.33,36.68,4.35,4.7,7.83,8.46,11.31,12.23.31-.51.61-1.02.92-1.53,6.66,3.7,13.32,7.39,20.66,11.47,2.9-4.42,5.52-8.41,8.21-12.51-1.9-13.08,3.81-27.27-4.94-37.69Zm-82.62,9.93c-3.7-.36-7.58-.73-15.04-1.46-.12-.4-1.08-3.58-2-6.64-5.68,2.23-9.69,3.8-12.95,5.07-5.81,14.57,8.87,25.19,4.91,38.85q15.42.21,28.52-14.97c-5.46-5.85-2.82-13.16-3.45-20.86Z"/>
    <path d="m1512.88,337.11c-1.04-1.03-2.08-2.05-3.11-3.08,1.04-.79,2.76-1.41,3-2.39,1.5-6.16-1.99-11.05-4.67-16.1h-7.67c-7.21-7.05-9.08-17.33-15.49-24.94-3.99-4.74-7.18-10.14-12.47-14.56.72,2.41,1.45,4.82,1.94,6.46-3.78,9.41-1.8,19.03-1.87,28.32-.07,9.32-2.06,18.98,3.73,29.19-7.42-1.05-13.92-2.34-20.48-2.8-6.59-.46-13.24-.1-19.9-.1-1.35-22.54-2.73-44.45-3.93-66.37-.31-5.6-.05-11.23-.05-16.84,4.03-1.33,7.06-3.32,5.65-9.25h-5.65c0-13.7.39-27.41-.13-41.08-.41-10.76-1.98-21.47-2.96-32.21-.18-1.94-.03-3.9-.03-6.83h12.46c-.71,5.3,2.12,7.99,7.62,9.64,1.58-2.14,3.21-4.35,4.84-6.56,3.56,0,7.13,0,10.96,0,5.95,9.99,12.04,20.05,17.96,30.22,2.36,4.04,5.84,7.7,5.33,12.93-1.19,1.47-2.37,2.94-4.97,6.16h8.09c4.98,5.09,7.68,11.46,10.3,17.92,3.07.1,7.07,3.24,8.38-2.51h6.35c-.26-4.85-.46-8.62-.65-12.33h-5.7v-9.2c0-7.67-.18-15.34.05-23,.21-6.96-5.32-12.98-3.17-20.19,1.04-1.03,2.08-2.05,3.11-3.08,10.85,0,21.7,0,32.83,0,1.25,1.37,2.63,2.88,4.63,5.07-2,44.79,5.3,90.17,3.1,135.82-.49,10.16-.07,20.35-.07,30.15-1.47,1.46-2.57,2.54-4.67,4.62-9.17,0-19.38,0-29.58,0-1.04-1.03-2.08-2.05-3.11-3.08Zm-49.82-86.29c1.49,1.17,2.98,2.34,6.23,4.89v-11.06c4.47-3.83,8.95-7.65,13.33-11.4-3.74-5.51-6.73-9.91-10.27-15.13v-13.85c-3.34-.95-6.76-3.07-9.67-2.52-6.52,1.24-13.82,1.47-19.1,8.78,1.33,11.35,2.76,23.65,4.19,35.86,1.5,1.52,2.94,2.98,4.36,4.42h10.93Zm58.71,11.79l-.11-2.54c-6.56,0-13.11-.03-19.66.09-.36,0-.7,1.31-1.27,2.45h21.05Zm-24.01-4.17c-3.69-1.58-6.43-2.75-9.93-4.25.25,3.53.44,6.24.64,8.93,3.28-1.65,5.75-2.89,9.3-4.68Zm18.78,53.42c.9.01,1.79.02,2.69.04-.26-3.8-.53-7.6-.79-11.4-.63.03-1.27.07-1.9.1v11.26Zm14.49-35.9l-2.76.27c.39,2.69.79,5.38,1.18,8.08.53-.06,1.05-.11,1.58-.17v-8.18Zm-7.77,39.59h1.04v-3.08h-1.04v3.08Z"/>
    <path d="m507.04,275.47c-8.3,6.9-17.42,10.38-28.7,9.46-11.76-.96-23.66-.21-35.1-.21-5.75,5.36-8.57,11.36-7.82,18.78.95,9.3-2.08,18.88,2.88,28,1.49,2.75.23,6.96.23,11.14h-36.59c-1.3-27.76-3.12-55.34-3.75-82.96-.65-28.62-.14-57.27-.14-85.91,1.04-1.03,2.08-2.05,3.11-3.08,8.79,0,18.08,1.82,26.26-.37,18.22-4.88,36.49-1.27,54.64-2.8,6.77-.57,13.05,1.72,18.19,4.69,7.74,4.47,9.72,13.22,9.84,21.78.22,15.86.06,31.72.06,47.58,2.21,11.59-3.4,22.48-3.11,33.9Zm-18.68-46.23c.33,2.11.66,4.22,1.1,7.06,5.14-2.17,9.11-3.59,7.84-10.14-2.12,0-3.97,0-5.83,0-1.04,1.03-2.08,2.05-3.11,3.08Zm-43.86-29.37c-2.2,3.04-5.86,8.11-8.79,12.18v37.5c1.37,1.36,2.44,3.35,3.56,3.38,8.98.26,17.98.14,27.16.14,10.28-16.25,4.91-33.88,6.47-49.39-5.28-3.61-9.19-6.28-12.86-8.79-4.83,1.54-8.94,2.86-15.54,4.97Z"/>
    <path d="m677.3,308.83c1.63-1.62,2.73-2.7,4.37-4.33v-23.03c10.16-1.3,19.9-2.55,27.3-3.5,8.93,4.72,8.52,11.65,9.16,17.24.82,7.14.99,14.26-1.59,21.93-2.13,6.35-6.44,11.87-7.47,18.71-2.39,1.21-4.96,2.52-8.44,4.29h-83.82c-3.14-4.25-6.64-9-10.13-13.72,0-15.93-2.14-32.19.58-47.61,2.94-16.67,2.01-33.08,2.44-49.61.43-16.92.1-33.85.1-50.69,3.67-3.69,7.31-7.33,9.43-9.46,21.12-6.94,41.14-3.55,60.92-4.65,11.82-.66,22.32,2.66,32.75,7.94,10.07,11.71,4.24,25.94,6.11,38.55-4.37,9.75-10.72,16.97-22.09,21.32h-14.58c-.34-6.92-4.12-13.09-4.49-20.72-.31-6.47-4.85-12.64-9.63-15.29-7.88,1.2-14.11,2.15-21.04,3.21,0,17.17.4,34.53-.12,51.86-.5,16.52-1.98,33.01-2.98,49.51-.15,2.49-.02,5-.02,8.04h33.24Zm-42.85-23.29c-4.04-1.48-8.54-3.12-13.13-4.8-2.38,2.83-4.22,5.01-6.14,7.28,2.93,3.29,5.21,5.85,6.73,7.56-1.34,5.77-2.43,10.47-3.51,15.15,3.94,3.24,7.34,6.04,10.97,9.02,7.71-15.95,8.87-23.75,5.08-34.21Z"/>
    <path d="m1052,198.42c-6.22-4.96-13.54-2.46-20.53-3.25-2.45,13.5-9.17,26.63-.1,39.85,10.33,1.9,21.39-2.73,33.31,5.78,5.14,5.69,2.27,15.31,3.11,25.61-13.21-.91-25.36.48-37.05,6.15v36.04h20.54c7.5-7.94,15.94-17.8,33.29-13.44,3.8,3.75,9.24,9.13,13.6,13.44,1,10.93,1.49,19.78-5.59,27.07-.78.8-.1,2.98-.1,4.52h-99.41v-151.03c-2.37-4.42-3.96-7.38-5.35-9.97.98-4.64,1.93-9.18,3.09-14.67,16.49,0,33.52-.99,50.38.29,15.91,1.21,31.02-5.07,46.81-3.17,1.43,1.42,2.9,2.87,3.92,3.88,1.26,11.29,2.46,22.1,3.66,32.9-3.11,3.08-6.23,6.16-9.34,9.25-2.68.73-5.36,1.45-9.55,2.59-3.23-.83-8.3-2.12-14.7-3.76-1.44-1.04-4.17-3.02-6.89-4.99-1.04-1.03-2.08-2.05-3.11-3.08Zm-35.88,39.92c-1.06-.09-2.12-.17-3.18-.26-1.25,6.38-6.03,11.93-4.3,18.83.68,2.71,4.01,4.77,7.03,8.13,2.4-5.51,4.08-9.36,5.5-12.6-1.89-5.29-3.47-9.7-5.04-14.1Z"/>
    <path d="m1661.28,339.9h-38.77c5.04-19.08,10.11-37.78,14.9-56.55,4.85-19.05,9.22-38.22,14.17-57.24,4.95-19.01,10.36-37.9,15.85-57.86h40.88c4.06,20.13,11.98,40.11,16.57,61.11,2.83,12.93,8.23,25.3,12.17,38.01,5.36,17.3,10.38,34.7,15.64,52.02,1.93,6.37,4.13,12.65,6.49,19.83-6.5,1.9-13.1.73-19.55.92-6.67.2-13.36.05-19.66.05-1.48-1.46-2.58-2.55-4.22-4.17v-12.33c-3.1-3.07-5.67-5.61-8.23-8.15-11.39,0-22.78,0-35.29,0-3.5,7.78-7.19,15.99-10.95,24.36Zm10.72-118.07c7.41,5.52,15.73,4.54,24.58,4.06,3.47-6.73,6.74-13.06,10.15-19.67-7.9-6.08-15.31-11.78-22.53-17.35-13.62,7.96-13.38,20.29-12.19,32.96Zm11.81,19.77c1.9,16.92-8.76,28.69-5.13,42.79h19.99c1.8-2.05,3.37-3.85,5.39-6.14-11.07-9.2-4.57-25.96-20.25-36.65Z"/>
    <path d="m1281.81,337.11c2.88-12.08,5.27-22.82,8.04-33.47,3.6-13.88,7.69-27.63,11.2-41.53,1.54-6.11.22-13.99,3.69-18.31,4.27-5.3-.62-12.63,5.73-16.29-1-11.03,3.77-20.94,6.27-31.27,1.79-7.42,3.85-14.83,5.69-22.19,1.4-5.6,4.72-8.53,8.85-13.33,8.55,1.07,17.89,2.24,27.18,3.4,3.68,3.93,7.17,7.67,9.51,10.17,7.87,16.03,5.51,33.46,14.13,48.01,3.22,23.38,13.42,44.87,18.79,67.68,1.86,7.9,4.8,15.53,6.78,23.46,1.83,7.32,3.39,16.39,11.06,21.59.78.53.47,2.63.75,4.61h-42.67c-.78-.83-2.18-2.33-3.82-4.09-2.04-6.06,3.31-14.12-4.72-19.69h-39.4c-2,6.43-4.11,13.19-6.26,20.07-7.58,3.4-14.61,7.25-23.54,1.56-3.65-2.32-10.07-.38-17.26-.38Zm47.58-137.37c-.87,8.54-.22,15.76,5.94,21.77,7.69,2.62,14.18,10.16,23.98,7.17,5.37-5.02,7.5-11.12,7.31-18.47-.32-11.99-12.69-13.46-16.91-20.78h-9.9c-3.53,3.49-6.81,6.73-10.42,10.31Zm8.55,80.1c8.63,6.09,15.78,6,22.36-.52-4.51-12.83-8.88-25.26-13.41-38.15-1.93,1.81-3.35,3.13-4.51,4.23-1.53,11.89-3.02,23.47-4.44,34.44Z"/>
    <path d="m740.6,164.52h37.79c-6.33,15.68-2.26,30.67-3.77,45.54,6.22,1.68,7.81-1.64,9.66-5.53,3.87-8.18,8.92-15.88,12.16-24.27,2.81-7.26,6.56-12.82,17.26-15.69,8.8-.23,20.9-1.17,32.14,4.06-8.08,15.5-15.24,31.63-24.54,46.43-9.62,15.31-7.57,30.23-1.09,44.88,9.6,21.73,17.08,44.36,28.28,65.42,1.71,3.22,2.15,7.09,3.31,11.1-.46.46-1.56,1.55-3.21,3.18h-28.19c-16.72-5.43-18.1-21.22-23.8-34.23-2.61-5.96-1.24-13.86-9.73-18.32-3.71,4.62-7.55,9.42-12.11,15.09v33.48c-1.64,1.63-2.74,2.71-4.21,4.16h-36.44c1.59-12.26-2.37-24.62,3.17-36.8,1.36-2.99.2-7.1.2-10.69v-124.73c1.04-1.03,2.08-2.05,3.11-3.08Zm61.19,74.89c-.95-1.13-2.27-2.7-3.37-4.01-7.72,0-15.01-.44-22.22.13-6.31.5-13.46.62-18.53,3.69-5.04,3.04-7.94,9.54-12.35,15.27,3.2,2.26,5.42,4.14,7.94,5.49,2.08,1.12,4.95,1.07,6.66,2.5,1.92,1.6,4.86,3.01,5.24,7.57-6.58-1.31-12.08-2.4-17.88-3.56-.14,1.92-.24,3.31-.33,4.61,2.29,1.03,4.35,1.96,6.7,3.02-1.53,5.3-2.87,9.91-4.49,15.52,3.52,1.92,6.8,3.7,10.48,5.7,3.53-3.75,8.56-6.64,8.57-9.55.05-10.51,7.97-11.23,14.76-13.32,6.86-2.11,12.61-5.47,15.92-10.08,1.02-8.07,1.87-14.84,2.9-22.98Zm-46.4-25.85c1.87-5.26.96-9.19-4.94-11.91v11.91h4.94Zm21.54,3.35h-1.04v3.08h1.04v-3.08Z"/>
    <path d="m874.5,164.52h32.82c.26.29.66.64.93,1.07.24.4.49.88.49,1.33.02,47.13.02,94.25.02,141.21,7.13,2.5,13.56,8.25,20.83,1.3.94-.9,3.67-.79,3.85-1.55,3.28-13.82,18.05-7.09,23.52-15.48,6.59,4.62,11.48,7.86,16.1,11.44.91.7.36,3.15,1.25,3.99,4.45,4.21,3.29,8.72,1.68,13.69-2.21,6.83-3.83,13.84-6,21.86-7.33-1.4-15.54,2.93-22.76-3.19-9.97,1.49-19.93-1.72-30.24,1.99-7.31,2.64-17.2,3.23-24.18.43-7.1-2.85-13.93-.87-21.42-3.29v-171.72c1.04-1.03,2.08-2.05,3.11-3.08Zm6.72,138.55v16.21c3.61,1.03,7.11,2.03,10.64,3.04,1.49-5.91,7.15-9.75,3.64-15.12-4.83-1.4-9.26-2.67-14.28-4.13Zm18.19-81.53c-1.47-1.45-2.93-2.9-4.26-4.22h-10.66c-1.82,6.84.1,10.93,6.89,12.17,2.9-2.87,5.47-5.41,8.03-7.95Z"/>
    <path d="m575.55,340.19c-3.2,1.03-6.35,2.79-9.59,2.94-8.77.41-17.56.14-27.78.14v-28.76c0-11.79-.24-23.58.09-35.36.2-7.33-.55-14.47,2.46-22.01,2.09-5.23,2.34-12.83-1.25-19.03-.92-1.59-1.24-3.72-1.24-5.61-.08-21.41-.05-42.82-.05-64.56h40.48c0,11.6,2.09,23.71-.44,34.78-5.09,22.2-1.13,44.37-2.67,66.47,6.35,22.4,1.73,45.29,3.11,67.91-1.04,1.03-2.08,2.05-3.11,3.08Zm-17.64-122.37c2.16-3,4.02-5.58,5.82-8.09-4.76-2.91-8.62-5.26-12.64-7.71-.81,6.23-1.74,11.85,6.83,15.8Z"/>
    <path d="m1568.94,337.11v-49.29c0-10.27.38-20.56-.11-30.8-.48-10.07,4.46-19.3,3.44-29.56-1.01-10.17-.22-20.52-.22-30.79v-31.44c12.72-3.43,24.26,6.68,37.07,1.24v173.71h-37.07c-1.04-1.03-2.08-2.05-3.11-3.08Zm9.95-25.38c3.97-3.77,7.82-7.42,12-11.39-.17-2.86-.37-6.18-.54-9.02h-11.46v20.4Z"/>
    <path class="cls-1" d="m507.04,275.47c-.29-11.42,5.32-22.31,3.11-33.9,3.08.97,6.17,1.95,9.13,2.88v12.31c-2.75,6.7-5.23,12.72-7.69,18.71h-4.55Z"/>
    <path d="m1500.43,315.53h7.67c2.68,5.05,6.17,9.94,4.67,16.1-.24.98-1.96,1.6-3,2.39-4.84-5.31-9-10.96-9.34-18.49Z"/>
    <path class="cls-1" d="m1086.26,207.67c3.11-3.08,6.23-6.16,9.34-9.25,6.24,2.88,3.84,6.79.68,9.92-3.16,3.13-7.11,5.51-10.02-.67Z"/>
    <path d="m1453.72,167.6c-1.63,2.21-3.26,4.42-4.84,6.56-5.5-1.65-8.33-4.34-7.62-9.64,2.93,0,5.92-.32,8.77.14,1.35.22,2.46,1.92,3.68,2.94Z"/>
    <path d="m1509.77,220h5.7c.2,3.71.4,7.48.65,12.33h-6.35v-12.33Z"/>
    <path class="cls-1" d="m1083.14,340.19h9.34v5.57c-2.69.23-5.47.46-9.34.79v-6.36Z"/>
    <path class="cls-1" d="m1117.4,309.37v9.25h-5.63c-.23-2.66-.47-5.41-.8-9.25h6.43Z"/>
    <path d="m1431.92,244.65h5.65c1.42,5.93-1.62,7.92-5.65,9.25v-9.25Z"/>
    <path d="m1491.08,216.91h-8.09c2.6-3.22,3.79-4.69,4.97-6.16,4.66.26,2.64,3.83,3.11,6.16Z"/>
    <path class="cls-1" d="m575.55,340.19l3.11-3.08c4.4.82,4.2,3.65,1.67,5.72-1.64,1.35-4.71.98-4.79-2.64Z"/>
    <path class="cls-1" d="m1070.69,340.19h6.23v4.55q-5.73,1.86-6.23-4.55Z"/>
    <path class="cls-9" d="m1154.77,275.47v-8.71c.74-.08,1.47-.15,2.21-.23.3,2.98.6,5.96.91,8.94h-3.11Z"/>
    <path class="cls-3" d="m401.16,170.69c-1.04,1.03-2.08,2.05-3.11,3.08,1.04-1.03,2.08-2.05,3.11-3.08Z"/>
    <path class="cls-3" d="m1509.77,164.52c-1.04,1.03-2.08,2.05-3.11,3.08,1.04-1.03,2.08-2.05,3.11-3.08Z"/>
    <path class="cls-7" d="m874.5,164.52c-1.04,1.03-2.08,2.05-3.11,3.08,1.04-1.03,2.08-2.05,3.11-3.08Z"/>
    <path class="cls-10" d="m740.6,164.52c-1.04,1.03-2.08,2.05-3.11,3.08,1.04-1.03,2.08-2.05,3.11-3.08Z"/>
    <path class="cls-1" d="m1052,198.42c1.04,1.03,2.08,2.05,3.11,3.08-1.04-1.03-2.08-2.05-3.11-3.08Z"/>
    <path class="cls-10" d="m1223.28,337.11c1.04,1.03,2.08,2.05,3.11,3.08-1.04-1.03-2.08-2.05-3.11-3.08Z"/>
    <path class="cls-4" d="m1512.88,337.11c1.04,1.03,2.08,2.05,3.11,3.08-1.04-1.03-2.08-2.05-3.11-3.08Z"/>
    <path class="cls-11" d="m1568.94,337.11c1.04,1.03,2.08,2.05,3.11,3.08-1.04-1.03-2.08-2.05-3.11-3.08Z"/>
    <path class="cls-12" d="m1243.52,207.66c8.75,10.42,3.04,24.61,4.94,37.69-2.69,4.1-5.3,8.08-8.21,12.51-7.34-4.08-14-7.77-20.66-11.47-.31.51-.61,1.02-.92,1.53-3.48-3.76-6.97-7.53-11.31-12.23,7.35-10.64,12.45-23.38,16.33-36.68,6.88-1.5,13.46-2.94,21.81-4.76-.72,4.86-1.19,7.98-1.99,13.41Z"/>
    <path class="cls-12" d="m1160.9,217.59c.63,7.7-2.01,15.01,3.45,20.86q-13.1,15.18-28.52,14.97c3.95-13.67-10.73-24.28-4.91-38.85,3.25-1.27,7.26-2.85,12.95-5.07.92,3.06,1.88,6.24,2,6.64,7.45.72,11.34,1.1,15.04,1.46Z"/>
    <path class="cls-1" d="m1463.06,250.81h-10.93c-1.42-1.44-2.86-2.9-4.36-4.42-1.43-12.21-2.86-24.51-4.19-35.86,5.29-7.31,12.59-7.54,19.1-8.78,2.9-.55,6.33,1.57,9.67,2.52v13.85c3.54,5.22,6.53,9.62,10.27,15.13-4.38,3.75-8.86,7.57-13.33,11.4-2.08,2.05-4.15,4.11-6.23,6.16Z"/>
    <path class="cls-6" d="m1521.76,262.6h-21.05c.57-1.14.91-2.45,1.27-2.45,6.55-.12,13.11-.09,19.66-.09l.11,2.54Z"/>
    <path d="m1463.06,250.81c2.08-2.05,4.15-4.11,6.23-6.16v11.06c-3.25-2.55-4.74-3.72-6.23-4.89Z"/>
    <path class="cls-7" d="m1497.76,258.43c-3.54,1.78-6.02,3.03-9.3,4.68-.19-2.69-.39-5.4-.64-8.93,3.5,1.5,6.25,2.67,9.93,4.25Z"/>
    <path class="cls-6" d="m1516.54,311.85v-11.26c.63-.03,1.27-.07,1.9-.1.26,3.8.53,7.6.79,11.4-.9-.01-1.79-.02-2.69-.04Z"/>
    <path class="cls-6" d="m1531.03,275.95v8.18c-.53.06-1.05.11-1.58.17-.39-2.69-.78-5.38-1.18-8.08l2.76-.27Z"/>
    <path class="cls-4" d="m1523.26,315.53v-3.08h1.04v3.08h-1.04Z"/>
    <path class="cls-1" d="m444.49,199.87c6.61-2.11,10.72-3.43,15.54-4.97,3.67,2.51,7.58,5.18,12.86,8.79-1.56,15.5,3.81,33.14-6.47,49.39-9.18,0-18.18.11-27.16-.14-1.12-.03-2.19-2.02-3.56-3.38v-37.5c2.93-4.06,6.6-9.13,8.79-12.18Z"/>
    <path class="cls-12" d="m491.47,226.16h5.83c1.28,6.55-2.7,7.97-7.84,10.14-.44-2.84-.77-4.95-1.1-7.06,1.04-1.03,2.08-2.05,3.11-3.08Z"/>
    <path class="cls-5" d="m491.47,226.16c-1.04,1.03-2.08,2.05-3.11,3.08,1.04-1.03,2.08-2.05,3.11-3.08Z"/>
    <path class="cls-12" d="m634.46,285.54c3.79,10.46,2.63,18.26-5.08,34.21-3.63-2.98-7.03-5.78-10.97-9.02,1.08-4.68,2.17-9.38,3.51-15.15-1.52-1.71-3.8-4.27-6.73-7.56,1.91-2.27,3.76-4.45,6.14-7.28,4.6,1.68,9.1,3.32,13.13,4.8Z"/>
    <path class="cls-1" d="m1016.13,238.35c1.58,4.41,3.15,8.81,5.04,14.1-1.41,3.23-3.09,7.09-5.5,12.6-3.02-3.35-6.35-5.42-7.03-8.13-1.72-6.9,3.05-12.46,4.3-18.83,1.06.09,2.12.17,3.18.26Z"/>
    <path class="cls-1" d="m1672,221.84c-1.18-12.66-1.42-25,12.19-32.96,7.22,5.56,14.63,11.26,22.53,17.35-3.41,6.61-6.67,12.93-10.15,19.67-8.84.48-17.17,1.46-24.58-4.06Z"/>
    <path class="cls-8" d="m1683.81,241.61c15.68,10.69,9.18,27.45,20.25,36.65-2.01,2.3-3.59,4.09-5.39,6.14h-19.99c-3.64-14.1,7.02-25.88,5.13-42.79Z"/>
    <path class="cls-12" d="m1329.39,199.73c3.62-3.58,6.9-6.82,10.42-10.31h9.9c4.22,7.33,16.59,8.8,16.91,20.78.19,7.35-1.94,13.45-7.31,18.47-9.8,2.99-16.29-4.55-23.98-7.17-6.16-6.01-6.81-13.23-5.94-21.77Z"/>
    <path class="cls-8" d="m1337.94,279.83c1.41-10.97,2.9-22.55,4.44-34.44,1.17-1.09,2.58-2.42,4.51-4.23,4.53,12.88,8.9,25.32,13.41,38.15-6.58,6.52-13.73,6.61-22.36.52Z"/>
    <path class="cls-12" d="m801.79,239.41c-1.03,8.14-1.88,14.91-2.9,22.98-3.31,4.61-9.06,7.97-15.92,10.08-6.8,2.09-14.72,2.81-14.76,13.32-.01,2.91-5.04,5.8-8.57,9.55-3.68-2-6.96-3.79-10.48-5.7,1.62-5.61,2.96-10.23,4.49-15.52-2.34-1.06-4.4-1.99-6.7-3.02.09-1.3.19-2.69.33-4.61,5.8,1.15,11.3,2.25,17.88,3.56-.39-4.55-3.32-5.97-5.24-7.57-1.71-1.42-4.58-1.38-6.66-2.5-2.51-1.35-4.73-3.23-7.94-5.49,4.41-5.73,7.31-12.23,12.35-15.27,5.07-3.06,12.22-3.19,18.53-3.69,7.21-.57,14.49-.13,22.22-.13,1.1,1.31,2.42,2.87,3.37,4.01Z"/>
    <path class="cls-5" d="m755.39,213.57h-4.94v-11.91c5.9,2.72,6.81,6.65,4.94,11.91Z"/>
    <path class="cls-9" d="m776.93,216.91v3.08h-1.04v-3.08h1.04Z"/>
    <path class="cls-8" d="m881.22,303.07c5.02,1.45,9.45,2.73,14.28,4.13,3.51,5.37-2.16,9.22-3.64,15.12-3.53-1.01-7.02-2.01-10.64-3.04v-16.21Z"/>
    <path class="cls-2" d="m899.41,221.54c-2.57,2.54-5.13,5.08-8.03,7.95-6.79-1.24-8.71-5.33-6.89-12.17h10.66c1.33,1.31,2.79,2.76,4.26,4.22Z"/>
    <path class="cls-1" d="m557.91,217.81c-8.57-3.95-7.64-9.57-6.83-15.8,4.02,2.46,7.88,4.81,12.64,7.71-1.8,2.5-3.66,5.09-5.82,8.09Z"/>
    <path class="cls-2" d="m1578.88,311.73v-20.4h11.46c.17,2.84.37,6.16.54,9.02-4.18,3.97-8.03,7.62-12,11.39Z"/>
  </g>
  <g>
    <path class="cls-1" d="m146.08,422.57c6.83,3.4,13.82,6.01,21.57,5.93,3.24-.04,6.5.11,9.73-.05,2.34-.11,4.51-.06,6.99-1.2,3.52-1.62,7.86-1.45,10.85-1.89,5.61,2.95,10.29,4.89,15.75,4.68,5.98-.23,12.1.71,17.95-.22,11.02-1.75,12.98-2.19,21.27,1.92,3.99,1.98,7.98,3.21,12.34,2.68,2.52-.31,4.99-1.14,7.44-1.9,2.95-.92,6.97-1.23,9.56-1.08,6.38.36,12.21,3.23,19.16,1.83,10.64-2.14,16.4-8.84,21.03-17.49,2.3-4.29,1.6-9.03,1.47-13.6-.2-6.92-2.55-13.26-5.95-20.07,0-2.2-.5-5.29.14-8.13.68-3.04.45-6.63,1.68-8.98,1.59-3.04.83-5.74,1.11-8.54.29-2.85,1.73-5.31,1.71-8.36-.08-10.46-.92-14.92-5.92-31.29-1.44-4.71-3.1-9.66-.52-15.3,1.99-4.35,1.57-9.93,1.73-14.97.24-7.73.27-15.48-.02-23.21-.16-4.26-.41-8.75-1.87-12.68-3.2-8.65-5.07-17.99-11.86-25.61.57-3.17,1.59-6.65,1.74-10.18.29-6.98.09-13.98.08-20.97,0-.99.33-2.19-.1-2.95-2.57-4.49-2.8-9.73-5.01-14.42-2.21-4.7-4.48-9.17-7.58-13.34-4.87-6.56-8.41-13.92-11.1-21.59-1.84-5.26-2.77-10.82-4.17-16.23-1.58-6.09-3.35-12.12-4.89-18.2-3.03-12.01-8.17-22.82-17.63-30.8-4.31-3.64-8.34-7.5-12.26-11.06-.28-1.43-.33-2.67-.77-3.74-1.22-2.99-2.6-5.91-3.93-8.86-4.07-8.98-8.31-17.8-15.03-25.26-4.45-4.94-10.14-8.12-15.28-12.07-6.49-5-14.39-7.4-21.7-10.86-2.67-1.27-6.26-.57-8.99-1.76-3.31-1.45-6.59-1.11-9.92-1.41-3.06-.27-6.07-1.28-9.12-1.34-2.28-.05-4.56,1.08-6.87,1.34-2.22.25-4.51-.14-6.73.11-2.32.26-4.6.89-6.87,1.45-7.69,1.91-15.23,3.77-21.9,8.77-3.81,2.85-7.4,6.17-11.38,8.59-7.15,4.33-11.02,11.29-16.02,17.35-5.09,6.17-7.42,13.91-11.27,20.79-1,1.79-1.91,3.81-2.17,5.81-.82,6.24-1.32,12.53-1.94,18.78-2.63,3.25-5.39,6.63-8.1,10.04-7.69,9.67-11.97,20.85-12.28,33.02-.17,6.87-2.32,13.48-1.75,20.34.04.45-.1.95-.27,1.38-1.92,4.94-3.41,10.13-5.91,14.76-4.63,8.56-9.01,17.23-12.52,26.28-2.17,5.6-3.94,11.44-5.11,17.32-.77,3.84.09,7.98-.21,11.95-.31,4.02-1.15,8.01-1.58,10.85-2.17,6.55-6.08,11.29-5.87,17.49-3.03,3.87-1.86,8.85-3.29,12.89-1.76,4.98-.62,9.69-1.12,14.47-.25,2.42-.3,5.02.3,7.35,2.6,10.23,1.2,17.73-5.03,25.43-1.03,1.27-2.23,2.64-2.59,4.15-1.8,7.54-4.62,14.95-4.62,22.77,0,7.03-.05,14.03,1.02,21.15,1.06,7.01.48,14.45-.77,21.85-1.48,8.8-1.23,18.16,1.24,27,1.42,5.08,3.62,9.99,5.99,14.72,1.47,2.93,4.36,5.17,5.76,8.12,1.23,2.59,2.54,4.31,5.31,5.28,1.18.41,1.89,2.2,2.55,3.03,6.03-.67,11.26-.03,16.68-1.35,5.42-1.31,9.59-4.71,14.06-6.11,5.53,1.83,10.46,4.15,15.64,5,5.78.96,11.78.52,17.68.82,5.67.29,10.05-3.67,14.98-4.6,3.52,2.15,6.72,4.1,10.13,6.18,3.57-.93,7.35.45,11.38-.96,8.18-2.86,15.31-7.64,23.79-11.05Z"/>
    <path d="m146.08,422.57c-8.47,3.41-15.61,8.2-23.79,11.05-4.03,1.41-7.8.03-11.38.96-3.41-2.08-6.6-4.03-10.13-6.18-4.92.94-9.3,4.89-14.98,4.6-5.9-.3-11.9.14-17.68-.82-5.17-.86-10.11-3.17-15.64-5-4.47,1.4-8.64,4.8-14.06,6.11-5.41,1.31-10.65.68-16.68,1.35-.66-.83-1.37-2.61-2.55-3.03-2.77-.97-4.08-2.69-5.31-5.28-1.4-2.95-4.29-5.18-5.76-8.12-2.37-4.73-4.57-9.65-5.99-14.72-2.47-8.84-2.72-18.2-1.24-27,1.25-7.41,1.83-14.84.77-21.85-1.08-7.13-1.03-14.12-1.02-21.15,0-7.82,2.82-15.23,4.62-22.77.36-1.51,1.57-2.88,2.59-4.15,6.23-7.69,7.63-15.2,5.03-25.43-.59-2.33-.55-4.93-.3-7.35.5-4.79-.63-9.49,1.12-14.47,1.43-4.04.26-9.02,3.29-12.89-.21-6.21,3.7-10.94,5.87-17.49.43-2.84,1.27-6.83,1.58-10.85.3-3.97-.56-8.11.21-11.95,1.17-5.89,2.94-11.72,5.11-17.32,3.51-9.05,7.89-17.72,12.52-26.28,2.51-4.63,3.99-9.82,5.91-14.76.17-.43.3-.93.27-1.38-.57-6.87,1.58-13.47,1.75-20.34.31-12.17,4.59-23.35,12.28-33.02,2.71-3.41,5.47-6.79,8.1-10.04.62-6.25,1.11-12.53,1.94-18.78.26-2,1.17-4.02,2.17-5.81,3.85-6.88,6.18-14.62,11.27-20.79,5-6.07,8.87-13.02,16.02-17.35,3.99-2.42,7.57-5.74,11.38-8.59,6.68-5,14.21-6.86,21.9-8.77,2.27-.56,4.56-1.2,6.87-1.45,2.22-.25,4.51.14,6.73-.11,2.32-.26,4.59-1.38,6.87-1.34,3.05.06,6.06,1.07,9.12,1.34,3.33.3,6.61-.04,9.92,1.41,2.74,1.19,6.32.5,8.99,1.76,7.31,3.46,15.21,5.87,21.7,10.86,5.14,3.95,10.83,7.13,15.28,12.07,6.72,7.47,10.96,16.28,15.03,25.26,1.33,2.94,2.71,5.87,3.93,8.86.44,1.08.49,2.32.77,3.74,3.92,3.56,7.96,7.42,12.26,11.06,9.46,7.99,14.6,18.79,17.63,30.8,1.53,6.08,3.31,12.11,4.89,18.2,1.4,5.41,2.33,10.97,4.17,16.23,2.69,7.68,6.23,15.04,11.1,21.59,3.1,4.18,5.37,8.65,7.58,13.34,2.21,4.7,2.44,9.94,5.01,14.42.43.75.1,1.95.1,2.95,0,6.99.2,13.99-.08,20.97-.14,3.52-1.17,7.01-1.74,10.18,6.8,7.62,8.66,16.96,11.86,25.61,1.45,3.93,1.71,8.42,1.87,12.68.28,7.73.26,15.48.02,23.21-.16,5.05.26,10.62-1.73,14.97-2.58,5.64-.92,10.59.52,15.3,4.99,16.37,5.83,20.83,5.92,31.29.02,3.06-1.42,5.51-1.71,8.36-.29,2.8.48,5.5-1.11,8.54-1.23,2.35-1,5.93-1.68,8.98-.63,2.84-.14,5.93-.14,8.13,3.4,6.81,5.75,13.15,5.95,20.07.13,4.57.83,9.3-1.47,13.6-4.62,8.65-10.39,15.35-21.03,17.49-6.95,1.4-12.78-1.48-19.16-1.83-2.59-.15-6.61.16-9.56,1.08-2.44.76-4.92,1.59-7.44,1.9-4.36.53-8.35-.7-12.34-2.68-8.29-4.11-10.25-3.67-21.27-1.92-5.84.93-11.96-.02-17.95.22-5.46.21-10.15-1.73-15.75-4.68-2.99.44-7.34.27-10.85,1.89-2.48,1.14-4.65,1.09-6.99,1.2-3.24.16-6.49,0-9.73.05-7.75.09-14.74-2.53-21.57-5.93Zm65.77-24.05c2.24-.13,1.27-1.86,1.5-3,1.76-.53,2.53-1.64,3.1-3.49.95-3.04,2.54-5.88,3.92-8.77,2.38-4.96,1.3-10.66,3.46-15.66-1.99-3.03-.55-6.85-1.81-9.65-.84-1.88.18-4.95-2.69-5.89-2.29-8.64-7.61-14.57-15.99-17.73-1.9,1.9-3.82,3.82-6.04,6.04-2.51-.57-5.23-1.18-7.95-1.79-.5-.5-1-1-1.5-1.5-.5-2.04-1.43-4.09-1.38-6.11.05-2.25,1-4.47,1.65-7.04-3.35-.66-6.31-1.38-9.32-1.8-2.92-.4-5.89-.5-8.8-.72.55,2.31,1.14,4.82,1.69,7.12-1.55,1.54-2.79,2.76-4.05,4.01-4.27,0-8.72.86-12.57-2.01-.81-2.28-1.61-4.55-2.31-6.54-1.08.43-1.93.79-2.8,1.1-3.69,1.32-7.76,1.76-10.84,4.55-.25.23-.31.67-.44.98,1.96.89,3.85,1.74,5.66,2.56,1.01,7.19-4.51,10.33-7.97,14.13-2.94-.55-5.43-1.02-8.05-1.51-5.3,8.06-4.51,17.01-6.9,26.03,3.96-2.6,7.3-1.46,10.43-1.82,3.84,5.27,4.88,10.48,1.11,16.36-.88.39-2.36,1.05-3.82,1.69-.76-.46-1.48-.91-2.24-1.37-.2.57-.45,1-.48,1.45-.06.73-.22,1.6.09,2.2,4.25,8.37,10.53,14.96,18.45,19.87,2.36,1.46,4.95,2.5,7.28,4.18,1.97,1.42,4.49,2.63,7.32,2.15,2.68-.45,5.21.22,7.63,1.42.22.11.77-.45,1.44-.87-.62-1.25-1.21-2.46-1.87-3.78,1.2-1.99,2.4-3.98,3.49-5.77h7.59c1.97,1.86,3.78,3.56,5.81,5.48v4.81c1.29-.51,2.39-1.36,3.36-1.23,3.07.4,5.49-1.11,8.15-2.11,6.18-2.31,10.18-7.27,14.58-11.73.55-.56.4-1.8.58-2.73.5-.5,1-1,1.5-1.5ZM121.8,100.46l.29-.29c-.35-.41-.7-.82-1.04-1.22l-.47.47c.41.35.82.7,1.36.89,0,1.49-.12,2.99.02,4.47.49,5.26-1.43,9.28-5.62,12.02h-4.29c-.74-.79-1.56-1.71-2.44-2.58-3.18-3.14-5.54-6.4-2.73-11.11.54-.91.08-2.41.08-3.42,1.35-1.41,2.55-2.66,3.71-3.86,2.81,0,5.54,0,8.41-.16l-.29.29,1.04,1.22.47-.47c-.41-.35-.82-.7-1.36-.89-1.69-1.51-3.38-3.02-5.02-4.48-8.71,4.64-13.19,13.03-19.26,20.65,2.65,1.63,5.12,4.29,7.86,4.59,6.2.69,12.3,3.07,19.38,1.23,1.62-1.18,3.93-2.84,6.03-4.36v-5.27c-3.56-1.24-2.96-5.87-6.13-7.71Zm-16.48,155.85l.29-.29c-.35-.41-.7-.82-1.04-1.22l-.47.47c.41.35.82.7,1.36.2,0,1.43-.32,2.49.05,2.88,3.44,3.61,6.54,7.84,10.67,10.37,2.93,1.8,4.18,4.15,5.69,6.52.32,5.66.45,11.15,1.28,16.73,1.06,7.11,3.31,13.6,6.37,19.85,2.61,5.33,7.7,6.93,13.39,5.04,2.98-.99,5.95-1.98,8.89-2.96-1.3-.82-2.39-1.8-3.67-2.26-11.64-4.19-18.83-13.74-18.62-25.54.09-5.03-1.41-10.28,1.43-15.1-.72-1.42-1.46-2.86-2.22-4.36-4.03-.99-8.07-2.12-12.17-2.96-4.64-.96-7.22-4.57-11.23-7.37Zm-34.98-159.19c-.87,1.02-1.94,1.77-2.3,2.77-1.47,4.14-3.53,8.06-5.26,12.05-4.33,9.95-6.12,20.26-6.75,30.9-.21,3.48,0,6.99-.05,10.48-.02,1.19.06,2.54-.44,3.55-3.44,7.07-6.5,14.4-10.68,21.01-4.08,6.45-6.1,13.46-8.5,20.49-1.23,3.6-.19,7.52-1.64,10.53-1.9,3.95-.62,7.72-1.2,11.5,3.15,4.1.85,7.38-1.32,10.96-1.9,3.14-3.06,6.71-4.7,10.02-1.69,3.41-1.84,7.47-3.31,10.59-1.85,3.94.26,7.91-1.65,11.31-2.15,3.8-.82,7.75-.89,11.58-.11,5.54-.6,11.08,1.21,16.66,1.35,4.17-1.25,8.38-3.19,12.01-3.95,7.4-7.42,14.92-9.38,23.09-.55,2.3-.13,5.04-1.23,6.96-1.65,2.9-.56,5.76-1,8.59,3.57,2.71.52,6.85,2.29,10.32,1.53,2.99.68,7.2.89,10.99-5.78,3.86-1.14,10.73-4.62,15.32-.36.48-.07,1.46-.03,2.21.01.21.17.47.35.59,1.84,1.25,1.25,3.2,1.07,4.77-.73,6.4,1.5,12.31,3.17,18.21,1.96,6.9,5.21,13.2,11.05,17.92,2.61,2.11,5.33,3.56,8.51,2.86,2.89-.63,6.14-1.5,8.26-3.36,3.84-3.39,8.87-4.22,12.32-7.15,8.55,1.8,15.7,6.42,24.29,6.39,2.27,0,4.93,2.18,7.27.46,2.56-1.88,5.52.18,8.32-1.83,2.86-2.06,6.91-2.48,9.91-3.44,3.58,2.86,6.76,5.4,9.53,7.61,8.5-2.06,15.72-5.55,23.23-8.38-1.83-1.83-3.71-3.49-5.33-5.39-1.86-2.18-4.2-3.79-5.54-6.67-1.14-2.45-2.95-4.66-4.19-7.26-1.33-2.8-1.87-5.8-3.06-8.47-1.29-2.89-1-5.62-1.33-8.46-.32-2.81-1.25-5.57-1.35-8.38-.07-1.77,1.13-3.55,1.33-5.37.25-2.22-.13-4.51.12-6.73.23-2.07.86-4.11,1.46-6.12,1.78-5.99,3.68-12.07,7.03-17.27,2.35-3.66,3.93-7.03,3.51-10.2-.85-2.07-1.05-3.36-1.77-4.16-5.88-6.48-7.75-14.79-10.13-22.77-.89-2.98.1-6.47-.21-9.69-.32-3.27-1.17-6.48-1.79-9.72-3.35-3.35-6.99-6.47-10-10.11-5.84-7.06-10.89-14.54-13.8-23.49-1.44-4.45-1.88-9.11-3.7-13.43-2.07-4.89-3.84-9.89-5.87-14.8-2.51-6.06-4.68-12.48-4.94-18.82-.34-8.21-1.03-16.49.89-24.91,1.51-6.61,2.56-13.34,4.62-19.86.92-2.9,1.3-6,1.66-9.05.37-3.18-1.58-5.8-2.53-8.66-2.07-6.2-4.15-12.51-4.67-18.96-.28-3.42-2.16-6.47-1.69-9.84.49-3.55-1.47-6.42-2.19-9.99Zm135.25,321.51c5.75,2.88,11.59,2.39,17.38,2.37,2.3-3.4,6.94.41,9.25-3h9.78c4.07,2.1,7.58,3.9,11.89,6.12,2.27-.15,5.64.24,8.56-.72,3.62-1.19,7.44-1.87,11-2.14,5.69-.43,11.81-.07,17.16,1.72,3.93,1.32,6.76.2,10.19-.38,4.24-.72,7.29-3.24,9.21-6.41,1.6-2.64,3-6,2.26-9.51-.48-2.29-1.13-4.56-1.46-6.87-.53-3.73-1.45-7.3-2.75-10.85-2.38-6.5-2.41-13.33-1.29-20.06.61-3.66,3.02-7.1,2.41-10.91-.68-4.3,1.85-7.99,1.6-12.13-.24-4.07-.48-8.07-1.19-12.17-1.05-6.08-2.07-11.95-4.7-17.61-1.37-2.95-1.57-6.39-1.79-9.8-.25-3.81,1.9-6.99,1.67-10.62-.71-11.52.98-23.04-1.27-34.62-1.53-7.85-2.91-15.62-5.66-23.17-2.28-6.25-3.97-12.57-3.73-19.51.27-7.76.37-15.52-1.01-23.39-1.23-7.05-3.48-13.57-5.99-20.06-2.95-7.62-8.1-13.92-13.72-19.75-2.04-2.11-4.54-4.44-4.36-7.1.27-4.05-1.37-7.56-1.83-11.36-.68-5.58-1.68-11.21-3.39-16.55-2.9-9-6.02-17.97-10.98-26.15-1.92-3.17-3.49-6.55-5.4-9.73-.27-.44-1.59-.25-3.28-.46.94,1.84,1.46,2.84,2.52,4.91-.54,6.38-1.19,13.9-1.82,21.41-.04.49.14,1.11-.1,1.45-2.2,3.23-1.27,7.54-3.27,10.61-2.12,3.25-2.22,7.19-4.23,10.23-2.17,3.29-1.66,6.41-.76,9.67.61,2.22,1.79,4.29,2.32,6.52,1.52,6.49,1.53,13.19,2.85,19.76,1.5,7.45-2.47,14.92-1.31,22.56-2.32,1.59-1.18,4.03-1.53,6.11-.35,2.07-1.4,4.09-1.36,6.12.05,2.55,1.38,5.1,1.3,7.62-.33,10.78,1.53,21.7-1.45,32.33-1.83,6.52-4.11,12.86-8.73,18.11-3.18,3.62-6.09,7.47-9.22,11.33,0,2.31.19,4.83-.06,7.3-.24,2.32-1.45,4.61-1.35,6.87.29,6.65-2.38,12.5-4.9,18.23-2.23,5.08-5.73,9.61-8.68,14.39,16.11,12.25,26.85,27.93,26.74,48.61-.11,20.62-9.34,37.59-25.52,50.68Zm8.13-337.74c10.37,7.5,12.77,18.13,15.08,29.85.44.4,1.67,1.29,2.61,2.43.88,1.06,1.45,2.38,2.24,3.73,1.37-3.93,2.6-7.72,2.25-11.89-.09-1.09.74-2.23.8-3.37.16-2.84.89-5.99-.06-8.46-.77-2-.73-3.81-.74-5.65-.02-5.55-1.55-10.75-3.05-15.99-1.03-3.57-1.82-7.23-3.04-10.73-2.47-7.06-6.39-13.4-10.44-19.63-1.83-2.81-3.71-6.09-6.43-7.67-3.1-1.79-5.07-4.5-7.75-6.55-.9-.69-2.08-1.01-3.06-1.63-7.9-4.93-16.39-8.57-25.14-11.64-7.61-2.67-15.69-3-23.48-4.78-.86-.2-1.87.22-2.79.42-1.36.31-2.74,1.05-4.06.97-8.12-.51-15.04,3.27-22.32,5.86-8.39,2.99-14.59,8.81-20.9,14.77-5.19,4.89-9.19,10.64-12.75,16.54-3.17,5.26-5.63,11.03-6.55,17.56-.6,4.27-2.47,8.49-2.7,13.04-.23,4.55-1.39,9.08-1.33,13.61.08,6.54.82,13.08,1.48,19.6.09.89,1.39,1.66,2.25,2.62,8.56-9.9,11.74-23.58,24.03-30.11h9.8c8.47,5.97,13.32,14.21,17.49,22.94.6,1.25,1.34,2.46,1.75,3.77,1.28,4.06,3.69,7.03,7.67,8.71.59.25.96,1.04,1.33,1.47.2,2.62-.37,4.57-3.82,5.2-1.81-.84-4.12-1.91-6.77-3.14-2.07,0-4.62-.31-7.04.09-2.23.37-4.33,1.56-6.51,2.31-.88.3-1.82.5-2.75.58-8.76.73-17.12-1.16-24.94-4.86-2.23-1.06-4.05-.98-6.39-.89-.99,1.72-2.01,3.48-2.83,4.91,1.94,6.03,4.1,11.68,5.47,17.51.64,2.71.05,5.86-.57,8.68-.68,3.14-2.2,6.09-3.05,9.2-.93,3.39-1.77,6.84-2.16,10.32-.37,3.32-.19,6.59-1.42,9.92-1.07,2.89.7,6.05,1.18,9.08.7,4.48.64,9.05,1.41,13.63.99,5.89,2.75,11.33,5.25,16.61,1.22,2.57,2.3,4.97,2.65,7.94.47,4.05,2.06,7.96,3.53,13.23.88-3.5,1.32-5.46-.03-7.56-.59-.92-1.04-2.9-.56-3.35,2.46-2.33,1.22-5.15,1.36-7.72.24-4.53,1.53-8.8,2.69-13.13,2.42-9.01,5.89-17.55,10.83-25.48,4.2-6.74,8.29-13.55,12.49-20.29,6.8-10.92,13.75-21.75,20.43-32.75,2.27-3.74,3.9-7.87,6.05-12.28v-16.88c-1.9-3.72-3.15-7.37-5.37-10.26-5.01-6.52-10.26-12.89-15.89-18.87-3.66-3.9-6.94-7.84-8.74-12.91-.31-.86-.97-1.59-1.33-2.16v-10.49q3.77-2.61,7.35.23c-.24,5.66,1.62,10.53,4.68,15.31,3.38,5.28,8.06,9.21,12.32,13.58,5.22,5.33,9.01,11.52,12.17,18.2,2.24,4.74,2.41,9.97,3.64,14.95.45,1.81-1.34,4.06-1.25,6.08.22,4.98-1.94,9.12-3.76,13.47-6.64,15.84-17,29.5-26.15,43.81-7.06,11.05-13.26,22.42-17.7,34.65-3.06,8.44-5.61,17-5.2,26.43.34,7.74,2.98,13.74,8.78,18.08,3.89,2.91,8.29,6.83,13.99,3.01.52-.35,1.47-.05,2.21-.05,9.55-9.55,14.51-19.24,18.85-34.9,1.3-4.69,3.03-9.7,7.64-12.52,4.1-2.5,8.49-4.29,13.52-3.55,1.19.17,2.43.03,3.44.03.92.92,1.53,1.78,2.35,2.31,5.84,3.73,8.24,9.99,10.14,15.89,2.09,6.47,1.98,13.63,3.33,20.38,1.13,5.63,1.22,11.96,7.34,15.56,3.06-.89,6.28-1.59,9.32-2.77,3.23-1.25,6.28-2.96,9.12-4.33,1.47-2.83,2.75-5.31,3.82-7.39,1.02-3.11-.47-5.93,1.4-8.92,1.18-1.89.75-5.47-.21-7.78-.71-1.71-.83-3.24-.87-4.87-.1-3.74,1.22-8.17-.36-11.06-1.86-3.41.54-7.5-2.67-10.17-1.89-13.12-8.47-24.2-16.14-34.46-7.27-9.72-15.03-19.07-21.54-29.33-5.6-8.83-12.47-17.01-13.4-28.19-.35-4.28-2.45-15.95-1.26-18.82,2.3-5.54,3.28-11.45,6.66-16.76,5.88-9.25,13.28-17.31,19.08-26.47h5.8c.55,1.68,1.11,3.39,1.33,4.06-3.94,5.32-7.09,9.86-10.54,14.16-4.75,5.91-6.89,13.16-10.55,19.6-4.16,7.33-2.7,15.1-2.74,22.76,0,1.79,1.53,3.58,2.6,5.9,8.54-12.36,15.75-25.15,29.93-32.1h8.12Zm-54.31,136.7c-1.55,1.99-2.69,2.83-2.93,3.87-1.45,6.35-3.35,12.49-5.96,18.51-2.38,5.51-5.69,11.86-9.26,15.64-2.13,2.26-4.05,4.72-5.99,7,1.76,2.62,3.32,4.95,4.79,7.14-1.07,1.92-1.98,3.54-3.15,5.62.42,4.98-.96,10.62,1.48,16.02,2.46,5.43,5.13,11.13,10.8,12.84,3.57,1.07,7.09,2.26,10.77,2.87,4.91.81,9.62-.75,14.1-2.14,5.18-1.61,9.89-4.54,11.02-10.76.2-1.11.85-2.14,1.29-3.2.53-1.28,1.06-2.56,1.39-3.35-.89-2.36-1.8-4.25-2.32-6.25-1.59-6.17-4.09-12.12-3.63-18.75.33-4.72.91-9.67-.14-14.17-1.47-6.31-1.39-12.77-2.85-19.01-1.31-5.58-1.24-11.95-6.56-15-2.01,1.43-3.76,2.67-5.37,3.81v25.69c0,4.24-1.2,8.99.31,12.6,1.79,4.27-.55,8.86,1.45,12.07,2.4,3.86-.84,8.49,1.86,10.59-1.1,2.07-2.13,4.02-3.37,6.35-1.33-1.32-2.32-1.86-2.61-2.65-.86-2.4-1.75-4.85-2.07-7.36-.45-3.55.67-7.31-1.57-10.6.64-6.86-2.11-13.4-1.64-20.35.58-8.42.14-16.91.14-27.05Zm18.84-98.14c7.61,11.35,14.58,22.53,22.34,33.12,10.51,14.36,12.37,16.45,19.4,33.18,2.86,6.8,4.88,13.99,6.76,21.15,1.08,4.13,1.32,8.53,1.55,12.83.25,4.73.1,9.48.03,14.22-.02,1.64-.1,3.13-1.01,4.84-.96,1.81-.22,4.53-.22,6.85,1.06-.91.8-2.21,1.31-2.68,2.91-2.7.87-6.44,2.19-9.61,1.24-2.98.77-6.76.67-10.17-.05-1.8-1.13-3.56-1.36-5.38-.25-1.96-.17-3.99-.04-5.98.57-8.53-.54-17.02,1.2-25.65,1.4-6.96.94-14.5.09-21.64-.78-6.58-1.61-13.24-3.07-19.69-.52-2.3-1.1-4.56-1.23-6.93-.19-3.42.2-6.54,2.44-9.51,1.72-2.29,2.54-5.27,4.22-8.93-1.95.99-2.86,1.46-3.85,1.96-2.6-1.67-5.15-3.3-7.26-4.66-.83,0-1.12-.08-1.33.01-7.47,3.31-9.78,3.5-17.74,3.07-4.12-.22-7.85-.96-11.61-2.81-2.67-1.31-5.92-1.43-7.7-1.82-2.35,1.72-3.93,2.87-5.76,4.2Zm11,147.42c.15,1.78-.11,2.99.37,3.68,3.69,5.37,4.24,11.34,4.37,17.66.16,7.22-2.75,12.83-7.36,17.9-1,1.1-2.12,2.1-3.16,3.18-1.04,1.08-2.25,2.06-2.91,3.01,4.86,1.19,9.15,2.25,14.12,3.47.66-.33,2.1-1.04,3.33-1.65,2.76-5.78,5.36-11.43,8.14-16.98,1.72-3.44,2.89-6.9,2.73-10.83-.4-9.5,3.35-17.64,8.92-25.51-.99,0-1.77-.23-2.32.03-6.05,2.91-12.24,4.84-19.11,4.44-2.21-.13-4.49.97-7.13,1.61Zm22.74-156.6c2.99,1.96,4.89-1.25,7.62-1.7-.79-7.86-2.08-15.22-9.07-20.61-2.01.76-4.12,1.56-7.21,2.74,2.56,1.15,4.23,1.9,4.26,1.92,2.92,1.88,4.56,2.94,5.11,3.3.94,3.74,1.56,6.22,2.23,8.88-.92,1.71-1.9,3.54-2.94,5.48Zm-12.95-14.53c-3.22,3.4-6.44,6.79-9.64,10.21-.12.13-.02.48-.02,1.08,3.22,1.64,6.61,3.1,11.55,3.76-3.85-5.27-2.83-9.83-1.89-15.06Z"/>
    <path class="cls-1" d="m70.34,97.12c.72,3.58,2.69,6.45,2.19,9.99-.47,3.36,1.41,6.42,1.69,9.84.53,6.45,2.6,12.76,4.67,18.96.96,2.86,2.9,5.48,2.53,8.66-.35,3.04-.74,6.14-1.66,9.05-2.06,6.52-3.11,13.25-4.62,19.86-1.92,8.42-1.23,16.69-.89,24.91.27,6.34,2.44,12.75,4.94,18.82,2.03,4.9,3.8,9.91,5.87,14.8,1.83,4.32,2.26,8.98,3.7,13.43,2.91,8.94,7.96,16.43,13.8,23.49,3.01,3.64,6.65,6.76,10,10.11.62,3.24,1.48,6.45,1.79,9.72.31,3.22-.68,6.71.21,9.69,2.38,7.98,4.25,16.29,10.13,22.77.73.8.92,2.09,1.77,4.16.42,3.17-1.16,6.54-3.51,10.2-3.35,5.2-5.24,11.28-7.03,17.27-.6,2.01-1.22,4.05-1.46,6.12-.25,2.22.13,4.51-.12,6.73-.21,1.82-1.4,3.6-1.33,5.37.1,2.8,1.03,5.57,1.35,8.38.33,2.83.04,5.56,1.33,8.46,1.19,2.67,1.73,5.68,3.06,8.47,1.23,2.59,3.05,4.81,4.19,7.26,1.34,2.88,3.69,4.48,5.54,6.67,1.61,1.9,3.5,3.56,5.33,5.39-7.51,2.83-14.73,6.33-23.23,8.38-2.77-2.21-5.95-4.75-9.53-7.61-2.99.96-7.04,1.38-9.91,3.44-2.8,2.02-5.76-.05-8.32,1.83-2.34,1.72-5-.47-7.27-.46-8.59.03-15.74-4.59-24.29-6.39-3.46,2.94-8.48,3.76-12.32,7.15-2.12,1.87-5.37,2.73-8.26,3.36-3.18.7-5.91-.75-8.51-2.86-5.84-4.72-9.09-11.03-11.05-17.92-1.67-5.9-3.9-11.81-3.17-18.21.18-1.58.77-3.52-1.07-4.77-.17-.12-.34-.38-.35-.59-.04-.75-.33-1.73.03-2.21,3.49-4.59-1.16-11.46,4.62-15.32-.21-3.8.64-8-.89-10.99-1.77-3.47,1.28-7.61-2.29-10.32.45-2.83-.65-5.69,1-8.59,1.1-1.93.68-4.66,1.23-6.96,1.96-8.16,5.43-15.69,9.38-23.09,1.94-3.64,4.55-7.85,3.19-12.01-1.81-5.58-1.32-11.12-1.21-16.66.08-3.83-1.25-7.77.89-11.58,1.92-3.4-.2-7.37,1.65-11.31,1.47-3.13,1.63-7.18,3.31-10.59,1.64-3.31,2.8-6.89,4.7-10.02,2.17-3.58,4.48-6.86,1.32-10.96.57-3.79-.7-7.55,1.2-11.5,1.45-3.01.42-6.93,1.64-10.53,2.4-7.03,4.42-14.05,8.5-20.49,4.18-6.61,7.25-13.94,10.68-21.01.49-1.02.42-2.36.44-3.55.05-3.49-.16-7,.05-10.48.63-10.64,2.42-20.95,6.75-30.9,1.74-3.99,3.79-7.91,5.26-12.05.36-1,1.43-1.75,2.3-2.77Z"/>
    <path class="cls-1" d="m205.59,418.63c16.18-13.09,25.41-30.06,25.52-50.68.11-20.68-10.63-36.36-26.74-48.61,2.94-4.78,6.44-9.3,8.68-14.39,2.52-5.73,5.19-11.58,4.9-18.23-.1-2.26,1.11-4.55,1.35-6.87.25-2.47.06-4.99.06-7.3,3.12-3.86,6.04-7.71,9.22-11.33,4.62-5.25,6.9-11.59,8.73-18.11,2.98-10.63,1.12-21.54,1.45-32.33.08-2.52-1.26-5.07-1.3-7.62-.04-2.03,1.01-4.06,1.36-6.12.35-2.09-.79-4.52,1.53-6.11-1.16-7.64,2.81-15.11,1.31-22.56-1.33-6.57-1.33-13.27-2.85-19.76-.52-2.23-1.71-4.3-2.32-6.52-.9-3.27-1.41-6.39.76-9.67,2.01-3.04,2.11-6.99,4.23-10.23,2-3.07,1.07-7.37,3.27-10.61.23-.35.05-.96.1-1.45.64-7.52,1.28-15.03,1.82-21.41-1.06-2.07-1.57-3.07-2.52-4.91,1.69.21,3.01.02,3.28.46,1.91,3.18,3.48,6.56,5.4,9.73,4.96,8.18,8.08,17.15,10.98,26.15,1.72,5.33,2.71,10.97,3.39,16.55.46,3.8,2.1,7.31,1.83,11.36-.18,2.66,2.32,4.99,4.36,7.1,5.63,5.83,10.78,12.14,13.72,19.75,2.51,6.49,4.76,13.02,5.99,20.06,1.38,7.88,1.29,15.64,1.01,23.39-.24,6.93,1.45,13.26,3.73,19.51,2.75,7.55,4.13,15.31,5.66,23.17,2.25,11.58.57,23.11,1.27,34.62.22,3.63-1.92,6.82-1.67,10.62.22,3.41.42,6.85,1.79,9.8,2.63,5.66,3.64,11.52,4.7,17.61.71,4.09.94,8.1,1.19,12.17.25,4.13-2.28,7.83-1.6,12.13.6,3.8-1.81,7.24-2.41,10.91-1.12,6.73-1.09,13.56,1.29,20.06,1.3,3.55,2.22,7.12,2.75,10.85.33,2.31.98,4.58,1.46,6.87.74,3.51-.66,6.87-2.26,9.51-1.91,3.16-4.97,5.69-9.21,6.41-3.43.58-6.25,1.69-10.19.38-5.35-1.79-11.47-2.15-17.16-1.72-3.55.27-7.37.94-11,2.14-2.92.96-6.29.57-8.56.72-4.31-2.22-7.82-4.03-11.89-6.12h-9.78c-2.3,3.4-6.94-.41-9.25,3-5.78.01-11.63.51-17.38-2.37Z"/>
    <path class="cls-1" d="m213.72,80.89h-8.12c-14.18,6.95-21.4,19.74-29.93,32.1-1.07-2.31-2.61-4.11-2.6-5.9.04-7.66-1.43-15.43,2.74-22.76,3.66-6.44,5.8-13.69,10.55-19.6,3.45-4.29,6.6-8.83,10.54-14.16-.22-.67-.78-2.38-1.33-4.06h-5.8c-5.8,9.16-13.2,17.23-19.08,26.47-3.38,5.31-4.36,11.22-6.66,16.76-1.19,2.86.91,14.54,1.26,18.82.93,11.18,7.8,19.36,13.4,28.19,6.51,10.26,14.27,19.62,21.54,29.33,7.67,10.26,14.25,21.35,16.14,34.46,3.21,2.67.82,6.76,2.67,10.17,1.57,2.89.26,7.32.36,11.06.04,1.63.17,3.16.87,4.87.96,2.31,1.39,5.9.21,7.78-1.87,2.99-.39,5.81-1.4,8.92-1.08,2.08-2.36,4.56-3.82,7.39-2.84,1.37-5.89,3.07-9.12,4.33-3.03,1.18-6.25,1.88-9.32,2.77-6.12-3.6-6.21-9.93-7.34-15.56-1.35-6.76-1.24-13.91-3.33-20.38-1.91-5.9-4.31-12.16-10.14-15.89-.82-.53-1.43-1.39-2.35-2.31-1.01,0-2.25.15-3.44-.03-5.03-.73-9.41,1.05-13.52,3.55-4.62,2.81-6.34,7.83-7.64,12.52-4.35,15.66-9.3,25.35-18.85,34.9-.75,0-1.7-.3-2.21.05-5.71,3.82-10.1-.1-13.99-3.01-5.8-4.34-8.44-10.34-8.78-18.08-.41-9.43,2.14-18,5.2-26.43,4.44-12.23,10.64-23.6,17.7-34.65,9.15-14.31,19.51-27.96,26.15-43.81,1.82-4.35,3.98-8.49,3.76-13.47-.09-2.01,1.7-4.27,1.25-6.08-1.23-4.97-1.4-10.2-3.64-14.95-3.15-6.68-6.95-12.87-12.17-18.2-4.27-4.36-8.94-8.29-12.32-13.58-3.06-4.78-4.93-9.65-4.68-15.31q-3.58-2.84-7.35-.23v10.49c.36.56,1.02,1.3,1.33,2.16,1.81,5.07,5.08,9.01,8.74,12.91,5.63,5.98,10.88,12.36,15.89,18.87,2.22,2.89,3.47,6.54,5.37,10.26v16.88c-2.14,4.4-3.77,8.54-6.05,12.28-6.68,11-13.63,21.83-20.43,32.75-4.2,6.74-8.29,13.55-12.49,20.29-4.94,7.93-8.42,16.47-10.83,25.48-1.16,4.33-2.44,8.6-2.69,13.13-.14,2.58,1.11,5.39-1.36,7.72-.48.45-.02,2.44.56,3.35,1.35,2.11.91,4.07.03,7.56-1.47-5.27-3.06-9.19-3.53-13.23-.35-2.97-1.43-5.37-2.65-7.94-2.5-5.28-4.26-10.72-5.25-16.61-.77-4.58-.71-9.14-1.41-13.63-.48-3.04-2.25-6.19-1.18-9.08,1.23-3.32,1.05-6.59,1.42-9.92.39-3.48,1.23-6.93,2.16-10.32.85-3.11,2.36-6.06,3.05-9.2.62-2.82,1.2-5.96.57-8.68-1.37-5.83-3.53-11.48-5.47-17.51.82-1.43,1.84-3.19,2.83-4.91,2.33-.09,4.15-.16,6.39.89,7.82,3.7,16.17,5.59,24.94,4.86.93-.08,1.87-.27,2.75-.58,2.18-.75,4.27-1.94,6.51-2.31,2.43-.41,4.98-.09,7.04-.09,2.66,1.23,4.96,2.3,6.77,3.14,3.45-.64,4.02-2.58,3.82-5.2-.38-.43-.74-1.22-1.33-1.47-3.98-1.68-6.39-4.65-7.67-8.71-.41-1.31-1.16-2.51-1.75-3.77-4.17-8.74-9.02-16.97-17.49-22.94h-9.8c-12.29,6.52-15.47,20.21-24.03,30.11-.86-.96-2.16-1.73-2.25-2.62-.67-6.52-1.4-13.06-1.48-19.6-.06-4.53,1.1-9.06,1.33-13.61.23-4.56,2.1-8.78,2.7-13.04.92-6.53,3.38-12.3,6.55-17.56,3.55-5.9,7.56-11.65,12.75-16.54,6.32-5.96,12.52-11.77,20.9-14.77,7.28-2.6,14.2-6.38,22.32-5.86,1.33.08,2.7-.66,4.06-.97.92-.21,1.94-.62,2.79-.42,7.79,1.78,15.87,2.11,23.48,4.78,8.75,3.07,17.25,6.71,25.14,11.64.98.61,2.16.93,3.06,1.63,2.67,2.05,4.65,4.75,7.75,6.55,2.72,1.58,4.6,4.86,6.43,7.67,4.06,6.22,7.97,12.57,10.44,19.63,1.23,3.5,2.01,7.15,3.04,10.73,1.51,5.24,3.04,10.44,3.05,15.99,0,1.84-.03,3.65.74,5.65.95,2.47.22,5.61.06,8.46-.07,1.14-.89,2.28-.8,3.37.35,4.17-.88,7.96-2.25,11.89-.79-1.35-1.36-2.67-2.24-3.73-.94-1.14-2.17-2.03-2.61-2.43-2.3-11.72-4.71-22.36-15.08-29.85Zm-76.95,93.2c2.66,6.51,4.46,9.97,6.51,11.18,8.93,5.28,17.59,11.34,28.93,9.51,2.91-.47,5.96-.07,8.92-.07,2.14-1.51,4.3-2.94,6.36-4.51,2.1-1.6,4.52-3.01,6.08-5.05,6.66-8.7,7.66-15.93-4.07-22.53-2.01-1.13-4.19-1.98-6.13-3.19-6.96-4.36-14.7-3.62-22.36-3.74-4.59-.07-7.95,2.5-11.56,4.58-5.75,3.31-10.07,7.95-12.67,13.82Z"/>
    <path class="cls-1" d="m219.35,352.06c2.87.94,1.85,4.01,2.69,5.89,1.26,2.8-.18,6.61,1.81,9.65-2.16,5-1.08,10.71-3.46,15.66-1.39,2.89-2.98,5.73-3.92,8.77-.58,1.85-1.35,2.96-3.1,3.49.51-2.8-1.02-5.01-2.08-7.3h-6.35l-6.31,6.31v6.44c2.35,2.84,4.75,2.72,7.39,1.18,1.39-.81,2.9-1.43,4.35-2.13-.18.93-.03,2.17-.58,2.73-4.4,4.46-8.4,9.42-14.58,11.73-2.66,1-5.08,2.51-8.15,2.11-.97-.13-2.07.73-3.36,1.23v-4.81c-2.03-1.92-3.84-3.62-5.81-5.48h-7.59c-1.09,1.8-2.29,3.79-3.49,5.77.65,1.32,1.25,2.54,1.87,3.78-.67.42-1.22.98-1.44.87-2.42-1.2-4.96-1.87-7.63-1.42-2.83.47-5.35-.73-7.32-2.15-2.33-1.68-4.92-2.72-7.28-4.18-7.92-4.91-14.2-11.5-18.45-19.87-.3-.6-.14-1.46-.09-2.2.03-.45.28-.87.48-1.45.75.46,1.48.9,2.24,1.37,1.46-.65,2.93-1.3,3.82-1.69,3.77-5.88,2.73-11.09-1.11-16.36-3.13.36-6.47-.78-10.43,1.82,2.39-9.01,1.6-17.97,6.9-26.03,2.62.49,5.11.96,8.05,1.51,3.46-3.8,8.99-6.95,7.97-14.13-1.81-.82-3.7-1.68-5.66-2.56.13-.31.19-.75.44-.98,3.07-2.79,7.14-3.22,10.84-4.55.87-.31,1.71-.67,2.8-1.1.7,1.99,1.51,4.26,2.31,6.54,3.85,2.87,8.29,2,12.57,2.01,1.26-1.24,2.5-2.47,4.05-4.01-.55-2.3-1.14-4.8-1.69-7.12,2.91.23,5.87.32,8.8.72,3,.41,5.96,1.14,9.32,1.8-.64,2.57-1.59,4.79-1.65,7.04-.05,2.03.88,4.08,1.38,6.11-2.98-2.33-6.46-1.34-9.77-1.47-6.42,4.06-6.66,4.52-6.71,12.7,1.75,1.75,3.5,3.5,5.25,5.25,2.98,0,5.95,0,9.48,0,1.11-1.71,2.39-3.68,3.66-5.65.38-.58,1.12-1.25,1.02-1.76-.32-1.81-.98-3.55-1.4-5.35-.16-.71-.03-1.48-.03-2.22,2.72.61,5.44,1.23,7.95,1.79,2.21-2.22,4.13-4.13,6.04-6.04,8.38,3.16,13.7,9.08,15.99,17.57-2.2-.65-4.47-1.16-6.37-1.59-1.65,1.59-2.91,2.8-4.16,4-2.24,3.93-1.74,7.64.67,11.04,1.88.68,3.62,1.31,4.74,1.72,1.73-1.7,3.12-3.05,5.12-5.02v-9.99Zm-48.21,44.44c.63-1.7,1.46-3.17,1.68-4.73.28-1.95.07-3.98.07-5.97-5.82-7.09-12.36-6.94-17.97.02v7.24c1.84,1.93,3.55,3.73,5.17,5.43h7.01c1.53-.75,2.56-1.26,4.04-1.99Zm-25.89-48.78c-1.39,1.28-2.65,2.45-3.83,3.53v7.56c1.75,1.75,3.5,3.5,5.2,5.21,3.4.19,6.72.22,9.31-1.79,3.07-5.33,2.67-10.07-1.58-14.5h-9.1Zm48.47,38.78c1.63-2.51,3.4-5.25,5.39-8.33-2.05-3.03-3.88-5.72-5.48-8.1h-8.01c-1.27,1.27-2.51,2.49-2.96,2.95-.98,2.69-1.61,4.41-2.39,6.56,1.61,2.25,3.38,4.73,4.94,6.92h8.52Z"/>
    <path class="cls-1" d="m159.4,217.58c0,10.14.44,18.63-.14,27.05-.48,6.95,2.28,13.49,1.64,20.35,2.24,3.29,1.12,7.05,1.57,10.6.32,2.51,1.21,4.96,2.07,7.36.29.8,1.27,1.34,2.61,2.65,1.24-2.33,2.27-4.28,3.37-6.35-2.71-2.1.54-6.73-1.86-10.59-2-3.22.35-7.81-1.45-12.07-1.51-3.61-.31-8.35-.31-12.6v-25.69c1.61-1.14,3.36-2.38,5.37-3.81,5.32,3.04,5.25,9.42,6.56,15,1.46,6.23,1.38,12.7,2.85,19.01,1.05,4.5.47,9.45.14,14.17-.46,6.62,2.03,12.58,3.63,18.75.52,1.99,1.43,3.89,2.32,6.25-.33.79-.86,2.07-1.39,3.35-.44,1.06-1.09,2.09-1.29,3.2-1.13,6.22-5.84,9.15-11.02,10.76-4.48,1.39-9.19,2.95-14.1,2.14-3.68-.61-7.2-1.8-10.77-2.87-5.67-1.7-8.34-7.41-10.8-12.84-2.45-5.4-1.06-11.04-1.48-16.02,1.17-2.08,2.07-3.7,3.15-5.62-1.47-2.19-3.03-4.52-4.79-7.14,1.94-2.28,3.86-4.74,5.99-7,3.57-3.78,6.87-10.13,9.26-15.64,2.6-6.01,4.5-12.16,5.96-18.51.24-1.04,1.38-1.88,2.93-3.87Z"/>
    <path class="cls-1" d="m178.24,119.44c1.83-1.33,3.4-2.49,5.76-4.2,1.78.39,5.04.5,7.7,1.82,3.75,1.85,7.48,2.59,11.61,2.81,7.97.43,10.27.24,17.74-3.07.21-.09.49-.01,1.33-.01,2.12,1.36,4.66,2.99,7.26,4.66,1-.51,1.9-.97,3.85-1.96-1.67,3.66-2.49,6.63-4.22,8.93-2.23,2.97-2.62,6.09-2.44,9.51.13,2.37.71,4.63,1.23,6.93,1.46,6.45,2.29,13.11,3.07,19.69.84,7.14,1.31,14.68-.09,21.64-1.74,8.63-.63,17.12-1.2,25.65-.13,1.99-.21,4.02.04,5.98.23,1.82,1.31,3.58,1.36,5.38.1,3.42.58,7.2-.67,10.17-1.33,3.18.72,6.91-2.19,9.61-.51.47-.25,1.77-1.31,2.68,0-2.32-.75-5.04.22-6.85.91-1.71.99-3.2,1.01-4.84.07-4.74.22-9.49-.03-14.22-.23-4.3-.46-8.7-1.55-12.83-1.87-7.15-3.9-14.35-6.76-21.15-7.03-16.73-8.89-18.82-19.4-33.18-7.76-10.6-14.72-21.77-22.34-33.12Z"/>
    <path class="cls-1" d="m189.24,266.86c2.64-.63,4.92-1.73,7.13-1.61,6.87.4,13.07-1.53,19.11-4.44.55-.26,1.33-.03,2.32-.03-5.57,7.87-9.32,16.01-8.92,25.51.16,3.92-1.01,7.39-2.73,10.83-2.78,5.55-5.38,11.2-8.14,16.98-1.22.61-2.67,1.32-3.33,1.65-4.97-1.22-9.26-2.27-14.12-3.47.66-.95,1.87-1.93,2.91-3.01,1.04-1.07,2.15-2.07,3.16-3.18,4.61-5.07,7.52-10.68,7.36-17.9-.14-6.32-.68-12.29-4.37-17.66-.48-.7-.22-1.9-.37-3.68Z"/>
    <path class="cls-1" d="m105.45,255.47c3.87,3.64,6.45,7.26,11.09,8.21,4.1.84,8.14,1.97,12.17,2.96.76,1.5,1.5,2.94,2.22,4.36-2.84,4.82-1.33,10.07-1.43,15.1-.21,11.8,6.98,21.34,18.62,25.54,1.28.46,2.37,1.44,3.67,2.26-2.94.98-5.92,1.97-8.89,2.96-5.68,1.89-10.78.29-13.39-5.04-3.06-6.26-5.31-12.75-6.37-19.85-.84-5.58-.96-11.07-1.28-16.73-1.52-2.37-2.76-4.72-5.69-6.52-4.13-2.53-7.23-6.76-10.67-10.37-.37-.39-.05-1.45-.05-2.88Z"/>
    <path class="cls-1" d="m118.94,95.8h-8.27c-1.16,1.21-2.36,2.46-3.71,3.86,0,1.01.46,2.52-.08,3.42-2.81,4.71-.45,7.97,2.73,11.11.88.87,1.7,1.79,2.44,2.58h4.29c4.19-2.74,6.11-6.76,5.62-12.02-.14-1.48-.02-2.98-.02-4.47,3.03,1.99,2.44,6.62,5.99,7.86v5.27c-2.1,1.52-4.41,3.19-6.03,4.36-7.08,1.83-13.18-.55-19.38-1.23-2.73-.3-5.21-2.97-7.86-4.59,6.07-7.62,10.55-16,19.26-20.65,1.64,1.46,3.33,2.97,5.02,4.48Z"/>
    <path class="cls-1" d="m211.98,110.26c1.04-1.94,2.02-3.77,2.94-5.48-.67-2.67-1.29-5.15-2.23-8.88-.55-.35-2.2-1.42-5.11-3.3-.04-.02-1.71-.77-4.26-1.92,3.09-1.17,5.21-1.98,7.21-2.74,6.99,5.39,8.28,12.75,9.07,20.61-2.73.46-4.63,3.67-7.62,1.7Z"/>
    <path class="cls-1" d="m199.03,95.73c-.94,5.23-1.96,9.79,1.89,15.06-4.94-.67-8.33-2.12-11.55-3.76,0-.6-.11-.95.02-1.08,3.2-3.42,6.42-6.81,9.64-10.21Z"/>
    <path class="cls-1" d="m213.35,395.52c-.23,1.14.74,2.87-1.5,3,.23-1.14-.74-2.87,1.5-3Z"/>
    <path class="cls-1" d="m121.8,100.46c-.41-.35-.82-.7-1.22-1.04l.47-.47c.35.41.7.82,1.04,1.22l-.29.29Z"/>
    <path class="cls-1" d="m119.08,95.65c.41.35.82.7,1.22,1.04l-.47.47-1.04-1.22.29-.29Z"/>
    <path class="cls-1" d="m187.88,337.08c.5.5,1,1,1.5,1.5-.5-.5-1-1-1.5-1.5Z"/>
    <path class="cls-1" d="m211.85,398.52c-.5.5-1,1-1.5,1.5.5-.5,1-1,1.5-1.5Z"/>
    <path class="cls-1" d="m105.32,256.31c-.41-.35-.82-.7-1.22-1.04l.47-.47c.35.41.7.82,1.04,1.22l-.29.29Z"/>
    <path d="m136.76,174.09c2.6-5.87,6.92-10.51,12.67-13.82,3.61-2.08,6.97-4.65,11.56-4.58,7.67.12,15.4-.62,22.36,3.74,1.95,1.22,4.12,2.07,6.13,3.19,11.74,6.6,10.73,13.83,4.07,22.53-1.56,2.04-3.98,3.45-6.08,5.05-2.06,1.57-4.22,3-6.36,4.51-2.96,0-6.01-.4-8.92.07-11.35,1.83-20-4.24-28.93-9.51-2.05-1.21-3.85-4.67-6.51-11.18Z"/>
    <path d="m187.88,337.08c.5.5,1,1,1.5,1.5,0,.74-.14,1.52.03,2.22.42,1.79,1.08,3.54,1.4,5.35.09.51-.65,1.18-1.02,1.76-1.27,1.97-2.55,3.94-3.66,5.65-3.53,0-6.5,0-9.48,0-1.75-1.75-3.5-3.5-5.25-5.25.05-8.18.29-8.64,6.71-12.7,3.31.13,6.79-.86,9.77,1.47Z"/>
    <path d="m171.14,396.5c-1.48.73-2.51,1.24-4.04,1.99h-7.01c-1.62-1.7-3.34-3.5-5.17-5.43v-7.24c5.61-6.97,12.15-7.12,17.97-.02,0,1.99.21,4.02-.07,5.97-.23,1.56-1.05,3.03-1.68,4.73Z"/>
    <path d="m145.25,347.72h9.1c4.25,4.43,4.65,9.17,1.58,14.5-2.59,2.02-5.92,1.98-9.31,1.79-1.7-1.7-3.45-3.45-5.2-5.21v-7.56c1.17-1.08,2.44-2.25,3.83-3.53Z"/>
    <path d="m193.72,386.5h-8.52c-1.57-2.19-3.34-4.67-4.94-6.92.78-2.15,1.41-3.87,2.39-6.56.46-.45,1.69-1.68,2.96-2.95h8.01c1.61,2.38,3.43,5.07,5.48,8.1-1.99,3.08-3.76,5.81-5.39,8.33Z"/>
    <path d="m211.85,398.52c-.5.5-1,1-1.5,1.5-1.45.7-2.96,1.32-4.35,2.13-2.64,1.54-5.04,1.65-7.39-1.18v-6.44l6.31-6.31h6.35c1.06,2.29,2.6,4.51,2.08,7.3-2.24.13-1.27,1.86-1.5,3Z"/>
    <path d="m219.35,351.75v10.31c-2,1.96-3.39,3.32-5.12,5.02-1.12-.41-2.86-1.04-4.74-1.72-2.41-3.4-2.91-7.11-.67-11.04,1.25-1.21,2.51-2.41,4.16-4,1.91.43,4.17.93,6.37,1.43Z"/>
  </g>
</svg>