<?xml version="1.0" encoding="UTF-8"?>
<svg id="Capa_1" data-name="Capa 1" xmlns="http://www.w3.org/2000/svg" viewBox="0 0 1539.08 1368.66">
  <defs>
    <style>
      .cls-1 {
        fill: #fff;
      }
    </style>
  </defs>
  <path class="cls-1" d="m853.14,1368.28c7.55,0,15.13-.48,22.63.1,17.55,1.35,34.82-2.49,52.28-2.36.75,0,1.76.32,2.23-.05,4.59-3.59,9.96-1.56,14.94-2.27,5.35-.75,10.53-2.13,16.03-2.48,5.69-.36,11.94-.74,17.05-2.44,9.19-3.06,18.76-3.52,27.99-6.03,5.74-1.57,11.65-2.65,17.43-4.46,10.37-3.23,20.76-6.57,31.25-9.21,15.01-3.78,29.56-8.82,43.93-14.3,15.62-5.96,30.92-12.85,46.04-20.01,13.28-6.28,26.12-13.49,39.16-20.27,10.63-5.52,20.95-11.57,31-18.09,9.19-5.97,19.29-10.78,27.67-17.71,13.97-11.56,30.56-19.75,42.84-33.42,16.29-9.01,27.7-23.84,41.77-35.51,10.48-8.69,19.34-19.48,28.61-29.67,14.37-15.78,28.07-32.03,41.19-48.8,7.71-9.85,14.7-20.27,21.84-30.56,4.65-6.7,8.65-13.88,13.53-20.4,10.84-14.49,18.38-30.88,27.08-46.57,10.15-18.3,18.36-37.6,26.68-56.84,7.23-16.72,13.58-33.71,18.63-51.14,3.23-11.13,8.27-21.8,9.21-33.56,6.03-9.17,5.33-20.32,8.83-30.29,1.99-5.67.31-12.82,2.86-18.05,3.01-6.18,1.09-12.64,3.67-18.88,2.02-4.88,1.29-11.27,2.5-17.03,1.24-5.94.89-12.15,2.18-18.33,1.54-7.37.88-15.14,2.25-22.83,1.56-8.78.07-18.06.44-27.1.38-9.14,1.5-18.24,2.16-27.37.45-6.23-3.23-11.82-2.42-18.33.83-6.69.18-13.56.18-20.35,0-3.75,1.24-8.13-.26-11.13-3.06-6.14-1.77-12.31-1.91-18.44-.15-6.22-3.16-11.82-2.61-18.33.58-6.78-3.35-13.46-2.01-20.55-4.35-4.25-1.17-9.9-2.72-14.72-2.94-9.12-3.99-18.68-6.09-28-1.87-8.28-3.92-16.53-6.08-24.72-2.04-7.75-5.8-15.06-7.6-22.84-3.59-15.43-8.88-30.23-14.72-44.87-5.17-12.95-10.07-26.06-16.11-38.6-9.1-18.91-18.88-37.5-28.76-56.01-5.14-9.62-10.88-18.96-16.77-28.15-17.29-26.94-36.86-52.25-56.89-77.16-7.89-9.81-16.75-18.89-25.56-27.91-13.3-13.61-26.62-27.23-41.4-39.32-6.85-5.6-12.74-12.55-20.09-17.28-5.45-3.51-8.96-8.86-14.16-12.19-14.73-9.41-28.34-20.41-43.12-29.75-17.57-11.1-34.76-22.8-53.63-31.76-4.7-2.23-9.52-4.45-13.76-8.01-4.16-3.5-9.61-5.93-14.88-7.53-13.77-4.17-26.4-11.02-39.66-16.35-11.33-4.55-22.51-9.51-34.16-13.16-13.05-4.09-26.31-7.54-39.43-11.43-7.04-2.08-13.88-5.88-20.99-6.43-10.15-.79-19.39-6.41-29.8-4.86-10.26-4.62-21.65-3.76-32.37-6.45-6.13-1.54-12.9-1.19-19.4-2.37-6.36-1.16-12.93-1.17-19.45-2.13-11.59-1.71-23.46.03-35.3-2.3-8.72-1.72-18.06-.61-27.1-.26-9.14.35-18.18-.41-27.47,1.76-8.59,2.01-18.01.43-27.07.43-.38,0-.86-.15-1.12.02-5.36,3.62-11.43,1.72-17.19,2.28-6.12.59-12.23,1.35-18.3,2.28-3.13.47-6.14,1.78-9.27,2.13-3.35.38-7.11-.83-10.12.25-9.78,3.52-20.16,4.07-30.17,6.17-8.32,1.74-16.38,5.44-25.14,5.12-16.22,6.77-33.5,10.11-50.13,15.6-24.24,8.01-47.51,18.33-70.86,28.47-15.45,6.71-29.45,16.31-44.62,23.49-10.93,5.18-20.76,11.97-30.85,18.29-10.56,6.62-21.18,13.26-30.93,21.25-9.94,8.14-21.22,14.64-31.26,22.68-12.04,9.65-23.74,19.79-34.95,30.4-13.98,13.22-27.31,27.12-40.91,40.73-1.6,1.6-3.49,3-4.76,4.84-8.7,12.62-19.9,23.14-29.1,35.4-8.41,11.21-16.68,22.47-24.66,33.99-7.28,10.51-13.96,21.39-21.04,31.98-9.06,13.56-15.66,28.35-23.98,42.22-11.56,19.26-18.75,40.55-28.4,60.7-2.08,4.35-4.16,8.95-5.39,13.59-4.13,15.61-11.84,30.12-13.95,46.32-5.02,7.47-6.51,16.49-8.27,24.77-1.84,8.65-6.15,17.05-5.1,26.3-5.39,14.11-4.84,29.42-8.88,43.85-1.18,4.2,1.45,10.01-.58,13.29-2.8,4.54-1.58,8.68-1.7,12.9-.13,4.44-2.42,8.65-2.17,12.63.98,15.69-1.97,31.08-2.68,46.62-1.13,24.7,2.94,49.15,2.42,73.79-.02,1.13-.49,2.71.08,3.32,3.85,4.2,1.52,9.24,2.19,13.85.73,4.97,1.65,9.93,2.23,14.92.88,7.6.46,15.54,2.56,22.75,2.89,9.93,3.79,20.19,6.11,30.19,2.32,9.98,4.56,20.01,7.28,29.9,3.25,11.82,6.67,23.62,10.56,35.25,4.97,14.89,7.94,30.55,16.55,44.08.13,8.16,6.29,13.94,8.43,21.44,2.08,7.3,6.02,14.09,9.4,20.98,3.85,7.85,7.86,15.63,12,23.33,5.81,10.81,11.55,21.68,17.8,32.24,6.84,11.56,13.28,23.56,21.64,33.98,10.88,13.56,20.1,28.26,31.37,41.62,12.51,14.84,25.02,29.69,38.15,43.97,19.67,21.39,41.47,40.6,63.68,59.31,7.49,6.31,14.7,13.25,23.07,18.16,14.18,8.32,25.96,19.95,40.57,27.64,11.53,6.06,22.27,13.6,33.6,20.07,11.56,6.6,23.17,13.21,35.2,18.88,13.86,6.53,28.42,11.71,42.29,18.11,17.93,8.27,36.77,13.35,55.25,19.7,10.3,3.54,21.04,5.65,31.28,9.23,7.67,2.68,15.61,4.41,23.37,6.27,12.8,3.08,26.12,3.89,39.02,7.01,3.89.94,8.86-.82,12.02.97,3.83,2.17,7.31,1.41,10.78,1.23,4.22-.22,7.8,2.42,11.52,2.26,14.15-.62,27.91,3.56,42.1,2.6,10.52-.72,21.12-.14,31.69-.14Z"/>
  <path d="m853.14,1368.28c-10.57,0-21.17-.58-31.69.14-14.19.97-27.95-3.22-42.1-2.6-3.72.16-7.29-2.48-11.52-2.26-3.46.18-6.94.95-10.78-1.23-3.16-1.79-8.13-.03-12.02-.97-12.9-3.12-26.22-3.94-39.02-7.01-7.76-1.87-15.7-3.59-23.37-6.27-10.24-3.58-20.98-5.68-31.28-9.23-18.48-6.35-37.32-11.43-55.25-19.7-13.87-6.4-28.42-11.57-42.29-18.11-12.03-5.67-23.64-12.27-35.2-18.88-11.33-6.47-22.07-14.01-33.6-20.07-14.61-7.69-26.39-19.32-40.57-27.64-8.37-4.91-15.58-11.85-23.07-18.16-22.21-18.71-44.01-37.92-63.68-59.31-13.12-14.27-25.64-29.13-38.15-43.97-11.26-13.36-20.49-28.06-31.37-41.62-8.36-10.41-14.79-22.42-21.64-33.98-6.25-10.56-11.99-21.43-17.8-32.24-4.14-7.7-8.15-15.48-12-23.33-3.37-6.89-7.32-13.68-9.4-20.98-2.14-7.5-8.31-13.28-8.43-21.44-8.61-13.53-11.58-29.19-16.55-44.08-3.88-11.63-7.31-23.42-10.56-35.25-2.72-9.89-4.96-19.92-7.28-29.9-2.32-10-3.22-20.26-6.11-30.19-2.1-7.22-1.68-15.16-2.56-22.75-.58-4.99-1.5-9.94-2.23-14.92-.68-4.61,1.66-9.65-2.19-13.85-.56-.61-.1-2.19-.08-3.32.51-24.63-3.55-49.09-2.42-73.79.71-15.54,3.66-30.93,2.68-46.62-.25-3.98,2.04-8.19,2.17-12.63.12-4.21-1.1-8.36,1.7-12.9,2.02-3.28-.6-9.09.58-13.29,4.04-14.42,3.49-29.74,8.88-43.85-1.05-9.25,3.25-17.64,5.1-26.3,1.76-8.28,3.25-17.29,8.27-24.77,2.11-16.19,9.82-30.71,13.95-46.32,1.23-4.63,3.3-9.24,5.39-13.59,9.66-20.15,16.85-41.44,28.4-60.7,8.32-13.87,14.92-28.66,23.98-42.22,7.08-10.59,13.76-21.48,21.04-31.98,7.98-11.52,16.25-22.78,24.66-33.99,9.2-12.26,20.4-22.78,29.1-35.4,1.26-1.83,3.16-3.23,4.76-4.84,13.61-13.61,26.94-27.51,40.91-40.73,11.21-10.6,22.91-20.75,34.95-30.4,10.04-8.04,21.32-14.53,31.26-22.68,9.75-7.99,20.37-14.63,30.93-21.25,10.1-6.33,19.92-13.12,30.85-18.29,15.17-7.18,29.17-16.78,44.62-23.49,23.35-10.14,46.61-20.47,70.86-28.47,16.63-5.49,33.91-8.84,50.13-15.6,8.76.33,16.82-3.37,25.14-5.12,10.01-2.1,20.39-2.64,30.17-6.17,3.01-1.08,6.76.13,10.12-.25,3.13-.35,6.14-1.65,9.27-2.13,6.08-.92,12.19-1.68,18.3-2.28,5.76-.56,11.82,1.34,17.19-2.28.26-.17.74-.02,1.12-.02,9.06,0,18.48,1.58,27.07-.43,9.29-2.17,18.33-1.41,27.47-1.76,9.04-.35,18.38-1.45,27.1.26,11.84,2.33,23.71.58,35.3,2.3,6.52.96,13.09.97,19.45,2.13,6.5,1.19,13.26.84,19.4,2.37,10.72,2.69,22.1,1.83,32.37,6.45,10.41-1.55,19.65,4.07,29.8,4.86,7.12.55,13.95,4.35,20.99,6.43,13.12,3.89,26.37,7.34,39.43,11.43,11.65,3.65,22.83,8.61,34.16,13.16,13.26,5.32,25.9,12.18,39.66,16.35,5.28,1.6,10.73,4.03,14.88,7.53,4.24,3.57,9.07,5.79,13.76,8.01,18.88,8.96,36.06,20.66,53.63,31.76,14.78,9.33,28.39,20.33,43.12,29.75,5.2,3.32,8.7,8.67,14.16,12.19,7.35,4.74,13.25,11.68,20.09,17.28,14.78,12.09,28.09,25.71,41.4,39.32,8.82,9.02,17.67,18.1,25.56,27.91,20.04,24.91,39.6,50.22,56.89,77.16,5.9,9.19,11.64,18.52,16.77,28.15,9.89,18.51,19.67,37.1,28.76,56.01,6.04,12.55,10.94,25.65,16.11,38.6,5.84,14.64,11.13,29.45,14.72,44.87,1.81,7.78,5.56,15.1,7.6,22.84,2.16,8.19,4.21,16.43,6.08,24.72,2.1,9.32,3.16,18.88,6.09,28,1.55,4.82-1.63,10.46,2.72,14.72-1.34,7.09,2.59,13.77,2.01,20.55-.55,6.51,2.47,12.1,2.61,18.33.14,6.13-1.16,12.3,1.91,18.44,1.5,3.01.26,7.38.26,11.13,0,6.79.64,13.66-.18,20.35-.8,6.5,2.87,12.1,2.42,18.33-.66,9.13-1.78,18.23-2.16,27.37-.38,9.04,1.11,18.32-.44,27.1-1.36,7.69-.71,15.45-2.25,22.83-1.29,6.18-.93,12.38-2.18,18.33-1.2,5.76-.48,12.15-2.5,17.03-2.58,6.24-.67,12.7-3.67,18.88-2.55,5.23-.86,12.38-2.86,18.05-3.51,9.97-2.81,21.12-8.83,30.29-.94,11.76-5.99,22.43-9.21,33.56-5.05,17.43-11.4,34.41-18.63,51.14-8.32,19.24-16.53,38.54-26.68,56.84-8.7,15.69-16.24,32.08-27.08,46.57-4.88,6.52-8.88,13.7-13.53,20.4-7.14,10.29-14.13,20.7-21.84,30.56-13.12,16.77-26.82,33.02-41.19,48.8-9.27,10.18-18.13,20.97-28.61,29.67-14.07,11.67-25.48,26.5-41.77,35.51-12.29,13.67-28.87,21.85-42.84,33.42-8.37,6.93-18.47,11.75-27.67,17.71-10.05,6.52-20.37,12.56-31,18.09-13.04,6.78-25.88,13.99-39.16,20.27-15.12,7.15-30.42,14.05-46.04,20.01-14.37,5.48-28.92,10.52-43.93,14.3-10.49,2.64-20.89,5.98-31.25,9.21-5.78,1.8-11.69,2.89-17.43,4.46-9.22,2.51-18.79,2.98-27.99,6.03-5.11,1.7-11.35,2.08-17.05,2.44-5.5.35-10.69,1.73-16.03,2.48-4.98.7-10.35-1.32-14.94,2.27-.47.37-1.47.05-2.23.05-17.46-.13-34.73,3.71-52.28,2.36-7.5-.58-15.09-.1-22.63-.1Zm40.88-67.7c10.12-.72,22.77-.75,35.07-2.87,5.78-1,11.8-.53,17.16-2.14,11.37-3.43,23.26-3.75,34.55-6.78,8.17-2.19,16.47-3.84,24.65-5.89,8.89-2.23,17.61-5.37,26.45-7.08,13.31-2.56,25.23-8.61,37.86-12.72,11.19-3.65,22.75-7.22,33.14-12.77,21.61-11.55,44.34-20.94,65.26-33.78,10.85-6.66,21.93-13.03,32.25-20.44,12.88-9.24,25.75-18.5,38.24-28.33,13.52-10.64,26.66-21.7,39.12-33.39,14.12-13.25,28.59-26.31,40.34-41.97,5.74-7.65,12.75-14.35,19.07-21.58,3.85-4.39,8.34-8.5,11.06-13.54,7.64-14.16,18.79-25.79,26.94-39.69,10.86-18.52,22.34-36.72,32.32-55.73,6.48-12.34,12.14-25.14,17.63-37.96,4.25-9.93,7.36-20.29,11.65-30.27,2.57-5.98,6.12-12.07,6.98-18.55,1.74-13.08,8.43-24.84,9.46-38.02,4.83-3.28-.66-9.73,4-13.06.1-8.68,4-16.57,5.29-25.09.8-5.34.27-11.24,2.33-15.88,1.49-3.37,1.17-6.34,1.78-9.47.68-3.48,1.87-6.89,2.16-10.39.51-6.14.16-12.17,2-18.4,1.64-5.55.05-11.99.43-18,.38-6.12,2.26-12.24,2.03-18.3-.79-20.82,2.09-41.67-1.85-62.5-1.96-10.36.69-21.28-2.32-31.9-1.44-5.08-.2-10.61-2.14-16.1-1.72-4.87-1.38-10.67-2.07-15.99-.74-5.73-1.15-12.07-3.29-16.89-2.44-5.5.52-11.89-4.04-16.45-3.72-20.48-9.45-40.45-15.91-60.2-6.29-19.24-14.02-37.92-22.29-56.42-3.85-8.62-8.05-17.04-12.17-25.52-5.04-10.37-8.91-21.62-15.6-30.8-10.3-14.14-18.83-29.39-28.72-43.77-12.91-18.77-26.5-37.05-41.7-53.72-12.6-13.82-25.18-27.84-39.17-40.59-17.43-15.89-34.84-31.7-53.55-46.05-9.4-7.22-18.63-14.79-28.66-21.02-20.3-12.6-40.66-25.13-62.02-35.99-13.4-6.82-26.5-14.46-40.56-19.59-17.7-6.46-34.93-14.22-53.13-19.35-11.17-3.15-22.41-6.18-33.47-9.49-7.74-2.32-15.75-3.62-23.49-5.89-10.81-3.16-22.24-4.45-33.31-7.09-3.89-.93-8.62.52-11.98-1.13-3.81-1.87-7.31-1.26-10.82-1.08-4.2.21-7.72-2.03-11.53-2.27-9.52-.6-19-1.12-28.52-2-16.46-1.52-33.17-.72-49.76-.34-16.67.38-33.33,1.43-50,2.18-.75.03-1.84-.32-2.21.06-3.38,3.42-7.75,2.58-11.54,2.03-4.71-.67-8.34,2.18-12.67,2.51-6.87.52-14.31.05-20.39,2.63-5.1,2.17-10.39,1.8-15.47,3.56-6.14,2.12-12.89,4.02-19.47,4.87-11.35,1.45-22.12,5.1-32.87,8.32-13.64,4.09-27.2,8.7-40.49,14.18-18.06,7.45-36.45,14.02-53.84,23.06-8.99,4.68-18.26,8.83-27.14,13.7-8.95,4.91-17.79,10.09-26.28,15.76-6.78,4.52-14.34,8.1-20.51,13.19-13.99,11.53-29.92,20.39-43.08,33.16-7.76,7.52-17.35,13.25-25.11,21.05-15.17,15.25-30.4,30.43-45.61,45.63-1.6,1.6-3.38,3.06-4.77,4.83-8.06,10.22-15.58,20.92-24.17,30.66-8.39,9.51-14.35,20.63-22,30.6-5.38,7.02-9.91,14.7-14.66,22.19-4.91,7.75-9.93,15.46-14.35,23.49-4.89,8.87-9.55,17.91-13.57,27.19-4.17,9.6-8.97,18.92-13.27,28.44-4.18,9.24-6.81,19.04-11.44,28.12-3.45,6.77-4.7,14.63-7.61,21.73-4.67,11.4-7.4,23.42-10.55,35.18-2.17,8.11-4.75,16.37-5.6,25.03-.44,4.46-.71,9.51-2.28,13.66-3.3,8.73-3.14,18.1-6.21,26.84-1.29,3.69.7,8.77-1.07,11.98-2.11,3.83-1.38,7.31-1.2,10.78.22,4.22-1.99,7.7-2.29,11.53-.53,6.75-.33,13.58-.1,20.36.24,7-2.99,13.41-2.51,20.58.73,10.89-.1,21.88.27,32.81.38,11.02,1.42,22.02,2.18,33.02.74,10.63,1.51,21.26,2.26,31.89.03.38-.13.82.02,1.12,3.53,6.89,2.27,14.78,4.57,21.89,1.82,5.63,2.6,11.31,2.23,17.18,4.61,2.71,1.01,8.11,4.12,12.03,2.15,2.71.39,8.17,2.44,12.44,1.79,3.72,1.47,8.39,2.54,12.53,1.85,7.13,4.33,14.09,6.04,21.25,3.02,12.64,8.13,24.59,12.35,36.79,3.05,8.84,6.63,17.61,10.2,26.32,3.04,7.42,6.85,14.52,10.31,21.76,3.47,7.24,6.77,14.57,10.46,21.7,2.9,5.62,6.79,10.76,9.34,16.51,4.88,11.01,11.54,21,18.01,30.97,11.51,17.75,23.97,34.85,37.06,51.56,9.68,12.34,19.79,24.35,30.25,35.87,12.48,13.75,25.5,27.16,40.14,38.99,10.8,8.73,20.99,18.28,31.81,27.13,13.11,10.72,27.25,19.82,41.07,29.45,19.43,13.52,39.88,25.29,60.99,35.88,15.27,7.66,30.83,14.79,46.52,21.58,9.27,4.01,19,6.98,28.56,10.28,9.6,3.31,18.38,9.25,29.07,9.08,15.3,7.87,32.6,8.54,48.81,13.2,11.85,3.41,24.5,4.43,36.75,6.87,12.35,2.46,25.16,2.58,37.71,4.62,7.35,1.2,15.07-.08,22.6.3,7.63.38,15.24,1.31,22.83,2.21,14.55,1.72,28.71-3.31,45.62-2.06Z"/>
  <path class="cls-1" d="m894.01,1300.58c-16.91-1.25-31.08,3.78-45.62,2.06-7.59-.9-15.2-1.82-22.83-2.21-7.53-.38-15.25.9-22.6-.3-12.55-2.04-25.36-2.16-37.71-4.62-12.26-2.44-24.9-3.46-36.75-6.87-16.21-4.66-33.51-5.34-48.81-13.2-10.69.17-19.47-5.77-29.07-9.08-9.57-3.3-19.3-6.26-28.56-10.28-15.68-6.79-31.24-13.92-46.52-21.58-21.11-10.59-41.57-22.36-60.99-35.88-13.83-9.63-27.96-18.72-41.07-29.45-10.81-8.84-21-18.4-31.81-27.13-14.64-11.83-27.66-25.24-40.14-38.99-10.46-11.52-20.57-23.53-30.25-35.87-13.1-16.71-25.55-33.81-37.06-51.56-6.47-9.97-13.13-19.96-18.01-30.97-2.55-5.75-6.44-10.9-9.34-16.51-3.69-7.13-6.99-14.46-10.46-21.7-3.47-7.24-7.28-14.34-10.31-21.76-3.57-8.71-7.15-17.48-10.2-26.32-4.22-12.21-9.33-24.15-12.35-36.79-1.71-7.15-4.2-14.12-6.04-21.25-1.07-4.13-.75-8.81-2.54-12.53-2.06-4.26-.29-9.72-2.44-12.44-3.1-3.92.49-9.32-4.12-12.03.37-5.87-.41-11.55-2.23-17.18-2.29-7.11-1.04-15-4.57-21.89-.15-.3,0-.75-.02-1.12-.75-10.63-1.52-21.26-2.26-31.89-.77-11.01-1.8-22-2.18-33.02-.38-10.93.46-21.92-.27-32.81-.48-7.17,2.75-13.58,2.51-20.58-.24-6.78-.44-13.61.1-20.36.3-3.83,2.51-7.32,2.29-11.53-.18-3.47-.91-6.96,1.2-10.78,1.76-3.2-.22-8.29,1.07-11.98,3.07-8.74,2.91-18.11,6.21-26.84,1.57-4.15,1.85-9.19,2.28-13.66.85-8.66,3.43-16.92,5.6-25.03,3.14-11.77,5.87-23.79,10.55-35.18,2.91-7.1,4.16-14.96,7.61-21.73,4.63-9.08,7.26-18.88,11.44-28.12,4.31-9.53,9.11-18.84,13.27-28.44,4.03-9.28,8.69-18.32,13.57-27.19,4.42-8.03,9.44-15.74,14.35-23.49,4.75-7.49,9.28-15.18,14.66-22.19,7.65-9.98,13.61-21.09,22-30.6,8.59-9.75,16.11-20.44,24.17-30.66,1.39-1.76,3.17-3.22,4.77-4.83,15.21-15.21,30.44-30.38,45.61-45.63,7.75-7.8,17.35-13.52,25.11-21.05,13.16-12.76,29.1-21.62,43.08-33.16,6.17-5.09,13.73-8.66,20.51-13.19,8.49-5.66,17.33-10.85,26.28-15.76,8.88-4.87,18.15-9.03,27.14-13.7,17.38-9.04,35.78-15.61,53.84-23.06,13.3-5.49,26.85-10.1,40.49-14.18,10.74-3.22,21.52-6.87,32.87-8.32,6.58-.84,13.33-2.74,19.47-4.87,5.08-1.76,10.37-1.38,15.47-3.56,6.07-2.59,13.51-2.11,20.39-2.63,4.33-.33,7.95-3.18,12.67-2.51,3.79.54,8.16,1.39,11.54-2.03.37-.38,1.46-.02,2.21-.06,16.67-.75,33.32-1.8,50-2.18,16.59-.38,33.3-1.18,49.76.34,9.52.88,19,1.4,28.52,2,3.81.24,7.33,2.48,11.53,2.27,3.5-.18,7.01-.79,10.82,1.08,3.36,1.65,8.09.2,11.98,1.13,11.07,2.64,22.51,3.93,33.31,7.09,7.74,2.27,15.75,3.57,23.49,5.89,11.06,3.31,22.3,6.34,33.47,9.49,18.2,5.13,35.43,12.89,53.13,19.35,14.06,5.13,27.16,12.77,40.56,19.59,21.36,10.86,41.72,23.39,62.02,35.99,10.04,6.23,19.26,13.81,28.66,21.02,18.7,14.35,36.11,30.16,53.55,46.05,13.99,12.75,26.57,26.77,39.17,40.59,15.2,16.67,28.79,34.95,41.7,53.72,9.89,14.38,18.42,29.63,28.72,43.77,6.69,9.18,10.56,20.43,15.6,30.8,4.12,8.47,8.31,16.9,12.17,25.52,8.27,18.49,15.99,37.18,22.29,56.42,6.46,19.74,12.2,39.71,15.91,60.2,4.56,4.56,1.6,10.95,4.04,16.45,2.13,4.81,2.55,11.15,3.29,16.89.68,5.33.35,11.12,2.07,15.99,1.94,5.49.7,11.02,2.14,16.1,3.01,10.61.36,21.53,2.32,31.9,3.93,20.84,1.06,41.69,1.85,62.5.23,6.06-1.65,12.18-2.03,18.3-.38,6.01,1.22,12.45-.43,18-1.84,6.23-1.5,12.26-2,18.4-.29,3.5-1.48,6.92-2.16,10.39-.61,3.13-.28,6.1-1.78,9.47-2.06,4.65-1.53,10.54-2.33,15.88-1.28,8.52-5.18,16.41-5.29,25.09-4.66,3.33.83,9.77-4,13.06-1.04,13.18-7.73,24.93-9.46,38.02-.86,6.48-4.41,12.57-6.98,18.55-4.28,9.97-7.4,20.34-11.65,30.27-5.49,12.82-11.15,25.62-17.63,37.96-9.99,19.02-21.46,37.21-32.32,55.73-8.15,13.9-19.31,25.53-26.94,39.69-2.72,5.04-7.22,9.15-11.06,13.54-6.33,7.22-13.33,13.92-19.07,21.58-11.76,15.67-26.23,28.72-40.34,41.97-12.46,11.69-25.6,22.76-39.12,33.39-12.49,9.83-25.36,19.09-38.24,28.33-10.32,7.41-21.4,13.78-32.25,20.44-20.92,12.84-43.65,22.23-65.26,33.78-10.39,5.55-21.95,9.12-33.14,12.77-12.63,4.12-24.55,10.16-37.86,12.72-8.84,1.7-17.57,4.85-26.45,7.08-8.18,2.05-16.48,3.7-24.65,5.89-11.29,3.03-23.18,3.34-34.55,6.78-5.36,1.62-11.38,1.15-17.16,2.14-12.29,2.12-24.94,2.15-35.07,2.87Zm-47.59-206.18c10.32,5.13,20.88,9.09,32.59,8.96,4.9-.05,9.82.17,14.71-.07,3.54-.17,6.82-.09,10.56-1.81,5.31-2.45,11.88-2.18,16.4-2.85,8.47,4.45,15.55,7.39,23.8,7.07,9.04-.35,18.29,1.07,27.12-.33,16.65-2.64,19.62-3.31,32.14,2.89,6.03,2.99,12.06,4.85,18.65,4.05,3.81-.46,7.55-1.72,11.24-2.87,4.46-1.39,10.54-1.85,14.45-1.63,9.65.54,18.45,4.89,28.96,2.77,16.07-3.24,24.79-13.36,31.77-26.43,3.47-6.49,2.42-13.64,2.22-20.55-.3-10.45-3.85-20.04-8.99-30.32,0-3.32-.75-7.99.2-12.28,1.03-4.6.68-10.02,2.54-13.57,2.41-4.6,1.25-8.67,1.68-12.9.44-4.31,2.62-8.02,2.58-12.63-.13-15.8-1.4-22.55-8.94-47.28-2.17-7.11-4.69-14.6-.78-23.12,3.01-6.58,2.38-15,2.62-22.62.37-11.68.4-23.4-.02-35.07-.23-6.44-.63-13.23-2.82-19.16-4.83-13.07-7.66-27.19-17.93-38.7.86-4.78,2.41-10.05,2.63-15.38.43-10.54.13-21.12.12-31.68,0-1.5.5-3.31-.15-4.45-3.88-6.78-4.23-14.7-7.57-21.79-3.34-7.09-6.77-13.85-11.45-20.16-7.36-9.91-12.7-21.03-16.77-32.63-2.79-7.95-4.18-16.35-6.3-24.52-2.38-9.19-5.07-18.31-7.38-27.5-4.58-18.15-12.34-34.47-26.63-46.54-6.51-5.49-12.6-11.33-18.53-16.71-.42-2.16-.5-4.03-1.17-5.66-1.85-4.52-3.92-8.94-5.94-13.38-6.15-13.57-12.56-26.89-22.71-38.17-6.72-7.47-15.33-12.27-23.09-18.24-9.81-7.55-21.75-11.18-32.79-16.41-4.04-1.91-9.46-.86-13.59-2.67-5.01-2.19-9.96-1.68-14.99-2.12-4.62-.41-9.18-1.93-13.78-2.03-3.44-.07-6.88,1.63-10.38,2.02-3.35.38-6.81-.21-10.17.16-3.5.39-6.95,1.35-10.38,2.2-11.62,2.88-23.01,5.69-33.09,13.25-5.76,4.31-11.18,9.33-17.2,12.98-10.81,6.55-16.65,17.06-24.21,26.22-7.69,9.33-11.2,21.02-17.03,31.41-1.52,2.71-2.88,5.76-3.28,8.78-1.24,9.43-1.99,18.93-2.93,28.37-3.97,4.92-8.14,10.02-12.24,15.17-11.62,14.61-18.09,31.5-18.55,49.89-.26,10.38-3.51,20.37-2.65,30.74.06.68-.15,1.43-.4,2.08-2.91,7.47-5.15,15.31-8.93,22.31-7,12.93-13.62,26.03-18.92,39.71-3.28,8.47-5.95,17.28-7.73,26.18-1.16,5.8.14,12.05-.32,18.05-.46,6.08-1.74,12.1-2.39,16.4-3.28,9.9-9.19,17.05-8.87,26.43-4.57,5.84-2.81,13.37-4.97,19.47-2.65,7.53-.94,14.64-1.7,21.87-.38,3.66-.45,7.58.45,11.1,3.93,15.45,1.81,26.79-7.6,38.42-1.55,1.91-3.37,3.99-3.92,6.27-2.71,11.39-6.98,22.59-6.98,34.41,0,10.63-.08,21.2,1.55,31.96,1.6,10.6.73,21.83-1.16,33.02-2.24,13.29-1.85,27.44,1.88,40.8,2.14,7.67,5.47,15.1,9.05,22.25,2.22,4.43,6.58,7.81,8.7,12.26,1.86,3.92,3.84,6.51,8.02,7.97,1.79.63,2.86,3.32,3.85,4.57,9.11-1.01,17.02-.05,25.2-2.03,8.19-1.99,14.49-7.11,21.25-9.23,8.35,2.77,15.81,6.27,23.63,7.56,8.73,1.45,17.81.79,26.72,1.24,8.57.43,15.19-5.54,22.63-6.95,5.32,3.25,10.15,6.19,15.3,9.33,5.4-1.4,11.1.68,17.19-1.45,12.35-4.32,23.13-11.55,35.94-16.7Zm102.38-933.34c-1.84,5.68-3.55,11-5.27,16.31-1.51,4.66-3.56,9.21-4.43,13.99-2.83,15.66-8.65,30.49-12.07,46.03-3.42,15.59-10.53,30.34-14.97,45.76-2.1,7.28-5.53,14.63-4.62,22.92,12.58.22,23.41,7.19,35.66,7.01,1.3-21.09,7.63-40.11,14.86-59.28,3.39,3.68,5.31,7.22,6.07,11.75,1.61,9.68,4.53,18.81,14.76,22.43h14.06c8.12-5.94,16.3-11.93,26.65-19.5-6.77,21.96-10.77,42.03-21.74,60.09,11.31,7.15,23.95,7.63,35.62,12.59,7.25-24.6,13.31-48.43,21.35-71.57,8-23.02,17.98-45.35,27.27-68.43-3.19-2.22-5.48-4.78-9.72-6.33-5.62-2.06-10.88-.97-16.22-1.78-8.5-1.27-14.71,2.44-20.3,8.46-12.91,13.88-27.77,25.9-39.28,42.34-1.32-2.77-2.79-4.6-3.02-6.58-.67-5.74-3.79-11.15-2.37-17.16-3.12-3.37-1.87-7.58-2.33-11.5-.45-3.87-1.55-7.67-2.17-11.52-.86-5.33-.31-11.31-2.61-15.87-2.67-5.29-3.58-12.7-11.23-14.44-7.89-1.8-15.75-3.75-23.93-5.71Zm319.78,178.17c-3.87,1.51-6.42,2-8.38,3.34-38.63,26.36-78.3,51.23-115.53,79.96,8.69,8.08,11.11,20.59,21.46,27.39,11.2-14.9,27.59-20.82,43.19-31.44-1.03,4.78-1.33,7.64-2.26,10.27-4.68,13.2-11.24,25.57-17.74,37.91-2.69,5.1-4.2,9.84-3.65,12.96,3.93,10.68,11.79,14.99,17.01,21.4,1.05,0,2,.3,2.53-.04,37.46-24.94,73.77-51.65,113.55-72.97,2.28-1.22,4.26-3.02,6.65-4.74-6.85-10.5-12.8-19.62-18.9-28.97-1.02.49-2.11.75-2.88,1.4-14.19,12.02-30.69,20.53-46.33,30.33-.73.46-2.01.06-3.3.06v-7.64c1.53-1.93,3.17-3.5,4.22-5.4,6.82-12.33,14.33-24.24,21.25-36.5,3.25-5.76,6.05-12.29,1.45-19.02-4.02-5.89-7.98-11.83-12.34-18.31Zm-431.09-60.86v-28.45c2.72-1.61,5.15-3.05,8.58-5.08h24.16c1.19-1.19,1.99-1.99,3.67-3.67-.87-5.29-1.12-11.55-3.16-17.16-1-2.74-5.33-4.27-8.07-6.3h-22.44c-1.86-1.86-3.46-3.46-5.18-5.18v-23.62c3.07-1.76,6.12-3.5,7.09-4.06,7.09.81,12.02,1.37,17.75,2.03,2.34,2.57,5.12,5.61,7.73,8.46,9.07-.12,17.94.98,26.08-3.41,5.3-4.79,6.12-11.73,4.08-17.18-1.92-5.13-.86-10.07-2.15-14.85-.85-.85-1.65-1.65-3.07-3.07-1.52,0-3.73.18-5.9-.03-17.51-1.69-34.72,3.2-52.2,2.34-6.39-.31-12.84-.44-19.21.06-6.37.5-12.68,1.89-18.92,2.87,0,2.33-.75,4.76.14,6,2.65,3.67,1.77,7.67,2.2,11.59.42,3.87,1.99,7.66,2.1,11.51.91,29.83,1.61,59.67,2.34,89.5.11,4.52.15,9.05-.02,13.56-.2,5.15-.06,10.13,3.56,14.3,9.8,0,19.8,1.22,29.34-.34,9.93-1.62,19.73-1.83,29.64-1.92,9.78-.09,19.56-.1,29.34-.14,1.07-1.07,2.13-2.13,2.92-2.92.37-5.08-.7-10.68,1.44-14.44,2.53-4.46-.71-6.71-.95-9.95-.36-4.87-3.65-6.57-7.04-8.87-5.5-3.73-11.41-1.42-17.91-2.44-4.95,4.5-10.07,9.15-15.12,13.74h-17.92c-.91-.91-1.71-1.71-2.89-2.89Zm-217.3,54.63c2.54.7,4.78.82,6.47,1.86,6.64,4.08,13.16,8.37,19.61,12.74,8.15,5.52,16.5,10.21,26.74,7.97,9.17-2.88,15.07-9.94,21.56-16.74-2.72-1.81-5.44-3.54-8.07-5.39-15.9-11.23-32.76-20.95-49.33-31.12-8.57-5.26-18.1-9.13-24.74-18.78-2.18-19.57-4.49-40.3-6.82-61.17-10.61,7.09-23.52,9.13-30.44,18.58-3.85,18.1,4.53,34.56,2.42,52.24-10.38-11.31-21.22-21.95-25.98-37.39-11.24,7.58-21.55,14.52-31.82,21.44,1.93,2.98,3.23,5.53,5.03,7.67,5.21,6.19,10.81,12.05,15.89,18.34,4.03,5,6.94,11.01,11.4,15.52,5.44,5.51,8.45,12.64,13.53,18.19,8.57,9.35,14.79,20.34,22.31,30.41,7.28,9.76,14.06,19.89,20.93,29.67,9.42-6.4,18.32-12.44,26.66-18.11v-6.23c-12.92-9.28-17.67-22.36-15.35-39.69Zm574.91-55.02c-2.43-8.85-9.13-13.88-15.14-19.03-3.21-2.75-8.26-3.88-12.66-4.58-4.59-.73-7.78,2.84-11.18,5.6-5.28,4.28-10.81,8.29-16.49,12.01-7.78,5.1-14.88,11.11-22.59,16.33-12.48,8.45-24.29,17.89-36.4,26.88-2.58,1.92-5.26,3.71-7.85,5.61-2.61,1.92-5.22,3.84-7.75,5.86-8.02,6.42-16,12.89-23.51,18.95,7.28,5.88,14.3,11.54,20.55,16.59,3.1.92,5.35,1.6,6.98,2.08,2.43-.65,4.45-1.2,7.41-1.99,1.55-1.73,3.77-4.23,5.47-6.13h9.8c8.22,6.35,16.26,12.55,23.84,18.4v6.7c-1.89,1.54-4.48,3.66-6.51,5.33v8.1c9.25,6.69,18.71,13.52,28.28,20.45,2.75-7.64,5.16-14.56,7.74-21.41,1.35-3.58,3.22-6.97,4.46-10.59,5.53-16.18,11.87-32.02,19.26-47.44,1.35-2.82,2.2-5.87,3.45-8.75,3.88-8.95,6.68-18.66,12.1-26.56,4.96-7.23,7.53-15.02,10.76-22.41Zm-706.91,80.38c7.69,3.66,14.29,6.8,21.23,10.1,4.01-4.81,7.48-8.97,10.66-12.77,0-2.91-.22-5.18.04-7.41.81-6.88-2.2-12.11-7.19-16.23-6.11-5.04-12.51-9.72-18.65-14.44h-14.95c-4.76,4.41-11.05,8.72-15.32,14.51-8.18,11.1-17.23,21.46-25.9,32.13-5.47,6.74-9.58,13.49-8.61,22.03,2.86,3.74,4.81,8.84,8.24,10.19,5.27,2.07,7.15,7.26,11.85,9.6,4.42,2.2,8.29,5.55,12.31,8.51,5.21,3.84,10.37,7.77,15.5,11.73,8.01,6.18,16.01,12.36,23.93,18.65,7.96,6.32,15.67,12.97,23.82,19.05,2.39,1.78,5.82,2.49,8.89,2.94,3.28.49,6.7.11,9.68.11,2.73-1.85,5.4-3.14,7.35-5.13,2.23-2.27,3.59-5.36,5.72-7.74,7.89-8.84,16.45-17.14,23.79-26.41,6.33-7.98,15.35-15.32,11.01-28.87-7.28-11.34-18.01-20.74-31.56-27.41-5.85,6.93-11.51,13.62-17.17,20.31v6.74c4.57,3.55,9.14,7.11,13.33,10.37v7.29c-3.03,3.03-6.21,5.76-8.82,8.95-2.49,3.04-4.01,7-8.78,7.28-12.3-9.31-25.36-17.84-36.78-28.2-11.72-10.64-26.5-17.63-36.73-29.74,4.77-6.03,8.83-11.16,12.75-16.12h10.34Zm-142.44,220.92c1.42,1.27,2.4,2.93,3.65,3.15,13.58,2.42,26.95,5.71,40.34,9.03,12.62,3.13,25.03,6.95,37.5,10.53,8.37,2.4,16.75,5.22,25.13,7.34,9.76,2.48,18.98,6.4,29.78,9.11,1.32-5.38,2.15-11.01,4.11-16.21,2.11-5.58,5.2-10.77,4.08-17.54-16.73.72-32.07-1.46-43.21-15.56,2.93-8.66,5.61-16.98,8.56-25.19,3.47-9.69,5.66-19.31.67-28.18-5.11-4.07-10.24-7.1-15.63-7.72-10.68-1.22-20.76-4.84-30.75-7.91-11.9-3.66-23.46-6.79-36.1-5.74-4.37,4.48-8.47,8.87-10.34,15.85-3.91,14.61-7.45,29.3-11.05,43.98-2,8.17-4.36,16.25-6.73,25.05Zm1035.4,35.96c-1.06-9.76-2.12-19.56-3.15-29.01-1.08-2.1-2.04-3.97-2.97-5.78-7.2-1.15-14.46.95-21.77-2.14-4.7-1.99-10.49-.44-16.01-2.14-5.25-1.62-11.32-1.06-17.06-2.46-5.51-1.34-11.33-.25-17.19-2.16-5.64-1.83-12.39.77-18.16-2.61-12.26,1.62-24.15-2.6-36.35-2.32-6.41.15-12.94,1.05-19.94-3.19,1.85,11.07,3.42,20.47,4.9,29.37,2.83,2.83,5.23,5.23,8.02,8.02h12.5c4.84,11.45,6.07,23.35,6.65,34.85-1.46,1.46-2.26,2.26-3.45,3.45h-9.06l-3.4,3.4c-1.03,11.78,4.74,23.1,4.94,36.14,7.9-4.1,13.77-9.24,20.81-12.64,8.18-3.94,16.51-7.43,24.76-11.18,15.55-7.06,30.6-15.21,46.08-22.42,12.61-5.88,25.54-11.05,39.85-17.19Zm-652.63-314.94c-6.06-19.82-12.93-38.45-20.17-56.96-7.22-18.48-11.78-38.01-17.69-57.7-11.46,3.45-22.88,6.89-34.79,10.48.14,2.43-.66,5.64.6,7.36,3.46,4.75,3.94,10.49,6.28,15.55,2.93,6.33,6.37,12.45,8.94,18.92,2.7,6.81,4.45,13.98,6.93,20.88,4.14,11.52,6.81,23.75,11.77,34.69,6.16,13.6,8.44,28.15,14.17,42.34,3.45-1.17,7.01-.25,11.23-1.76,19.42-6.94,39.34-12.45,58.94-18.88,4.59-1.51,9.03-2.43,13.62-2.07,1.22-1.22,2.28-2.28,3.36-3.35.91-11.1-2.55-21.08-7.07-29.36-7.98-6.04-15.47-3.82-22.51-1.17-7.76,2.92-9.24,11.57-14.09,17.94-6.04.96-12.36,1.96-19.52,3.1Zm-197.36,187.43c-9.97-5.42-19.71-11.03-29.74-16.1-27.45-13.87-55.06-27.44-82.51-41.31-5.26-2.66-10.1-6.13-15.79-9.63-5.43,10.97-11.32,20.53-15.16,31.43,9.87,4.42,19.08,8.53,28.28,12.67,6.04,2.72,12.21,5.22,18.07,8.29,8.7,4.56,16.69,11.26,25.89,13.91,11.57,3.33,20.34,11.03,30.87,15.79,9.49,4.3,18.4,9.86,28.16,15.18,2.61-11.34,13.75-17.93,11.93-30.25Zm811.78-21.46c-5.91,2.8-10.75,6.32-16.05,7.24-4.8.84-8.32,3.76-12.76,4.92-17.62,4.59-34.21,12.17-50.86,19.19-16.04,6.76-32.08,13.59-48.07,20.49-2.41,1.04-4.57,2.68-6.55,3.87,5.66,10.01,7.18,21.36,14.88,29.22,43.1-21.83,87.3-38.69,132.87-53.12-5.66-10.6-5.58-22.31-13.45-31.82Zm24.31,184.21c-15.14,5.24-14.45,16.82-13.78,27.08,5.33,15.02,16.81,14.39,28.46,13.42,3.15-3.15,6.34-6.34,9.9-9.9-1.65-4.06,4.02-7.17,1.85-11.88-1.6-3.46-2.05-7.66-4.26-10.58-2.54-3.34-6.46-5.63-9.49-8.14h-12.68Z"/>
  <path d="m846.42,1094.4c-12.81,5.16-23.59,12.39-35.94,16.7-6.09,2.13-11.79.04-17.19,1.45-5.15-3.14-9.98-6.09-15.3-9.33-7.44,1.42-14.06,7.39-22.63,6.95-8.92-.45-17.99.21-26.72-1.24-7.82-1.29-15.27-4.79-23.63-7.56-6.76,2.12-13.06,7.25-21.25,9.23-8.18,1.98-16.09,1.02-25.2,2.03-1-1.25-2.06-3.95-3.85-4.57-4.18-1.46-6.16-4.06-8.02-7.97-2.12-4.46-6.48-7.83-8.7-12.26-3.57-7.15-6.91-14.58-9.05-22.25-3.73-13.35-4.11-27.51-1.88-40.8,1.88-11.19,2.76-22.42,1.16-33.02-1.63-10.77-1.55-21.34-1.55-31.96,0-11.82,4.27-23.01,6.98-34.41.54-2.28,2.37-4.35,3.92-6.27,9.41-11.63,11.53-22.96,7.6-38.42-.89-3.52-.83-7.44-.45-11.1.76-7.23-.96-14.35,1.7-21.87,2.15-6.11.39-13.63,4.97-19.47-.32-9.38,5.59-16.53,8.87-26.43.65-4.3,1.92-10.32,2.39-16.4.46-6-.84-12.25.32-18.05,1.78-8.89,4.45-17.71,7.73-26.18,5.3-13.68,11.92-26.78,18.92-39.71,3.79-7,6.03-14.84,8.93-22.31.25-.65.46-1.4.4-2.08-.86-10.37,2.39-20.36,2.65-30.74.46-18.39,6.93-35.28,18.55-49.89,4.1-5.15,8.27-10.25,12.24-15.17.94-9.44,1.68-18.94,2.93-28.37.4-3.03,1.77-6.08,3.28-8.78,5.82-10.4,9.34-22.08,17.03-31.41,7.55-9.17,13.4-19.67,24.21-26.22,6.03-3.65,11.44-8.67,17.2-12.98,10.09-7.55,21.47-10.37,33.09-13.25,3.44-.85,6.88-1.81,10.38-2.2,3.35-.38,6.81.21,10.17-.16,3.5-.39,6.94-2.09,10.38-2.02,4.6.1,9.16,1.62,13.78,2.03,5.04.45,9.98-.06,14.99,2.12,4.13,1.8,9.55.75,13.59,2.67,11.04,5.23,22.98,8.87,32.79,16.41,7.76,5.97,16.37,10.77,23.09,18.24,10.15,11.28,16.56,24.61,22.71,38.17,2.01,4.45,4.09,8.87,5.94,13.38.67,1.63.74,3.5,1.17,5.66,5.93,5.38,12.03,11.22,18.53,16.71,14.3,12.07,22.06,28.4,26.63,46.54,2.32,9.19,5,18.3,7.38,27.5,2.12,8.17,3.52,16.58,6.3,24.52,4.07,11.6,9.41,22.72,16.77,32.63,4.69,6.31,8.11,13.07,11.45,20.16,3.34,7.1,3.69,15.01,7.57,21.79.65,1.14.15,2.95.15,4.45,0,10.56.31,21.14-.12,31.68-.22,5.33-1.77,10.6-2.63,15.38,10.27,11.51,13.09,25.63,17.93,38.7,2.2,5.94,2.59,12.73,2.82,19.16.43,11.68.39,23.39.02,35.07-.24,7.62.39,16.05-2.62,22.62-3.9,8.52-1.39,16.01.78,23.12,7.54,24.73,8.81,31.48,8.94,47.28.04,4.62-2.15,8.33-2.58,12.63-.43,4.24.73,8.31-1.68,12.9-1.86,3.54-1.51,8.97-2.54,13.57-.96,4.29-.2,8.96-.2,12.28,5.13,10.28,8.69,19.87,8.99,30.32.2,6.91,1.25,14.06-2.22,20.55-6.99,13.07-15.7,23.19-31.77,26.43-10.5,2.12-19.31-2.23-28.96-2.77-3.91-.22-9.98.24-14.45,1.63-3.69,1.15-7.43,2.41-11.24,2.87-6.59.8-12.62-1.06-18.65-4.05-12.52-6.21-15.48-5.54-32.14-2.89-8.83,1.4-18.08-.02-27.12.33-8.26.32-15.33-2.62-23.8-7.07-4.52.67-11.09.41-16.4,2.85-3.74,1.72-7.03,1.64-10.56,1.81-4.89.24-9.81.01-14.71.07-11.71.13-22.27-3.82-32.59-8.96Zm99.38-36.34c3.39-.19,1.92-2.81,2.26-4.53,2.66-.8,3.82-2.48,4.69-5.27,1.43-4.59,3.83-8.88,5.93-13.25,3.6-7.49,1.97-16.11,5.23-23.67-3-4.58-.83-10.35-2.73-14.58-1.28-2.84.28-7.48-4.06-8.9-3.47-13.06-11.5-22.01-24.16-26.79-2.88,2.88-5.77,5.77-9.12,9.12-3.79-.86-7.9-1.78-12.01-2.71-.75-.75-1.51-1.51-2.26-2.26-.75-3.08-2.16-6.18-2.09-9.24.08-3.39,1.52-6.75,2.49-10.63-5.07-1-9.54-2.09-14.08-2.71-4.42-.61-8.9-.75-13.29-1.09.83,3.5,1.72,7.28,2.55,10.75-2.35,2.32-4.22,4.18-6.12,6.05-6.46-.01-13.18,1.3-18.99-3.03-1.22-3.45-2.43-6.88-3.49-9.88-1.64.65-2.92,1.19-4.23,1.66-5.58,2-11.73,2.66-16.37,6.87-.38.34-.46,1.02-.66,1.48,2.96,1.34,5.82,2.64,8.55,3.87,1.53,10.86-6.82,15.61-12.05,21.35-4.44-.83-8.2-1.54-12.16-2.28-8,12.17-6.82,25.71-10.42,39.33,5.99-3.93,11.02-2.21,15.76-2.76,5.8,7.96,7.37,15.83,1.68,24.72-1.34.59-3.57,1.58-5.77,2.56-1.15-.7-2.24-1.37-3.38-2.06-.3.86-.67,1.51-.72,2.19-.08,1.11-.33,2.42.13,3.32,6.43,12.65,15.91,22.61,27.88,30.02,3.57,2.21,7.47,3.78,11,6.32,2.97,2.14,6.78,3.97,11.06,3.25,4.04-.68,7.87.33,11.53,2.15.33.16,1.16-.68,2.18-1.31-.93-1.88-1.84-3.72-2.82-5.72,1.81-3,3.63-6.01,5.27-8.72h11.47c2.97,2.81,5.71,5.38,8.78,8.28v7.27c1.96-.76,3.61-2.06,5.08-1.86,4.64.61,8.3-1.68,12.32-3.18,9.34-3.5,15.38-10.99,22.02-17.73.83-.84.61-2.72.87-4.12.75-.75,1.51-1.51,2.26-2.26Zm-136.07-450.37l.44-.44c-.53-.62-1.05-1.23-1.58-1.85l-.71.71c.62.53,1.23,1.05,2.06,1.34,0,2.25-.18,4.52.03,6.75.74,7.95-2.16,14.02-8.49,18.16h-6.48c-1.12-1.19-2.36-2.59-3.69-3.9-4.81-4.75-8.37-9.67-4.13-16.79.82-1.37.12-3.64.12-5.17,2.04-2.13,3.86-4.01,5.61-5.84,4.25,0,8.38,0,12.71-.24l-.44.44,1.58,1.85.71-.71c-.62-.53-1.23-1.05-2.06-1.34-2.56-2.28-5.11-4.56-7.58-6.76-13.16,7.02-19.93,19.69-29.1,31.2,4,2.46,7.74,6.48,11.87,6.94,9.37,1.04,18.59,4.63,29.28,1.86,2.45-1.78,5.94-4.3,9.11-6.59v-7.96c-5.37-1.87-4.47-8.87-9.26-11.64Zm-24.91,235.49l.44-.44c-.53-.62-1.05-1.23-1.58-1.85l-.71.71c.62.53,1.23,1.05,2.06.3,0,2.17-.49,3.76.08,4.35,5.19,5.45,9.88,11.84,16.12,15.67,4.43,2.72,6.31,6.27,8.6,9.86.49,8.55.68,16.85,1.94,25.27,1.61,10.74,5,20.54,9.63,30,3.94,8.05,11.64,10.47,20.23,7.61,4.5-1.5,8.99-2.99,13.44-4.47-1.96-1.23-3.61-2.72-5.54-3.42-17.58-6.34-28.46-20.76-28.13-38.59.14-7.6-2.14-15.54,2.16-22.82-1.09-2.15-2.2-4.32-3.36-6.59-6.09-1.5-12.19-3.2-18.39-4.47-7.01-1.44-10.91-6.91-16.96-11.13Zm-52.85-240.54c-1.32,1.54-2.93,2.67-3.47,4.19-2.22,6.26-5.33,12.18-7.95,18.21-6.55,15.04-9.24,30.62-10.2,46.69-.31,5.26,0,10.56-.08,15.84-.03,1.8.09,3.83-.66,5.37-5.19,10.69-9.82,21.76-16.14,31.75-6.16,9.74-9.21,20.33-12.84,30.96-1.85,5.43-.29,11.36-2.48,15.91-2.87,5.97-.94,11.66-1.81,17.38,4.77,6.2,1.28,11.15-2,16.56-2.87,4.74-4.62,10.14-7.1,15.14-2.55,5.15-2.78,11.28-5,16.01-2.8,5.95.39,11.95-2.5,17.09-3.24,5.75-1.24,11.71-1.35,17.5-.16,8.38-.91,16.74,1.83,25.18,2.05,6.3-1.89,12.66-4.82,18.15-5.97,11.18-11.22,22.55-14.18,34.88-.83,3.48-.2,7.61-1.86,10.52-2.49,4.39-.84,8.71-1.52,12.98,5.39,4.1.78,10.35,3.45,15.59,2.31,4.52,1.03,10.87,1.34,16.61-8.74,5.83-1.72,16.21-6.99,23.15-.55.72-.11,2.21-.05,3.34.02.31.26.71.53.89,2.78,1.9,1.89,4.83,1.62,7.21-1.1,9.67,2.26,18.59,4.79,27.51,2.96,10.42,7.87,19.94,16.69,27.08,3.94,3.19,8.06,5.37,12.87,4.32,4.37-.96,9.28-2.26,12.48-5.08,5.81-5.12,13.4-6.37,18.62-10.81,12.92,2.72,23.72,9.7,36.71,9.65,3.44-.01,7.44,3.29,10.99.69,3.87-2.84,8.34.28,12.57-2.77,4.33-3.12,10.45-3.75,14.97-5.2,5.41,4.32,10.21,8.15,14.4,11.49,12.84-3.11,23.75-8.39,35.1-12.66-2.76-2.76-5.61-5.27-8.05-8.14-2.8-3.3-6.35-5.72-8.37-10.08-1.72-3.7-4.46-7.04-6.33-10.96-2.01-4.22-2.82-8.76-4.62-12.8-1.95-4.37-1.52-8.5-2.01-12.78-.49-4.25-1.89-8.42-2.05-12.66-.1-2.67,1.7-5.36,2.01-8.12.38-3.35-.2-6.81.18-10.17.35-3.13,1.3-6.21,2.2-9.25,2.7-9.05,5.56-18.23,10.62-26.09,3.55-5.53,5.94-10.62,5.3-15.41-1.29-3.12-1.58-5.08-2.68-6.29-8.89-9.8-11.71-22.35-15.31-34.4-1.35-4.5.15-9.78-.32-14.64-.48-4.94-1.77-9.8-2.7-14.69-5.07-5.07-10.56-9.78-15.11-15.28-8.82-10.66-16.46-21.97-20.85-35.49-2.18-6.72-2.84-13.77-5.6-20.29-3.12-7.38-5.8-14.95-8.87-22.36-3.79-9.16-7.07-18.85-7.47-28.43-.52-12.41-1.56-24.91,1.34-37.63,2.28-9.99,3.86-20.15,6.98-30.01,1.39-4.38,1.96-9.07,2.5-13.67.56-4.81-2.38-8.76-3.83-13.09-3.13-9.36-6.26-18.9-7.06-28.64-.42-5.17-3.26-9.78-2.56-14.86.74-5.36-2.23-9.7-3.32-15.1Zm204.36,485.8c8.68,4.35,17.52,3.61,26.26,3.58,3.48-5.14,10.49.61,13.97-4.53h14.78c6.15,3.17,11.46,5.9,17.97,9.25,3.43-.23,8.52.36,12.94-1.09,5.47-1.8,11.25-2.82,16.61-3.23,8.59-.65,17.85-.11,25.93,2.6,5.94,1.99,10.21.31,15.39-.57,6.41-1.08,11.02-4.9,13.91-9.68,2.41-3.99,4.53-9.06,3.41-14.37-.73-3.46-1.71-6.89-2.21-10.39-.8-5.63-2.19-11.02-4.16-16.39-3.6-9.82-3.64-20.14-1.95-30.31.92-5.53,4.56-10.73,3.65-16.48-1.03-6.5,2.79-12.08,2.41-18.32-.37-6.15-.72-12.2-1.79-18.38-1.59-9.19-3.12-18.05-7.1-26.61-2.07-4.46-2.38-9.66-2.71-14.81-.37-5.75,2.87-10.56,2.53-16.05-1.07-17.4,1.48-34.82-1.92-52.32-2.31-11.86-4.4-23.6-8.55-35-3.44-9.44-6-19-5.63-29.48.41-11.72.55-23.45-1.53-35.35-1.86-10.65-5.26-20.51-9.05-30.32-4.45-11.51-12.23-21.04-20.73-29.85-3.08-3.19-6.86-6.71-6.59-10.73.41-6.12-2.07-11.43-2.77-17.17-1.03-8.43-2.53-16.94-5.13-25-4.38-13.6-9.1-27.16-16.6-39.52-2.9-4.79-5.27-9.9-8.16-14.7-.4-.67-2.4-.38-4.95-.7,1.43,2.78,2.2,4.29,3.8,7.41-.82,9.64-1.79,21-2.76,32.36-.06.74.21,1.67-.15,2.19-3.33,4.89-1.92,11.39-4.94,16.03-3.2,4.91-3.36,10.87-6.4,15.46-3.28,4.97-2.5,9.68-1.15,14.62.92,3.35,2.71,6.48,3.5,9.85,2.3,9.8,2.31,19.92,4.31,29.85,2.27,11.25-3.73,22.54-1.98,34.09-3.51,2.41-1.78,6.08-2.31,9.24-.52,3.12-2.11,6.19-2.05,9.25.07,3.85,2.09,7.7,1.97,11.51-.51,16.29,2.31,32.78-2.19,48.84-2.76,9.85-6.21,19.44-13.18,27.37-4.81,5.46-9.21,11.29-13.93,17.12,0,3.49.29,7.29-.09,11.03-.36,3.5-2.19,6.96-2.04,10.38.44,10.04-3.6,18.89-7.41,27.55-3.38,7.68-8.66,14.52-13.11,21.74,24.34,18.5,40.58,42.21,40.41,73.45-.17,31.15-14.11,56.8-38.56,76.57Zm12.28-510.32c15.66,11.32,19.3,27.4,22.79,45.11.66.6,2.52,1.96,3.94,3.67,1.33,1.61,2.19,3.6,3.38,5.64,2.07-5.93,3.93-11.67,3.4-17.97-.14-1.65,1.11-3.37,1.21-5.09.25-4.3,1.34-9.05-.09-12.78-1.16-3.03-1.11-5.76-1.12-8.54-.03-8.38-2.34-16.25-4.62-24.16-1.55-5.4-2.74-10.92-4.6-16.21-3.74-10.66-9.65-20.25-15.78-29.66-2.76-4.24-5.61-9.2-9.72-11.59-4.68-2.71-7.67-6.8-11.71-9.89-1.37-1.05-3.15-1.53-4.62-2.46-11.93-7.45-24.76-12.94-37.99-17.59-11.49-4.04-23.71-4.53-35.48-7.22-1.29-.3-2.82.33-4.22.64-2.06.46-4.13,1.59-6.14,1.46-12.26-.77-22.72,4.93-33.72,8.86-12.68,4.52-22.04,13.31-31.59,22.31-7.84,7.39-13.89,16.08-19.26,24.99-4.79,7.95-8.51,16.67-9.9,26.54-.91,6.45-3.74,12.82-4.08,19.71-.34,6.88-2.1,13.72-2.01,20.57.12,9.88,1.23,19.76,2.24,29.61.14,1.35,2.1,2.51,3.4,3.95,12.93-14.96,17.74-35.64,36.3-45.49h14.81c12.8,9.02,20.13,21.46,26.43,34.67.9,1.89,2.02,3.71,2.65,5.69,1.94,6.13,5.58,10.62,11.59,13.17.9.38,1.45,1.58,2.02,2.23.3,3.95-.56,6.9-5.77,7.86-2.74-1.27-6.22-2.88-10.23-4.74-3.12,0-6.97-.47-10.64.14-3.38.56-6.54,2.36-9.83,3.49-1.33.46-2.76.76-4.16.87-13.24,1.11-25.86-1.75-37.68-7.34-3.38-1.6-6.12-1.49-9.65-1.35-1.5,2.6-3.03,5.26-4.28,7.42,2.93,9.11,6.2,17.65,8.27,26.46.96,4.1.07,8.85-.86,13.11-1.03,4.74-3.32,9.2-4.6,13.9-1.4,5.12-2.68,10.34-3.26,15.6-.56,5.02-.28,9.96-2.14,14.98-1.62,4.37,1.06,9.14,1.78,13.73,1.06,6.78.97,13.67,2.13,20.59,1.5,8.9,4.16,17.12,7.94,25.1,1.84,3.88,3.48,7.51,4,12,.72,6.11,3.11,12.03,5.33,19.99,1.33-5.28,2-8.24-.04-11.43-.89-1.38-1.57-4.38-.85-5.07,3.72-3.52,1.84-7.78,2.05-11.67.37-6.85,2.31-13.3,4.06-19.84,3.65-13.61,8.9-26.51,16.37-38.5,6.35-10.19,12.53-20.47,18.88-30.66,10.28-16.5,20.78-32.86,30.87-49.48,3.43-5.65,5.9-11.9,9.13-18.55v-25.5c-2.87-5.63-4.75-11.13-8.11-15.51-7.57-9.85-15.5-19.48-24-28.52-5.53-5.89-10.48-11.84-13.21-19.5-.46-1.3-1.47-2.41-2-3.26v-15.86q5.7-3.94,11.11.35c-.37,8.55,2.45,15.91,7.08,23.14,5.11,7.98,12.18,13.92,18.62,20.51,7.88,8.05,13.62,17.4,18.38,27.5,3.38,7.17,3.64,15.07,5.5,22.58.68,2.73-2.02,6.14-1.89,9.18.33,7.52-2.93,13.78-5.68,20.35-10.03,23.94-25.69,44.57-39.51,66.19-10.67,16.69-20.03,33.87-26.74,52.35-4.63,12.75-8.47,25.69-7.85,39.94.51,11.7,4.5,20.77,13.26,27.32,5.88,4.4,12.52,10.31,21.14,4.55.78-.52,2.22-.07,3.35-.08,14.43-14.43,21.92-29.07,28.49-52.74,1.97-7.08,4.57-14.66,11.55-18.92,6.2-3.78,12.83-6.48,20.42-5.37,1.8.26,3.68.04,5.2.04,1.39,1.39,2.3,2.69,3.55,3.48,8.82,5.63,12.45,15.1,15.32,24.01,3.16,9.78,2.99,20.59,5.03,30.8,1.7,8.51,1.84,18.07,11.09,23.51,4.63-1.35,9.49-2.41,14.08-4.19,4.88-1.9,9.49-4.47,13.78-6.54,2.22-4.28,4.15-8.02,5.78-11.17,1.54-4.7-.71-8.96,2.12-13.48,1.78-2.85,1.13-8.27-.31-11.76-1.07-2.59-1.26-4.89-1.32-7.36-.15-5.65,1.84-12.34-.54-16.71-2.81-5.15.81-11.34-4.04-15.37-2.86-19.82-12.8-36.57-24.39-52.07-10.98-14.68-22.71-28.81-32.54-44.32-8.46-13.34-18.84-25.7-20.24-42.6-.53-6.46-3.7-24.1-1.9-28.43,3.47-8.37,4.96-17.3,10.06-25.32,8.89-13.97,20.07-26.16,28.83-40h8.76c.83,2.54,1.68,5.12,2.01,6.13-5.96,8.04-10.71,14.91-15.93,21.39-7.18,8.92-10.41,19.88-15.94,29.61-6.29,11.07-4.07,22.82-4.13,34.39-.01,2.7,2.31,5.41,3.93,8.91,12.9-18.68,23.8-38.01,45.23-48.5h12.27Zm-82.07,206.55c-2.34,3.01-4.06,4.27-4.43,5.85-2.2,9.59-5.07,18.88-9,27.97-3.6,8.33-8.6,17.93-13.99,23.63-3.22,3.41-6.12,7.13-9.05,10.58,2.65,3.96,5.02,7.48,7.24,10.79-1.62,2.9-2.99,5.34-4.76,8.49.63,7.52-1.46,16.05,2.24,24.21,3.72,8.21,7.76,16.82,16.32,19.4,5.4,1.62,10.72,3.42,16.28,4.34,7.42,1.23,14.54-1.13,21.3-3.23,7.83-2.43,14.95-6.86,16.65-16.26.3-1.67,1.28-3.23,1.95-4.84.8-1.93,1.6-3.86,2.1-5.06-1.35-3.57-2.73-6.43-3.5-9.44-2.41-9.32-6.18-18.32-5.48-28.33.5-7.13,1.37-14.62-.21-21.41-2.22-9.53-2.1-19.3-4.31-28.72-1.98-8.44-1.87-18.06-9.91-22.66-3.04,2.16-5.68,4.03-8.11,5.76v38.82c0,6.41-1.82,13.58.47,19.03,2.71,6.45-.84,13.39,2.19,18.25,3.63,5.83-1.28,12.83,2.81,16.01-1.66,3.13-3.22,6.07-5.09,9.59-2.01-1.99-3.51-2.81-3.94-4.01-1.3-3.62-2.65-7.34-3.13-11.12-.68-5.36,1.02-11.04-2.37-16.02.97-10.37-3.19-20.25-2.47-30.75.88-12.72.21-25.55.21-40.87Zm28.47-148.29c11.5,17.16,22.03,34.04,33.75,50.05,15.88,21.69,18.69,24.85,29.31,50.13,4.32,10.28,7.38,21.14,10.21,31.95,1.64,6.25,1.99,12.89,2.34,19.39.38,7.15.15,14.33.05,21.49-.04,2.48-.15,4.72-1.53,7.31-1.45,2.74-.33,6.84-.33,10.35,1.6-1.37,1.21-3.33,1.98-4.05,4.4-4.08,1.31-9.72,3.32-14.53,1.88-4.5,1.16-10.21,1.01-15.37-.08-2.72-1.71-5.37-2.06-8.13-.38-2.97-.26-6.03-.06-9.04.86-12.88-.82-25.72,1.81-38.75,2.12-10.51,1.41-21.9.14-32.69-1.17-9.94-2.43-20.01-4.64-29.75-.79-3.47-1.67-6.89-1.86-10.47-.28-5.16.31-9.88,3.68-14.37,2.61-3.47,3.84-7.96,6.37-13.49-2.95,1.5-4.32,2.2-5.82,2.97-3.93-2.52-7.78-4.99-10.97-7.04-1.26,0-1.69-.12-2,.02-11.29,5-14.77,5.28-26.81,4.64-6.23-.33-11.87-1.45-17.54-4.25-4.03-1.99-8.95-2.16-11.64-2.75-3.55,2.59-5.94,4.34-8.7,6.35Zm16.62,222.74c.23,2.7-.16,4.51.56,5.56,5.58,8.11,6.4,17.13,6.61,26.68.24,10.91-4.16,19.38-11.13,27.04-1.52,1.67-3.2,3.18-4.77,4.8-1.57,1.63-3.4,3.11-4.39,4.54,7.35,1.8,13.83,3.4,21.34,5.24,1-.5,3.18-1.58,5.03-2.5,4.17-8.74,8.1-17.27,12.31-25.66,2.6-5.19,4.37-10.43,4.13-16.36-.6-14.36,5.06-26.66,13.48-38.55-1.49,0-2.67-.34-3.5.05-9.13,4.39-18.5,7.31-28.88,6.71-3.34-.19-6.78,1.47-10.78,2.43Zm34.36-236.62c4.51,2.97,7.39-1.88,11.51-2.57-1.2-11.88-3.14-22.99-13.71-31.14-3.03,1.15-6.22,2.36-10.9,4.14,3.86,1.74,6.38,2.87,6.44,2.9,4.41,2.84,6.9,4.45,7.73,4.98,1.41,5.65,2.35,9.39,3.36,13.43-1.39,2.58-2.87,5.34-4.44,8.27Zm-19.56-21.96c-4.86,5.14-9.73,10.27-14.57,15.43-.19.2-.02.73-.02,1.64,4.86,2.48,9.98,4.68,17.45,5.69-5.82-7.96-4.27-14.86-2.86-22.76Z"/>
  <path d="m948.81,161.06c8.18,1.96,16.04,3.91,23.93,5.71,7.66,1.74,8.56,9.15,11.23,14.44,2.31,4.56,1.75,10.54,2.61,15.87.62,3.86,1.72,7.65,2.17,11.52.46,3.92-.79,8.13,2.33,11.5-1.42,6.01,1.7,11.42,2.37,17.16.23,1.98,1.7,3.81,3.02,6.58,11.51-16.44,26.37-28.46,39.28-42.34,5.59-6.01,11.8-9.73,20.3-8.46,5.34.8,10.6-.28,16.22,1.78,4.24,1.55,6.53,4.11,9.72,6.33-9.29,23.08-19.27,45.41-27.27,68.43-8.04,23.14-14.1,46.96-21.35,71.57-11.67-4.96-24.31-5.45-35.62-12.59,10.97-18.06,14.97-38.12,21.74-60.09-10.35,7.57-18.53,13.56-26.65,19.5h-14.06c-10.23-3.61-13.15-12.75-14.76-22.43-.76-4.53-2.67-8.07-6.07-11.75-7.24,19.17-13.56,38.19-14.86,59.28-12.25.18-23.09-6.79-35.66-7.01-.91-8.29,2.52-15.64,4.62-22.92,4.44-15.42,11.55-30.17,14.97-45.76,3.41-15.55,9.24-30.38,12.07-46.03.86-4.77,2.92-9.33,4.43-13.99,1.72-5.31,3.44-10.63,5.27-16.31Zm104.76,56.91h-16.13c-8.25,7.52-12.63,19.01-24,23.13,1.21,12.94,13.34,16.11,19.09,24.12h10.79c5.67-11.7,10.67-23.46,8.68-36.72,1.96-2.08,3.67-3.91,5.57-5.94-1.47-1.69-2.42-2.78-4.01-4.6Zm-107.23,22.81c8.51-.91,16.9,1.94,24.44-3.54-.43-6.4-.44-12.86,4.35-18.34.88-1,.13-3.43.13-5.24-3.4-.18-5.94-.31-7.72-.41-1.72-2.66-3.07-4.74-4.19-6.47-4.38-.74-8.76,1.57-11.88-2.15-1.91,1.81-3.82,3.62-5.85,5.54,1.23,4.98-1.5,10.29,1.83,15.16,3.43,5.02-3.01,9.45-1.09,15.44Z"/>
  <path d="m1268.59,339.23c4.36,6.48,8.32,12.42,12.34,18.31,4.6,6.73,1.8,13.26-1.45,19.02-6.92,12.25-14.43,24.17-21.25,36.5-1.05,1.9-2.69,3.47-4.22,5.4v7.64c1.29,0,2.56.4,3.3-.06,15.64-9.81,32.14-18.31,46.33-30.33.77-.65,1.86-.92,2.88-1.4,6.1,9.35,12.05,18.47,18.9,28.97-2.39,1.72-4.36,3.52-6.65,4.74-39.78,21.32-76.1,48.03-113.55,72.97-.52.35-1.48.04-2.53.04-5.22-6.41-13.08-10.73-17.01-21.4-.55-3.11.96-7.86,3.65-12.96,6.5-12.33,13.06-24.71,17.74-37.91.93-2.63,1.23-5.48,2.26-10.27-15.6,10.62-32,16.53-43.19,31.44-10.35-6.8-12.78-19.31-21.46-27.39,37.23-28.73,76.9-53.6,115.53-79.96,1.97-1.34,4.51-1.83,8.38-3.34Zm-24.01,66.13c1.99-3.52,3.85-7.82,6.62-11.41,2.89-3.77,6.65-6.86,10.38-10.59-7.51-7.59-13.29-16.22-24.61-13.42-6.65,6.16-12.82,11.89-19.95,18.49.89,3.61,2.06,8.38,3.17,12.89,8.71.1,15.35,6.84,24.4,4.04Z"/>
  <path d="m837.5,278.38c1.19,1.19,1.99,1.99,2.89,2.89h17.92c5.05-4.59,10.17-9.24,15.12-13.74,6.5,1.02,12.41-1.29,17.91,2.44,3.39,2.3,6.68,4,7.04,8.87.24,3.24,3.48,5.49.95,9.95-2.14,3.77-1.07,9.36-1.44,14.44-.78.78-1.85,1.85-2.92,2.92-9.78.04-19.56.06-29.34.14-9.91.09-19.71.3-29.64,1.92-9.54,1.56-19.54.34-29.34.34-3.61-4.17-3.76-9.15-3.56-14.3.18-4.52.13-9.05.02-13.56-.73-29.84-1.42-59.67-2.34-89.5-.12-3.85-1.68-7.64-2.1-11.51-.43-3.93.45-7.92-2.2-11.59-.89-1.24-.14-3.67-.14-6,6.24-.98,12.55-2.37,18.92-2.87,6.37-.5,12.82-.37,19.21-.06,17.48.86,34.69-4.03,52.2-2.34,2.18.21,4.39.03,5.9.03,1.42,1.42,2.22,2.22,3.07,3.07,1.28,4.78.23,9.72,2.15,14.85,2.04,5.44,1.22,12.39-4.08,17.18-8.14,4.39-17.01,3.29-26.09,3.41-2.61-2.86-5.39-5.9-7.73-8.46-5.73-.65-10.66-1.22-17.75-2.03-.97.56-4.02,2.3-7.09,4.06v23.62c1.72,1.72,3.32,3.32,5.18,5.18h22.44c2.75,2.02,7.08,3.56,8.07,6.3,2.04,5.61,2.29,11.87,3.16,17.16-1.68,1.68-2.48,2.48-3.67,3.67h-24.16c-3.44,2.04-5.87,3.47-8.58,5.08v28.45Zm-9.37-38.23c-.74-7.09,2.22-14.89-5.86-20.83-1.79,6.76-3.36,12.68-4.91,18.51,2.8,3.78,6.46,2.91,10.77,2.32Z"/>
  <path d="m620.21,333.01c-2.33,17.33,2.43,30.42,15.35,39.69v6.23c-8.34,5.66-17.24,11.71-26.66,18.11-6.87-9.78-13.65-19.91-20.93-29.67-7.52-10.07-13.74-21.06-22.31-30.41-5.08-5.54-8.09-12.68-13.53-18.19-4.46-4.52-7.37-10.53-11.4-15.52-5.08-6.29-10.68-12.15-15.89-18.34-1.8-2.13-3.09-4.68-5.03-7.67,10.27-6.92,20.58-13.86,31.82-21.44,4.76,15.44,15.6,26.08,25.98,37.39,2.11-17.68-6.27-34.14-2.42-52.24,6.92-9.45,19.83-11.48,30.44-18.58,2.33,20.88,4.64,41.6,6.82,61.17,6.64,9.65,16.17,13.52,24.74,18.78,16.57,10.17,33.43,19.88,49.33,31.12,2.62,1.85,5.34,3.57,8.07,5.39-6.49,6.8-12.39,13.86-21.56,16.74-10.25,2.23-18.59-2.45-26.74-7.97-6.45-4.37-12.98-8.66-19.61-12.74-1.69-1.04-3.93-1.16-6.47-1.86Zm-12.88-38.86c-2.53,1.05-4.55,1.68-6.37,2.68-2.78,1.52-5.31,4.46-8.15,4.74-11.35,1.12-14.42,10.46-19.29,18.12-2.86,4.49-2.01,8.32,2.67,11.94h19.42c-1.41,2.54-2.39,4.29-3.43,6.16-3.81.18-7.38.36-12.66.61,5.22,3.89,8.97,6.68,12.72,9.46.3,2.05.6,4.08.88,5.94h9.69c1.13-1.13,2.19-2.2,3.33-3.33,0-2.93,1.23-6.88-.22-8.77-4.84-6.28.09-9.88,2.84-14.16.8-1.24,2.07-2.18,3.16-3.22,4.17-4.01,6.32-8.77,5.74-12.83-3.77-6.32-6.67-11.19-10.33-17.33Zm-51.12,9.12q-.68-9.35-6.64-9.82c-.37,4.39,3.72,5.63,6.64,9.82Z"/>
  <path d="m1195.12,277.99c-3.23,7.39-5.81,15.18-10.76,22.41-5.42,7.91-8.22,17.61-12.1,26.56-1.25,2.87-2.1,5.93-3.45,8.75-7.39,15.42-13.73,31.26-19.26,47.44-1.24,3.61-3.11,7.01-4.46,10.59-2.58,6.85-4.99,13.77-7.74,21.41-9.58-6.93-19.03-13.76-28.28-20.45v-8.1c2.04-1.66,4.62-3.78,6.51-5.33v-6.7c-7.58-5.85-15.61-12.05-23.84-18.4h-9.8c-1.7,1.9-3.92,4.4-5.47,6.13-2.96.8-4.98,1.34-7.41,1.99-1.62-.48-3.88-1.16-6.98-2.08-6.25-5.05-13.27-10.72-20.55-16.59,7.51-6.06,15.49-12.53,23.51-18.95,2.53-2.02,5.14-3.94,7.75-5.86,2.59-1.9,5.27-3.69,7.85-5.61,12.11-9,23.93-18.43,36.4-26.88,7.71-5.22,14.81-11.23,22.59-16.33,5.68-3.73,11.22-7.73,16.49-12.01,3.4-2.76,6.59-6.33,11.18-5.6,4.4.7,9.45,1.83,12.66,4.58,6.01,5.15,12.71,10.18,15.14,19.03Zm-25.44,1.8c-8.42-4.48-16.12-4.24-23.33,1.24-3.44,11.57-3.39,11.55-1.3,18.27,2.18,7,6.81,11.49,13.79,13.81,1.5-.74,3.13-1.4,4.61-2.32,9.77-6.04,12.1-12.27,8.78-23.38-.7-2.34-1.54-4.64-2.54-7.63Zm-41.21,68.64c2.13-7.25,3.11-13.24,5.66-18.48,2.66-5.46,5.49-10.6,6.1-19.24-11,9.62-20.23,17.68-30.3,26.49,6.38,3.86,11.78,7.13,18.54,11.23Z"/>
  <path d="m488.21,358.37h-10.34c-3.93,4.96-7.99,10.1-12.75,16.12,10.23,12.11,25.01,19.11,36.73,29.74,11.41,10.35,24.48,18.89,36.78,28.2,4.77-.28,6.3-4.24,8.78-7.28,2.61-3.19,5.79-5.92,8.82-8.95v-7.29c-4.19-3.26-8.76-6.81-13.33-10.37v-6.74c5.66-6.7,11.31-13.39,17.17-20.31,13.55,6.68,24.28,16.07,31.56,27.41,4.34,13.55-4.69,20.9-11.01,28.87-7.35,9.26-15.9,17.57-23.79,26.41-2.13,2.38-3.49,5.48-5.72,7.74-1.95,1.99-4.62,3.28-7.35,5.13-2.98,0-6.4.38-9.68-.11-3.07-.46-6.5-1.16-8.89-2.94-8.15-6.07-15.86-12.72-23.82-19.05-7.92-6.29-15.93-12.47-23.93-18.65-5.13-3.96-10.28-7.88-15.5-11.73-4.02-2.96-7.89-6.32-12.31-8.51-4.71-2.34-6.58-7.53-11.85-9.6-3.43-1.35-5.39-6.46-8.24-10.19-.97-8.53,3.13-15.29,8.61-22.03,8.67-10.67,17.72-21.03,25.9-32.13,4.27-5.79,10.55-10.1,15.32-14.51h14.95c6.13,4.72,12.54,9.4,18.65,14.44,5,4.12,8.01,9.35,7.19,16.23-.26,2.22-.04,4.5-.04,7.41-3.17,3.8-6.64,7.96-10.66,12.77-6.94-3.3-13.54-6.44-21.23-10.1Zm44.62,92.74c4.15-6.42,3.91-8.46-1.27-14.48-7.44-8.63-11.74-9.57-22.51-4.93v7.33c3.95,1.33,7.58,2.56,9.75,3.3,1.59,3.85,2.66,6.43,3.63,8.79h10.4Z"/>
  <path d="m345.77,579.29c2.38-8.8,4.73-16.88,6.73-25.05,3.6-14.68,7.14-29.37,11.05-43.98,1.87-6.99,5.97-11.37,10.34-15.85,12.63-1.05,24.19,2.08,36.1,5.74,9.98,3.07,20.07,6.69,30.75,7.91,5.39.62,10.52,3.65,15.63,7.72,4.99,8.88,2.8,18.49-.67,28.18-2.95,8.22-5.63,16.53-8.56,25.19,11.14,14.1,26.48,16.28,43.21,15.56,1.12,6.76-1.97,11.96-4.08,17.54-1.97,5.2-2.8,10.82-4.11,16.21-10.8-2.71-20.03-6.63-29.78-9.11-8.38-2.13-16.76-4.94-25.13-7.34-12.47-3.58-24.88-7.4-37.5-10.53-13.39-3.32-26.75-6.61-40.34-9.03-1.24-.22-2.23-1.88-3.65-3.15Zm83.56-39.81c-13.79-5.96-27.39-10.37-41.26-11.5-6.8,5.62-9.75,11.84-7.78,19.61,1.77,6.12,6.19,10.13,11.67,11.87,9.7,3.07,19.74,5.05,30.23,7.64,1.89-9.23,8.18-16.81,7.14-27.62Zm-10.43-15.92c1.1-2.86,1.79-4.67,2.66-6.94-.23-.39-1.38-2.39-2.99-5.16-2.56,1.27-4.98,2.48-6.03,3,1.84,2.63,3.52,5.04,6.36,9.1Zm-12.02-9.71v-.75h-2.26v.75h2.26Z"/>
  <path d="m1381.16,615.24c-14.31,6.14-27.24,11.32-39.85,17.19-15.48,7.22-30.53,15.36-46.08,22.42-8.25,3.74-16.58,7.23-24.76,11.18-7.04,3.4-12.91,8.53-20.81,12.64-.2-13.04-5.97-24.37-4.94-36.14l3.4-3.4h9.06c1.19-1.19,1.99-1.99,3.45-3.45-.58-11.5-1.81-23.4-6.65-34.85h-12.5c-2.79-2.79-5.18-5.18-8.02-8.02-1.48-8.9-3.05-18.29-4.9-29.37,7,4.24,13.54,3.33,19.94,3.19,12.2-.28,24.08,3.94,36.35,2.32,5.76,3.38,12.52.78,18.16,2.61,5.86,1.9,11.68.81,17.19,2.16,5.75,1.4,11.82.83,17.06,2.46,5.52,1.71,11.31.16,16.01,2.14,7.31,3.09,14.57.98,21.77,2.14.93,1.81,1.89,3.68,2.97,5.78,1.02,9.45,2.09,19.25,3.15,29.01Zm-47.53-1.6c4.82.74,9.02,1.38,14.47,2.21.83-.42,3.01-1.53,4.61-2.35,2.65-5.45,5.08-10.44,7.49-15.4-3.97-8.4-12.71-7.86-19.19-10.17-2.66.7-5.01,1.31-7.39,1.93-3.81,7.79-4.51,15.66,0,23.77Zm-47.27,7.16c6.68,1.69,11.52-2.75,16.81-5.19,9.22-4.25,9.09-4.53,13.29-10.43-4.63,0-9.8,1.45-13.39-.32-6.55-3.23-12.86-.99-19.55-2.16v15.26c.77.77,1.83,1.83,2.84,2.84Z"/>
  <path d="m728.54,300.3c7.16-1.14,13.48-2.14,19.52-3.1,4.85-6.37,6.33-15.02,14.09-17.94,7.04-2.65,14.53-4.87,22.51,1.17,4.52,8.28,7.98,18.27,7.06,29.36-1.07,1.07-2.14,2.13-3.36,3.35-4.59-.35-9.03.57-13.62,2.07-19.6,6.44-39.52,11.95-58.94,18.88-4.22,1.51-7.77.59-11.23,1.76-5.73-14.19-8.01-28.74-14.17-42.34-4.96-10.94-7.62-23.17-11.77-34.69-2.48-6.9-4.23-14.08-6.93-20.88-2.57-6.47-6.01-12.59-8.94-18.92-2.34-5.06-2.82-10.79-6.28-15.55-1.25-1.72-.46-4.93-.6-7.36,11.91-3.59,23.33-7.03,34.79-10.48,5.91,19.69,10.46,39.21,17.69,57.7,7.24,18.51,14.1,37.14,20.17,56.96Zm-7.08,3.36h-12.9c-.54-1.65-.97-2.93-1.44-4.37-1.32,1.32-2.37,2.38-4.05,4.05.97,2.89,2.07,6.15,3.12,9.29,3.23,1.17,6.16,2.24,9.2,3.35,2.43-2.39,4.5-4.43,6.06-5.97v-6.34Zm-26.52-63.41c.75-2.59,1.5-5.14,2.19-7.53-5.67-3-9.48.46-13.81,1.95v5.58h11.61Z"/>
  <path d="m531.18,487.73c1.82,12.32-9.32,18.91-11.93,30.25-9.76-5.33-18.67-10.89-28.16-15.18-10.53-4.77-19.3-12.46-30.87-15.79-9.2-2.65-17.19-9.35-25.89-13.91-5.86-3.07-12.03-5.57-18.07-8.29-9.2-4.14-18.41-8.25-28.28-12.67,3.84-10.9,9.73-20.46,15.16-31.43,5.69,3.5,10.53,6.98,15.79,9.63,27.45,13.87,55.06,27.43,82.51,41.31,10.02,5.07,19.77,10.68,29.74,16.1Zm-103.07-41.41c-1.21,1.43-2.14,3.23-3.62,4.12-2.65,1.59-5.63,2.63-8.63,3.97,1.12,1.18,2.11,2.21,3.25,3.41h9.51c4.35-5.62,4.38-5.64-.51-11.5Z"/>
  <path d="m1342.96,466.27c7.87,9.51,7.8,21.22,13.45,31.82-45.57,14.43-89.77,31.29-132.87,53.12-7.7-7.86-9.22-19.21-14.88-29.22,1.98-1.19,4.14-2.83,6.55-3.87,15.99-6.91,32.03-13.74,48.07-20.49,16.66-7.02,33.25-14.59,50.86-19.19,4.44-1.16,7.96-4.08,12.76-4.92,5.3-.92,10.14-4.44,16.05-7.24Zm-99.63,60.33c3.31-1.65,5.76-2.87,8.09-4.03,0-2.43.03-4.67-.03-6.9,0-.27-.49-.53-.76-.8-3.4-.18-5.82-4.53-9.97-2-3.2,1.95-5.6,4.32-6.92,8.23,2.96,1.69,5.99,3.43,9.6,5.5Z"/>
  <path d="m1367.27,650.48h12.68c3.03,2.51,6.95,4.8,9.49,8.14,2.21,2.92,2.67,7.12,4.26,10.58,2.17,4.72-3.51,7.82-1.85,11.88-3.56,3.56-6.75,6.75-9.9,9.9-11.65.97-23.13,1.61-28.46-13.42-.67-10.26-1.36-21.84,13.78-27.08Zm-9.35,11.79v16.55c2.61,2.5,5.3,5.09,7.88,7.56h13.95c2.44-2.44,4.98-4.28,6.57-6.74,2.08-3.23,4.08-6.74,3.3-10.97-1.6-8.64-13.31-16.42-21.44-13.48-3.89,1.41-7.07,4.8-10.26,7.08Z"/>
  <path class="cls-1" d="m731.98,602.64c1.09,5.4,4.06,9.74,3.32,15.1-.71,5.08,2.14,9.7,2.56,14.86.8,9.75,3.93,19.28,7.06,28.64,1.45,4.33,4.39,8.28,3.83,13.09-.54,4.6-1.11,9.28-2.5,13.67-3.12,9.86-4.71,20.02-6.98,30.01-2.9,12.72-1.86,25.22-1.34,37.63.4,9.58,3.68,19.27,7.47,28.43,3.06,7.41,5.75,14.97,8.87,22.36,2.76,6.52,3.41,13.58,5.6,20.29,4.39,13.51,12.03,24.83,20.85,35.49,4.55,5.5,10.05,10.21,15.11,15.28.93,4.89,2.23,9.75,2.71,14.69.47,4.86-1.03,10.14.32,14.64,3.6,12.05,6.42,24.61,15.31,34.4,1.1,1.21,1.39,3.16,2.68,6.29.64,4.8-1.75,9.88-5.3,15.41-5.06,7.86-7.92,17.05-10.62,26.09-.9,3.04-1.85,6.12-2.2,9.25-.38,3.35.2,6.81-.18,10.17-.31,2.76-2.11,5.45-2.01,8.12.16,4.24,1.56,8.41,2.05,12.66.49,4.28.06,8.41,2.01,12.78,1.8,4.04,2.61,8.58,4.62,12.8,1.87,3.92,4.61,7.27,6.33,10.96,2.02,4.36,5.57,6.77,8.37,10.08,2.43,2.87,5.29,5.38,8.05,8.14-11.35,4.27-22.26,9.56-35.1,12.66-4.18-3.34-8.99-7.17-14.4-11.49-4.52,1.46-10.64,2.09-14.97,5.2-4.22,3.05-8.7-.08-12.57,2.77-3.54,2.6-7.55-.7-10.99-.69-12.99.05-23.78-6.93-36.71-9.65-5.22,4.44-12.81,5.68-18.62,10.81-3.2,2.82-8.11,4.12-12.48,5.08-4.81,1.06-8.92-1.13-12.87-4.32-8.82-7.14-13.74-16.66-16.69-27.08-2.53-8.92-5.89-17.84-4.79-27.51.27-2.39,1.16-5.32-1.62-7.21-.26-.18-.51-.58-.53-.89-.06-1.13-.5-2.62.05-3.34,5.27-6.94-1.75-17.32,6.99-23.15-.32-5.74.96-12.09-1.34-16.61-2.67-5.24,1.94-11.5-3.45-15.59.67-4.27-.98-8.6,1.52-12.98,1.66-2.91,1.02-7.04,1.86-10.52,2.96-12.33,8.21-23.7,14.18-34.88,2.93-5.49,6.87-11.86,4.82-18.15-2.74-8.44-1.99-16.8-1.83-25.18.11-5.79-1.89-11.75,1.35-17.5,2.89-5.13-.3-11.14,2.5-17.09,2.22-4.73,2.46-10.85,5-16.01,2.47-5,4.22-10.4,7.1-15.14,3.28-5.41,6.76-10.36,2-16.56.87-5.72-1.06-11.41,1.81-17.38,2.19-4.54.63-10.47,2.48-15.91,3.63-10.63,6.68-21.22,12.84-30.96,6.32-9.99,10.95-21.06,16.14-31.75.75-1.54.63-3.56.66-5.37.08-5.28-.24-10.58.08-15.84.96-16.08,3.65-31.66,10.2-46.69,2.63-6.03,5.73-11.95,7.95-18.21.54-1.52,2.15-2.65,3.47-4.19Z"/>
  <path class="cls-1" d="m936.33,1088.44c24.44-19.77,38.39-45.42,38.56-76.57.17-31.24-16.06-54.94-40.41-73.45,4.45-7.22,9.73-14.06,13.11-21.74,3.81-8.66,7.85-17.5,7.41-27.55-.15-3.42,1.68-6.88,2.04-10.38.38-3.73.09-7.54.09-11.03,4.72-5.83,9.12-11.66,13.93-17.12,6.98-7.93,10.42-17.52,13.18-27.37,4.51-16.06,1.69-32.55,2.19-48.84.12-3.81-1.9-7.66-1.97-11.51-.06-3.07,1.52-6.13,2.05-9.25.53-3.15-1.19-6.83,2.31-9.24-1.75-11.55,4.25-22.84,1.98-34.09-2-9.93-2.01-20.05-4.31-29.85-.79-3.37-2.58-6.5-3.5-9.85-1.35-4.93-2.13-9.65,1.15-14.62,3.03-4.6,3.2-10.56,6.4-15.46,3.03-4.64,1.61-11.14,4.94-16.03.36-.52.08-1.45.15-2.19.96-11.36,1.93-22.71,2.76-32.36-1.6-3.13-2.38-4.63-3.8-7.41,2.56.32,4.55.03,4.95.7,2.89,4.8,5.25,9.91,8.16,14.7,7.5,12.36,12.22,25.91,16.6,39.52,2.6,8.06,4.1,16.57,5.13,25,.7,5.74,3.18,11.04,2.77,17.17-.27,4.02,3.51,7.53,6.59,10.73,8.5,8.81,16.28,18.34,20.73,29.85,3.79,9.81,7.19,19.67,9.05,30.32,2.08,11.9,1.94,23.63,1.53,35.35-.37,10.48,2.19,20.03,5.63,29.48,4.16,11.4,6.24,23.14,8.55,35,3.4,17.5.86,34.91,1.92,52.32.34,5.49-2.9,10.3-2.53,16.05.33,5.15.64,10.35,2.71,14.81,3.98,8.56,5.51,17.41,7.1,26.61,1.07,6.18,1.42,12.23,1.79,18.38.38,6.24-3.45,11.83-2.41,18.32.91,5.75-2.73,10.95-3.65,16.48-1.69,10.17-1.65,20.48,1.95,30.31,1.97,5.37,3.35,10.76,4.16,16.39.5,3.5,1.48,6.92,2.21,10.39,1.12,5.31-1,10.38-3.41,14.37-2.89,4.78-7.51,8.59-13.91,9.68-5.18.88-9.45,2.56-15.39.57-8.08-2.71-17.33-3.24-25.93-2.6-5.37.41-11.14,1.43-16.61,3.23-4.41,1.45-9.5.86-12.94,1.09-6.51-3.35-11.82-6.08-17.97-9.25h-14.78c-3.48,5.14-10.49-.61-13.97,4.53-8.74.02-17.57.77-26.26-3.58Z"/>
  <path class="cls-1" d="m948.61,578.12h-12.27c-21.43,10.5-32.33,29.83-45.23,48.5-1.61-3.5-3.94-6.21-3.93-8.91.06-11.57-2.16-23.32,4.13-34.39,5.53-9.73,8.76-20.69,15.94-29.61,5.22-6.49,9.97-13.35,15.93-21.39-.33-1.02-1.18-3.6-2.01-6.13h-8.76c-8.77,13.85-19.95,26.03-28.83,40-5.1,8.02-6.59,16.95-10.06,25.32-1.79,4.32,1.37,21.97,1.9,28.43,1.4,16.9,11.79,29.26,20.24,42.6,9.83,15.51,21.57,29.64,32.54,44.32,11.59,15.5,21.53,32.26,24.39,52.07,4.85,4.03,1.23,10.21,4.04,15.37,2.38,4.37.39,11.05.54,16.71.06,2.47.25,4.77,1.32,7.36,1.44,3.49,2.1,8.91.31,11.76-2.83,4.52-.58,8.78-2.12,13.48-1.63,3.15-3.56,6.88-5.78,11.17-4.29,2.07-8.9,4.65-13.78,6.54-4.58,1.78-9.44,2.84-14.08,4.19-9.25-5.44-9.39-15-11.09-23.51-2.04-10.21-1.87-21.02-5.03-30.8-2.88-8.91-6.51-18.38-15.32-24.01-1.24-.79-2.16-2.1-3.55-3.48-1.52,0-3.39.22-5.2-.04-7.59-1.11-14.22,1.59-20.42,5.37-6.98,4.25-9.58,11.83-11.55,18.92-6.57,23.67-14.06,38.31-28.49,52.74-1.13,0-2.56-.45-3.35.07-8.62,5.77-15.27-.15-21.14-4.55-8.77-6.56-12.76-15.62-13.26-27.32-.62-14.25,3.23-27.19,7.85-39.94,6.71-18.48,16.07-35.66,26.74-52.35,13.83-21.62,29.49-42.25,39.51-66.19,2.75-6.57,6.01-12.83,5.68-20.35-.14-3.04,2.56-6.46,1.89-9.18-1.86-7.51-2.12-15.42-5.5-22.58-4.77-10.1-10.5-19.45-18.38-27.5-6.45-6.59-13.51-12.53-18.62-20.51-4.63-7.23-7.45-14.58-7.08-23.13q-5.41-4.29-11.11-.35v15.86c.54.85,1.54,1.96,2,3.26,2.73,7.66,7.67,13.61,13.21,19.5,8.5,9.04,16.43,18.67,24,28.52,3.36,4.37,5.24,9.88,8.11,15.51v25.5c-3.24,6.66-5.7,12.9-9.13,18.55-10.09,16.62-20.59,32.98-30.87,49.48-6.35,10.19-12.53,20.47-18.88,30.66-7.47,11.99-12.72,24.88-16.37,38.5-1.76,6.54-3.69,12.99-4.06,19.84-.21,3.89,1.67,8.15-2.05,11.67-.72.68-.04,3.68.85,5.07,2.05,3.18,1.38,6.15.04,11.43-2.22-7.96-4.62-13.88-5.33-19.99-.53-4.49-2.16-8.11-4-12-3.78-7.97-6.44-16.2-7.94-25.1-1.16-6.92-1.07-13.81-2.13-20.59-.72-4.59-3.4-9.35-1.78-13.73,1.86-5.02,1.59-9.96,2.14-14.98.58-5.26,1.86-10.48,3.26-15.6,1.28-4.7,3.57-9.16,4.6-13.9.93-4.26,1.82-9.01.86-13.11-2.07-8.82-5.34-17.35-8.27-26.46,1.25-2.16,2.78-4.82,4.28-7.42,3.53-.14,6.27-.25,9.65,1.35,11.82,5.59,24.43,8.45,37.68,7.34,1.4-.12,2.83-.41,4.16-.87,3.3-1.14,6.46-2.93,9.83-3.49,3.67-.61,7.52-.14,10.64-.14,4.01,1.86,7.49,3.47,10.23,4.74,5.21-.96,6.07-3.91,5.77-7.86-.57-.65-1.12-1.85-2.02-2.23-6.02-2.54-9.66-7.03-11.59-13.17-.62-1.98-1.75-3.8-2.65-5.69-6.3-13.2-13.64-25.65-26.43-34.67h-14.81c-18.56,9.86-23.38,30.54-36.3,45.49-1.3-1.45-3.27-2.61-3.4-3.95-1.01-9.85-2.11-19.73-2.24-29.61-.09-6.84,1.67-13.69,2.01-20.57.35-6.88,3.18-13.26,4.08-19.71,1.39-9.87,5.11-18.59,9.9-26.54,5.37-8.92,11.43-17.6,19.26-24.99,9.54-9.01,18.91-17.79,31.59-22.31,11-3.93,21.45-9.63,33.72-8.86,2.01.13,4.08-1,6.14-1.46,1.39-.31,2.93-.94,4.22-.64,11.77,2.69,23.98,3.18,35.48,7.22,13.23,4.65,26.06,10.14,37.99,17.59,1.48.92,3.26,1.41,4.62,2.46,4.04,3.09,7.03,7.18,11.71,9.89,4.11,2.38,6.96,7.35,9.72,11.59,6.13,9.4,12.04,18.99,15.78,29.66,1.85,5.29,3.04,10.81,4.6,16.21,2.28,7.91,4.59,15.78,4.62,24.16,0,2.79-.05,5.51,1.12,8.54,1.43,3.73.34,8.48.09,12.78-.1,1.72-1.35,3.44-1.21,5.09.53,6.3-1.34,12.03-3.4,17.97-1.19-2.04-2.05-4.03-3.38-5.64-1.42-1.72-3.28-3.07-3.94-3.67-3.48-17.71-7.12-33.78-22.79-45.11Zm-116.28,140.82c4.02,9.83,6.73,15.06,9.83,16.89,13.49,7.97,26.58,17.14,43.72,14.38,4.39-.71,9-.11,13.48-.11,3.23-2.28,6.49-4.45,9.61-6.82,3.17-2.41,6.82-4.54,9.18-7.62,10.06-13.14,11.58-24.08-6.15-34.04-3.04-1.71-6.33-2.98-9.27-4.83-10.52-6.58-22.21-5.47-33.79-5.65-6.94-.11-12.01,3.77-17.47,6.92-8.69,5.01-15.22,12.02-19.14,20.88Z"/>
  <path class="cls-1" d="m957.12,987.86c4.34,1.42,2.79,6.06,4.06,8.9,1.9,4.22-.27,9.99,2.73,14.58-3.26,7.55-1.64,16.18-5.23,23.67-2.1,4.37-4.5,8.66-5.93,13.25-.87,2.79-2.03,4.47-4.69,5.27.77-4.23-1.55-7.57-3.15-11.04h-9.59c-3.48,3.48-6.68,6.68-9.53,9.53v9.73c3.56,4.29,7.17,4.12,11.17,1.79,2.1-1.22,4.37-2.15,6.57-3.22-.27,1.4-.04,3.28-.87,4.12-6.65,6.74-12.69,14.23-22.02,17.73-4.02,1.51-7.68,3.79-12.32,3.18-1.46-.19-3.12,1.1-5.08,1.86v-7.27c-3.07-2.9-5.8-5.47-8.78-8.28h-11.47c-1.64,2.71-3.46,5.72-5.27,8.72.99,2,1.89,3.83,2.82,5.72-1.02.63-1.85,1.48-2.18,1.31-3.66-1.82-7.49-2.83-11.53-2.15-4.28.72-8.09-1.11-11.06-3.25-3.52-2.54-7.43-4.11-11-6.32-11.97-7.42-21.45-17.37-27.88-30.02-.46-.9-.22-2.21-.13-3.32.05-.67.42-1.32.72-2.19,1.14.69,2.23,1.36,3.38,2.06,2.21-.98,4.43-1.97,5.77-2.56,5.69-8.89,4.12-16.76-1.68-24.72-4.74.55-9.77-1.17-15.76,2.76,3.6-13.62,2.42-27.16,10.42-39.33,3.96.74,7.72,1.45,12.16,2.28,5.23-5.75,13.58-10.5,12.05-21.35-2.73-1.24-5.59-2.53-8.55-3.87.2-.46.28-1.14.66-1.48,4.64-4.21,10.79-4.87,16.37-6.87,1.31-.47,2.59-1.02,4.23-1.66,1.06,3,2.27,6.44,3.49,9.88,5.81,4.33,12.53,3.02,18.99,3.03,1.9-1.88,3.77-3.73,6.12-6.05-.82-3.48-1.72-7.26-2.55-10.75,4.39.34,8.87.48,13.29,1.09,4.54.63,9.01,1.72,14.08,2.71-.97,3.88-2.41,7.24-2.49,10.63-.07,3.06,1.33,6.16,2.09,9.24-4.51-3.51-9.76-2.02-14.77-2.22-9.7,6.14-10.07,6.83-10.14,19.19,2.64,2.65,5.29,5.3,7.94,7.94,4.5,0,8.99,0,14.32,0,1.68-2.59,3.61-5.56,5.53-8.54.57-.88,1.69-1.89,1.55-2.67-.48-2.73-1.49-5.37-2.12-8.08-.25-1.07-.04-2.24-.04-3.36,4.11.93,8.21,1.86,12.01,2.71,3.35-3.35,6.24-6.24,9.12-9.12,12.66,4.78,20.7,13.72,24.16,26.55-3.32-.99-6.75-1.75-9.63-2.4-2.5,2.4-4.39,4.22-6.29,6.05-3.38,5.94-2.62,11.54,1.01,16.68,2.84,1.03,5.47,1.98,7.17,2.59,2.61-2.56,4.71-4.62,7.73-7.58v-15.1Zm-72.84,67.14c.95-2.56,2.2-4.79,2.54-7.15.43-2.95.1-6.01.1-9.02-8.8-10.71-18.67-10.49-27.15.04v10.93c2.78,2.91,5.36,5.63,7.82,8.2h10.59c2.31-1.14,3.87-1.91,6.1-3.01Zm-39.12-73.71c-2.1,1.94-4.01,3.7-5.78,5.34v11.42c2.65,2.65,5.28,5.29,7.85,7.87,5.13.29,10.16.34,14.07-2.71,4.63-8.06,4.03-15.22-2.39-21.91h-13.76Zm73.24,58.6c2.46-3.8,5.13-7.93,8.14-12.58-3.1-4.58-5.86-8.64-8.29-12.23h-12.1c-1.92,1.91-3.79,3.76-4.48,4.45-1.48,4.07-2.43,6.66-3.62,9.91,2.43,3.4,5.1,7.14,7.47,10.45h12.88Z"/>
  <path class="cls-1" d="m866.55,784.66c0,15.32.67,28.15-.21,40.87-.72,10.5,3.44,20.38,2.47,30.75,3.39,4.97,1.7,10.66,2.37,16.02.48,3.79,1.83,7.5,3.13,11.12.43,1.2,1.92,2.02,3.94,4.01,1.87-3.53,3.43-6.46,5.09-9.59-4.09-3.17.82-10.17-2.81-16.01-3.02-4.86.52-11.8-2.19-18.25-2.29-5.45-.47-12.62-.47-19.03v-38.82c2.43-1.72,5.07-3.6,8.11-5.76,8.04,4.6,7.94,14.23,9.91,22.66,2.21,9.42,2.09,19.18,4.31,28.72,1.58,6.8.71,14.28.21,21.41-.7,10.01,3.07,19.01,5.48,28.33.78,3.01,2.16,5.87,3.5,9.44-.5,1.2-1.3,3.13-2.1,5.06-.67,1.61-1.65,3.16-1.95,4.84-1.7,9.4-8.82,13.83-16.65,16.26-6.77,2.1-13.89,4.45-21.3,3.23-5.56-.92-10.88-2.72-16.28-4.34-8.56-2.58-12.6-11.19-16.32-19.4-3.7-8.16-1.6-16.69-2.24-24.21,1.76-3.14,3.13-5.59,4.76-8.49-2.22-3.31-4.58-6.83-7.24-10.79,2.93-3.45,5.83-7.17,9.05-10.58,5.39-5.7,10.39-15.31,13.99-23.63,3.93-9.09,6.8-18.37,9-27.97.36-1.58,2.09-2.84,4.43-5.85Z"/>
  <path class="cls-1" d="m895.01,636.37c2.76-2.01,5.14-3.76,8.7-6.35,2.69.59,7.61.76,11.64,2.75,5.67,2.8,11.31,3.91,17.54,4.25,12.04.65,15.52.36,26.81-4.64.32-.14.75-.02,2-.02,3.2,2.05,7.04,4.52,10.97,7.04,1.5-.77,2.88-1.47,5.82-2.97-2.53,5.53-3.77,10.02-6.37,13.49-3.37,4.49-3.96,9.2-3.68,14.37.19,3.58,1.07,6.99,1.86,10.47,2.21,9.74,3.47,19.81,4.64,29.75,1.27,10.79,1.98,22.18-.14,32.69-2.62,13.03-.95,25.87-1.81,38.75-.2,3-.32,6.07.06,9.04.35,2.76,1.98,5.4,2.06,8.13.15,5.16.87,10.87-1.01,15.37-2,4.8,1.08,10.44-3.32,14.53-.77.71-.38,2.68-1.98,4.05,0-3.51-1.13-7.61.33-10.35,1.37-2.59,1.49-4.83,1.53-7.31.11-7.16.33-14.35-.05-21.49-.35-6.5-.7-13.15-2.34-19.39-2.83-10.81-5.89-21.68-10.21-31.95-10.62-25.28-13.43-28.44-29.31-50.13-11.72-16.01-22.25-32.9-33.75-50.05Z"/>
  <path class="cls-1" d="m911.63,859.11c4-.96,7.44-2.62,10.78-2.43,10.38.6,19.75-2.31,28.88-6.71.83-.4,2.01-.05,3.5-.05-8.42,11.89-14.08,24.19-13.48,38.55.25,5.93-1.52,11.17-4.13,16.36-4.21,8.39-8.13,16.92-12.31,25.66-1.85.92-4.03,2-5.03,2.5-7.51-1.84-13.99-3.44-21.34-5.24.99-1.43,2.82-2.91,4.39-4.54,1.57-1.62,3.25-3.13,4.77-4.8,6.97-7.66,11.36-16.13,11.13-27.04-.21-9.55-1.03-18.57-6.61-26.68-.72-1.05-.33-2.87-.56-5.56Z"/>
  <path class="cls-1" d="m785.03,841.9c5.84,5.5,9.75,10.97,16.76,12.41,6.19,1.28,12.3,2.97,18.39,4.47,1.16,2.27,2.26,4.44,3.36,6.59-4.29,7.28-2.02,15.22-2.16,22.82-.32,17.83,10.55,32.25,28.13,38.59,1.93.7,3.58,2.18,5.54,3.42-4.44,1.48-8.94,2.97-13.44,4.47-8.59,2.86-16.29.44-20.23-7.61-4.63-9.45-8.02-19.26-9.63-30-1.26-8.43-1.45-16.72-1.94-25.27-2.29-3.58-4.17-7.14-8.6-9.86-6.24-3.83-10.93-10.22-16.12-15.67-.56-.59-.08-2.19-.08-4.35Z"/>
  <path class="cls-1" d="m805.41,600.66h-12.5c-1.75,1.82-3.57,3.71-5.61,5.84,0,1.53.7,3.8-.12,5.17-4.24,7.12-.68,12.04,4.13,16.79,1.33,1.31,2.57,2.71,3.69,3.9h6.48c6.33-4.14,9.23-10.21,8.49-18.16-.21-2.23-.03-4.5-.03-6.75,4.58,3.01,3.68,10.01,9.05,11.88v7.96c-3.17,2.3-6.66,4.82-9.11,6.59-10.69,2.77-19.91-.83-29.28-1.86-4.13-.46-7.87-4.48-11.87-6.94,9.17-11.51,15.94-24.18,29.1-31.2,2.47,2.21,5.03,4.48,7.58,6.76Z"/>
  <path class="cls-1" d="m945.99,622.49c1.57-2.93,3.05-5.69,4.44-8.27-1.01-4.03-1.95-7.78-3.36-13.43-.83-.54-3.32-2.14-7.73-4.98-.06-.03-2.58-1.16-6.44-2.9,4.68-1.77,7.87-2.98,10.9-4.14,10.57,8.15,12.51,19.26,13.71,31.14-4.13.69-7,5.54-11.51,2.57Z"/>
  <path class="cls-1" d="m926.43,600.54c-1.41,7.9-2.97,14.8,2.86,22.76-7.47-1.01-12.59-3.21-17.45-5.69,0-.91-.16-1.44.02-1.64,4.83-5.16,9.7-10.29,14.57-15.43Z"/>
  <path class="cls-1" d="m948.06,1053.53c-.34,1.72,1.12,4.34-2.26,4.53.34-1.72-1.12-4.34,2.26-4.53Z"/>
  <path class="cls-1" d="m809.73,607.69c-.62-.53-1.23-1.05-1.85-1.58l.71-.71c.53.62,1.05,1.23,1.58,1.85l-.44.44Z"/>
  <path class="cls-1" d="m805.61,600.42c.62.53,1.23,1.05,1.85,1.58l-.71.71-1.58-1.85.44-.44Z"/>
  <path class="cls-1" d="m909.57,965.22c.75.75,1.51,1.51,2.26,2.26-.75-.75-1.51-1.51-2.26-2.26Z"/>
  <path class="cls-1" d="m945.8,1058.06c-.75.75-1.51,1.51-2.26,2.26.75-.75,1.51-1.51,2.26-2.26Z"/>
  <path class="cls-1" d="m784.82,843.18c-.62-.53-1.23-1.05-1.85-1.58l.71-.71c.53.62,1.05,1.23,1.58,1.85l-.44.44Z"/>
  <path class="cls-1" d="m1053.56,217.98c1.59,1.82,2.53,2.91,4.01,4.6-1.9,2.03-3.62,3.85-5.57,5.94,1.99,13.26-3.01,25.02-8.68,36.72h-10.79c-5.76-8.01-17.88-11.18-19.09-24.12,11.37-4.12,15.75-15.61,24-23.13h16.13Z"/>
  <path class="cls-1" d="m946.33,240.78c-1.92-6,4.52-10.42,1.09-15.44-3.32-4.87-.59-10.19-1.83-15.16,2.03-1.92,3.94-3.73,5.85-5.54,3.12,3.72,7.5,1.41,11.88,2.15,1.12,1.73,2.47,3.81,4.19,6.47,1.79.09,4.32.23,7.72.41,0,1.81.75,4.23-.13,5.24-4.78,5.48-4.77,11.93-4.35,18.34-7.54,5.49-15.92,2.63-24.44,3.54Z"/>
  <path class="cls-1" d="m1244.59,405.36c-9.04,2.81-15.68-3.94-24.4-4.04-1.11-4.51-2.29-9.29-3.17-12.89,7.13-6.61,13.3-12.33,19.95-18.49,11.32-2.8,17.1,5.82,24.61,13.42-3.72,3.73-7.48,6.83-10.38,10.59-2.76,3.6-4.62,7.89-6.62,11.41Z"/>
  <path class="cls-1" d="m828.14,240.15c-4.31.6-7.97,1.46-10.77-2.32,1.55-5.83,3.12-11.75,4.91-18.51,8.08,5.93,5.12,13.73,5.86,20.83Z"/>
  <path class="cls-1" d="m607.33,294.14c3.66,6.13,6.56,11,10.33,17.33.58,4.07-1.57,8.83-5.74,12.83-1.09,1.04-2.36,1.98-3.16,3.22-2.75,4.27-7.67,7.88-2.84,14.16,1.45,1.89.22,5.84.22,8.77-1.14,1.14-2.2,2.2-3.33,3.33h-9.69c-.27-1.86-.58-3.89-.88-5.94-3.74-2.78-7.49-5.57-12.72-9.46,5.28-.25,8.85-.43,12.66-.61,1.04-1.87,2.02-3.62,3.43-6.16h-19.42c-4.68-3.62-5.53-7.45-2.67-11.94,4.87-7.66,7.93-17,19.29-18.12,2.84-.28,5.37-3.22,8.15-4.74,1.82-.99,3.84-1.63,6.37-2.68Z"/>
  <path class="cls-1" d="m556.21,303.26c-2.91-4.19-7-5.43-6.64-9.82q5.95.47,6.64,9.82Z"/>
  <path class="cls-1" d="m1169.68,279.79c1,2.99,1.84,5.29,2.54,7.63,3.32,11.11.99,17.33-8.78,23.38-1.48.91-3.11,1.57-4.61,2.32-6.98-2.32-11.61-6.81-13.79-13.81-2.09-6.72-2.14-6.7,1.3-18.27,7.21-5.48,14.91-5.72,23.33-1.24Z"/>
  <path class="cls-1" d="m1128.47,348.43c-6.76-4.1-12.16-7.37-18.54-11.23,10.08-8.81,19.3-16.87,30.3-26.49-.61,8.64-3.44,13.78-6.1,19.24-2.55,5.23-3.53,11.23-5.66,18.48Z"/>
  <path class="cls-1" d="m532.83,451.11h-10.4c-.97-2.36-2.04-4.93-3.63-8.79-2.17-.73-5.8-1.96-9.75-3.3,0-2.27,0-4.8,0-7.33,10.78-4.64,15.08-3.7,22.51,4.93,5.19,6.02,5.42,8.06,1.27,14.48Z"/>
  <path class="cls-1" d="m429.33,539.48c1.04,10.81-5.25,18.39-7.14,27.62-10.49-2.58-20.54-4.57-30.23-7.64-5.48-1.73-9.9-5.75-11.67-11.87-1.97-7.77.98-13.99,7.78-19.61,13.87,1.13,27.46,5.53,41.26,11.5Z"/>
  <path class="cls-1" d="m418.9,523.56c-2.84-4.06-4.53-6.47-6.36-9.1,1.05-.52,3.48-1.73,6.03-3,1.61,2.78,2.77,4.77,2.99,5.16-.87,2.27-1.56,4.07-2.66,6.94Z"/>
  <path class="cls-1" d="m406.88,513.85h-2.26v-.75h2.26v.75Z"/>
  <path class="cls-1" d="m1333.63,613.64c-4.51-8.12-3.82-15.99,0-23.77,2.38-.62,4.73-1.23,7.39-1.93,6.47,2.31,15.22,1.77,19.19,10.17-2.41,4.95-4.84,9.95-7.49,15.4-1.61.82-3.78,1.92-4.61,2.35-5.44-.83-9.65-1.48-14.47-2.21Z"/>
  <path class="cls-1" d="m1286.36,620.81c-1.01-1.01-2.07-2.07-2.84-2.84v-15.26c6.7,1.17,13-1.07,19.55,2.16,3.58,1.77,8.75.32,13.39.32-4.2,5.91-4.07,6.19-13.29,10.43-5.29,2.44-10.13,6.88-16.81,5.19Z"/>
  <path class="cls-1" d="m721.46,303.65v6.34c-1.57,1.54-3.63,3.58-6.06,5.97-3.05-1.11-5.98-2.17-9.2-3.35-1.05-3.13-2.15-6.39-3.12-9.29,1.67-1.67,2.73-2.73,4.05-4.05.47,1.44.9,2.72,1.44,4.37h12.9Z"/>
  <path class="cls-1" d="m694.93,240.24h-11.61v-5.58c4.33-1.49,8.13-4.95,13.81-1.95-.7,2.39-1.44,4.94-2.19,7.53Z"/>
  <path class="cls-1" d="m428.11,446.32c4.89,5.86,4.86,5.88.51,11.5h-9.51c-1.14-1.2-2.13-2.23-3.25-3.41,3.01-1.34,5.99-2.38,8.63-3.97,1.48-.89,2.41-2.69,3.62-4.12Z"/>
  <path class="cls-1" d="m1243.33,526.61c-3.62-2.07-6.64-3.8-9.6-5.5,1.32-3.91,3.72-6.28,6.92-8.23,4.15-2.53,6.57,1.82,9.97,2,.26.26.75.52.76.8.06,2.24.03,4.47.03,6.9-2.33,1.16-4.78,2.38-8.09,4.03Z"/>
  <path class="cls-1" d="m1357.92,662.27c3.2-2.28,6.37-5.67,10.26-7.08,8.14-2.95,19.85,4.84,21.44,13.48.78,4.23-1.22,7.74-3.3,10.97-1.59,2.46-4.13,4.3-6.57,6.74h-13.95c-2.58-2.47-5.27-5.06-7.88-7.56v-16.55Zm9.76,5.95c1.21,1.42,2.35,2.76,3.49,4.1-1.65,1.65-3.73,3.34-5.27,5.44-.77,1.05-.55,2.83-.98,5.55,4.36-2.21,7.36-3.74,10.05-5.1,1.39.77,2.6,1.45,3.79,2.11,1.71-1.48,3.07-2.66,4.9-4.24-1.21-4.92-2.38-9.68-3.66-14.86-6.26,1.28-11.81,2.42-17.27,3.54v5.99c1.81-.92,3.22-1.64,4.95-2.52Z"/>
  <path d="m832.33,718.94c3.92-8.87,10.45-15.88,19.14-20.88,5.45-3.14,10.53-7.02,17.47-6.92,11.59.18,23.27-.94,33.79,5.65,2.94,1.84,6.23,3.12,9.27,4.83,17.73,9.97,16.21,20.9,6.15,34.04-2.36,3.08-6.01,5.21-9.18,7.62-3.12,2.37-6.38,4.54-9.61,6.82-4.48,0-9.08-.6-13.48.11-17.14,2.77-30.23-6.4-43.72-14.38-3.1-1.83-5.81-7.06-9.83-16.89Z"/>
  <path d="m909.57,965.22c.75.75,1.51,1.51,2.26,2.26,0,1.12-.21,2.3.04,3.36.63,2.71,1.63,5.35,2.12,8.08.14.77-.98,1.78-1.55,2.67-1.92,2.98-3.85,5.95-5.53,8.54-5.33,0-9.83,0-14.32,0-2.65-2.64-5.3-5.29-7.94-7.94.07-12.36.44-13.05,10.14-19.19,5,.19,10.26-1.3,14.77,2.22Z"/>
  <path d="m884.28,1055.01c-2.23,1.1-3.79,1.87-6.1,3.01h-10.59c-2.45-2.57-5.04-5.29-7.82-8.2v-10.93c8.48-10.53,18.35-10.75,27.15-.04,0,3.01.32,6.07-.1,9.02-.34,2.36-1.59,4.59-2.54,7.15Z"/>
  <path d="m845.16,981.29h13.76c6.42,6.69,7.02,13.85,2.39,21.91-3.91,3.05-8.94,3-14.07,2.71-2.57-2.57-5.21-5.21-7.85-7.87v-11.42c1.77-1.64,3.68-3.4,5.78-5.34Z"/>
  <path d="m918.4,1039.9h-12.88c-2.37-3.31-5.04-7.06-7.47-10.45,1.18-3.24,2.13-5.84,3.62-9.91.69-.69,2.55-2.54,4.48-4.45h12.1c2.43,3.59,5.19,7.65,8.29,12.23-3.01,4.65-5.68,8.78-8.14,12.58Z"/>
  <path d="m945.8,1058.06c-.75.75-1.51,1.51-2.26,2.26-2.2,1.06-4.47,1.99-6.57,3.22-4,2.33-7.61,2.5-11.17-1.79v-9.73c2.85-2.85,6.05-6.05,9.53-9.53h9.59c1.6,3.47,3.92,6.81,3.15,11.04-3.39.19-1.92,2.81-2.26,4.53Z"/>
  <path d="m957.12,987.38v15.58c-3.03,2.97-5.12,5.02-7.73,7.58-1.69-.61-4.33-1.56-7.17-2.59-3.64-5.14-4.39-10.74-1.01-16.68,1.89-1.82,3.79-3.65,6.29-6.05,2.88.65,6.31,1.41,9.63,2.16Z"/>
  <path d="m1367.67,668.22c-1.73.88-3.14,1.6-4.95,2.52v-5.99c5.47-1.12,11.01-2.26,17.27-3.54,1.27,5.18,2.45,9.94,3.66,14.86-1.83,1.58-3.19,2.76-4.9,4.24-1.19-.66-2.4-1.34-3.79-2.11-2.68,1.36-5.69,2.89-10.05,5.1.43-2.71.2-4.5.98-5.55,1.54-2.09,3.62-3.79,5.27-5.44-1.14-1.34-2.29-2.68-3.49-4.1Zm14.22,1.27c-3.35-1.54-5.32-2.45-8.26-3.8.2,3.38.31,5.37.49,8.46,2.71-1.62,4.42-2.65,7.77-4.66Z"/>
  <path class="cls-1" d="m1381.89,669.48c-3.35,2.01-5.06,3.04-7.77,4.66-.18-3.09-.29-5.08-.49-8.46,2.94,1.35,4.91,2.26,8.26,3.8Z"/>
</svg>