<?xml version="1.0" encoding="UTF-8"?>
<svg id="Capa_1" data-name="Capa 1" xmlns="http://www.w3.org/2000/svg" viewBox="0 0 1707.85 233.14">
  <defs>
    <style>
      .cls-1 {
        fill: #fff;
      }

      .cls-2 {
        fill: #fafafa;
      }

      .cls-3 {
        fill: #222;
      }

      .cls-4 {
        fill: #020202;
      }

      .cls-5 {
        fill: #dedede;
      }

      .cls-6 {
        fill: #313131;
      }

      .cls-7 {
        fill: #282828;
      }

      .cls-8 {
        fill: #fdfdfd;
      }

      .cls-9 {
        fill: #ebebeb;
      }

      .cls-10 {
        fill: #161616;
      }

      .cls-11 {
        fill: #3c3c3c;
      }

      .cls-12 {
        fill: #fefefe;
      }
    </style>
  </defs>
  <path class="cls-1" d="m1469.18,221.29c1.3,1.29,2.6,2.58,3.91,3.87h46.51V7.22c-16.08,6.83-30.55-5.86-46.51-1.56v39.44c0,12.88-.99,25.86.28,38.62,1.28,12.87-4.92,24.44-4.32,37.08.61,12.85.14,25.76.14,38.64v61.84Zm-1242.35,0c-1.74-28.38,4.06-57.1-3.91-85.2,1.94-27.73-3.03-55.54,3.35-83.39,3.18-13.88.55-29.07.55-43.63h-50.79c0,27.27-.04,54.13.07,80.99,0,2.36.41,5.04,1.56,7.03,4.5,7.79,4.2,17.31,1.57,23.88-3.78,9.46-2.84,18.42-3.09,27.61-.4,14.78-.11,29.57-.11,44.36v36.08c12.81,0,23.85.34,34.85-.18,4.06-.19,8.03-2.4,12.03-3.69.1,4.54,3.95,5.01,6.01,3.31,3.17-2.6,3.42-6.15-2.1-7.18ZM597.97,4.78c-1.3,1.29-2.6,2.58-3.91,3.87v215.43c9.41,3.04,17.97.55,26.88,4.13,8.75,3.51,21.16,2.77,30.33-.54,12.93-4.66,25.43-.63,37.94-2.5,9.06,7.68,19.36,2.24,28.55,4,2.72-10.06,4.76-18.85,7.53-27.42,2.02-6.24,3.47-11.9-2.11-17.18-1.12-1.06-.43-4.12-1.57-5-5.8-4.48-11.93-8.56-20.2-14.35-6.87,10.52-25.4,2.07-29.51,19.42-.23.95-3.64.81-4.83,1.94-9.12,8.73-17.18,1.51-26.13-1.62,0-58.91,0-118.04-.03-177.16,0-.56-.3-1.17-.61-1.67-.33-.54-.83-.97-1.16-1.34-13.86,0-27.52,0-41.17,0Zm-171.9,3.87v156.48c0,4.51,1.45,9.66-.25,13.41-6.96,15.29-1.99,30.8-3.98,46.17h45.72c1.84-1.82,3.22-3.19,5.28-5.22v-42c5.71-7.12,10.54-13.14,15.19-18.93,10.65,5.6,8.93,15.5,12.2,22.98,7.16,16.33,8.89,36.14,29.86,42.95h35.37c2.07-2.05,3.45-3.41,4.03-3.99-1.45-5.02-2-9.89-4.15-13.92-14.05-26.42-23.43-54.81-35.48-82.07-8.12-18.38-10.69-37.1,1.37-56.31,11.67-18.57,20.65-38.8,30.79-58.25-14.1-6.56-29.28-5.39-40.33-5.1-13.42,3.6-18.13,10.57-21.65,19.68-4.07,10.53-10.4,20.19-15.26,30.45-2.31,4.88-4.31,9.04-12.11,6.93,1.9-18.66-3.22-37.47,4.73-57.13-16.53,0-31.97,0-47.41,0-1.3,1.29-2.6,2.58-3.91,3.87Zm437.56,50.26c3.65,7.75,8.61,4.77,12.58.85,3.96-3.92,6.98-8.83-.85-12.44-1.51-13.56-3.02-27.12-4.6-41.28-1.29-1.28-3.12-3.09-4.92-4.87-19.82-2.38-38.77,5.49-58.73,3.98-21.15-1.6-42.51-.36-63.2-.36-1.45,6.89-2.65,12.58-3.87,18.4,1.75,3.26,3.74,6.97,6.71,12.51v189.47h97.37q.63,8.04,7.81,5.71v-5.71h7.81v7.99c4.86-.41,8.35-.71,11.72-1v-6.99c0-1.93-.84-4.66.13-5.67,8.88-9.14,8.27-20.24,7.01-33.96-5.47-5.41-12.3-12.15-17.06-16.86-21.77-5.47-32.35,6.9-41.77,16.87h-25.77v-45.21c14.66-7.12,29.91-8.86,46.48-7.72-1.06-12.92,2.54-24.99-3.9-32.13-14.96-10.67-28.83-4.86-41.8-7.25-11.38-16.58-2.93-33.06.13-49.99,8.78.99,17.95-2.15,25.76,4.08,1.3,1.29,2.6,2.58,3.91,3.87,3.42,2.48,6.84,4.96,8.65,6.27,8.03,2.05,14.38,3.68,18.44,4.71,5.26-1.43,8.62-2.34,11.98-3.25ZM4.14,12.51c-1.3,1.29-2.6,2.58-3.91,3.87C.23,52.3-.4,88.25.42,124.16c.79,34.64,3.07,69.25,4.7,104.07h45.91c0-5.24,1.58-10.53-.29-13.98-6.23-11.44-2.43-23.45-3.62-35.12-.95-9.31,2.59-16.85,9.81-23.57,14.36,0,29.29-.93,44.04.27,14.16,1.15,25.59-3.2,36.01-11.87h5.71c3.09-7.52,6.19-15.06,9.65-23.48v-15.44c-3.71-1.17-7.58-2.39-11.45-3.61,0-19.9.2-39.8-.08-59.69-.15-10.74-2.63-21.71-12.34-27.33-6.44-3.72-14.32-6.6-22.82-5.88-22.76,1.91-45.69-2.61-68.55,3.51-10.27,2.75-21.92.47-32.95.47Zm1293.14,104.39c0,7.04-.33,14.11.06,21.13,1.51,27.5,3.24,54.98,4.93,83.26,8.35,0,16.69-.45,24.96.13,8.23.58,16.38,2.19,25.69,3.51-7.26-12.81-4.77-24.93-4.68-36.62.09-11.65-2.4-23.72,2.35-35.53-.62-2.06-1.53-5.08-2.43-8.11,6.64,5.55,10.63,12.32,15.64,18.27,8.04,9.54,10.39,22.44,19.43,31.29.43,9.45,5.65,16.54,11.72,23.2,1.3,1.29,2.6,2.58,3.91,3.87,1.3,1.29,2.6,2.58,3.91,3.87h37.11c2.64-2.61,4.01-3.97,5.86-5.8,0-12.3-.52-25.09.09-37.83,2.76-57.26-6.39-114.21-3.89-170.39-2.51-2.75-4.24-4.64-5.81-6.36-13.95,0-27.57,0-41.18,0-1.3,1.29-2.6,2.58-3.91,3.87-2.7,9.05,4.24,16.6,3.97,25.33-.29,9.61-.07,19.24-.07,28.85v27.01c-1.65,7.21-6.66,3.28-10.51,3.15-3.3-8.1-6.68-16.1-12.93-22.48-.59-2.93,1.94-7.4-3.91-7.73.64-6.56-3.74-11.15-6.69-16.22-7.42-12.75-15.06-25.38-22.53-37.91-4.81,0-9.28,0-13.75,0-1.53-1.29-2.92-3.42-4.62-3.69-3.58-.57-7.33-.17-11.01-.17h-15.63c0,3.68-.19,6.15.03,8.57,1.24,13.47,3.2,26.91,3.72,40.41.65,17.16.16,34.36.16,51.54v11.6Zm-394.58,69.59h-8.07c.42,4.81.72,8.26,1.01,11.6h7.06v27.06c9.63,0,17.97.05,26.32-.01,8.19-.06,16.38-.23,25.95-.38-7.35-16.68-5.2-32.48-5.37-48.08-.11-10.91-.02-21.82-.02-32.73h3.91c5.97-.92,9.53,2.12,11.7,7.18,3.38,7.88,6.72,15.75,13.87,19.45h29.54c6.55-11.13,13.28-22.56,20.02-34.01h10.82c0,2.74.05,5.13,0,7.52-.65,25.76,2.37,51.7-3.9,77.19,1.3,1.29,2.6,2.58,3.91,3.87h47.85c1.13-5,4.14-10.61,2.51-12.73-3.57-4.65-3.14-9.26-3.51-14.18-1.31-17.51,1.58-34.94-3.21-52.69-3.41-12.63-1.21-26.91-.5-40.41.69-13.02-3.67-26.6,3.75-39V4.95c-11.17.38-19.81-7.56-29.21-3.81-8.88,3.54-16.97,9-25.73,13.79-12.56,28.81-25.26,57.94-38.97,89.4-15.47-33.69-29.79-64.88-42.95-93.54-16.31-8.84-30.99-12.55-46.76-8.63v184.32Zm-552.12-.68h-41.71c0-3.81-.16-6.96.03-10.09,1.25-20.71,3.11-41.39,3.73-62.11.65-21.74.15-43.52.15-65.06,8.7-1.33,16.51-2.52,26.4-4.03,6,3.33,11.69,11.07,12.08,19.19.46,9.57,5.21,17.3,5.63,25.99h18.29c14.26-5.46,22.24-14.52,27.71-26.75-2.34-15.83,4.98-33.68-7.66-48.37-13.08-6.62-26.25-10.78-41.09-9.96-24.81,1.39-49.93-2.87-76.42,5.84-2.66,2.67-7.22,7.24-11.83,11.87,0,21.12.42,42.37-.12,63.59-.53,20.73.64,41.32-3.06,62.24-3.42,19.35-.73,39.75-.73,59.73,4.37,5.92,8.77,11.88,12.71,17.21h105.15c4.37-2.22,7.6-3.86,10.59-5.39,1.29-8.58,6.7-15.51,9.37-23.48,3.23-9.62,3.02-18.56,1.99-27.51-.8-7.01-.29-15.71-11.49-21.63-9.29,1.19-21.51,2.76-34.25,4.39v28.9c-2.06,2.03-3.44,3.4-5.48,5.43Zm1234.45,38.98c4.72-10.51,9.35-20.8,13.74-30.56,15.69,0,29.98,0,44.27,0,3.22,3.18,6.43,6.36,10.32,10.22v15.47c2.05,2.03,3.43,3.4,5.29,5.23,7.9,0,16.29.2,24.66-.06,8.09-.25,16.38,1.22,24.53-1.16-2.96-9.01-5.72-16.89-8.14-24.88-6.6-21.74-12.89-43.57-19.62-65.26-4.94-15.95-11.72-31.46-15.27-47.68-5.76-26.35-15.69-51.42-20.79-76.67h-51.28c-6.89,25.04-13.68,48.74-19.89,72.59-6.21,23.86-11.69,47.92-17.78,71.81-6,23.55-12.37,47.01-18.69,70.95h48.64Zm-476.07-3.51c9.02,0,17.07-2.43,21.65.48,11.21,7.13,20.02,2.31,29.53-1.96,2.69-8.64,5.33-17.12,7.85-25.18h49.43c10.08,6.99,3.36,17.1,5.92,24.7,2.06,2.2,3.81,4.08,4.79,5.13h53.54c-.35-2.48.03-5.12-.94-5.78-9.63-6.52-11.58-17.89-13.87-27.08-2.48-9.95-6.17-19.52-8.5-29.43-6.75-28.62-19.53-55.58-23.58-84.91-10.82-18.26-7.86-40.12-17.73-60.23-2.93-3.13-7.32-7.82-11.93-12.76-11.65-1.46-23.37-2.93-34.09-4.27-5.18,6.02-9.34,9.7-11.1,16.72-2.31,9.23-4.89,18.52-7.14,27.84-3.13,12.97-9.11,25.4-7.86,39.24-7.97,4.59-1.83,13.79-7.19,20.44-4.36,5.41-2.7,15.29-4.64,22.97-4.4,17.44-9.53,34.69-14.05,52.1-3.47,13.36-6.46,26.84-10.08,41.99Z"/>
  <path d="m1035.53,221.29c6.27-25.48,3.25-51.43,3.9-77.19.06-2.39,0-4.79,0-7.52h-10.82c-6.74,11.45-13.47,22.88-20.02,34.01h-29.54c-7.15-3.69-10.49-11.57-13.87-19.45-2.17-5.06-5.73-8.09-11.7-7.18-.38-3.74-.76-7.48-1.14-11.22-.92.1-1.85.19-2.77.29v10.93c0,10.91-.09,21.82.02,32.73.16,15.6-1.99,31.39,5.37,48.08-9.57.14-17.76.32-25.95.38-8.34.06-16.69.01-26.32.01V2.17c15.78-3.92,30.46-.21,46.76,8.63,13.16,28.65,27.48,59.85,42.95,93.54,13.71-31.46,26.41-60.6,38.97-89.4,8.76-4.79,16.85-10.25,25.73-13.79,9.39-3.75,18.04,4.19,29.21,3.81v61.2c-7.41,12.4-3.06,25.97-3.75,39-.71,13.49-2.91,27.78.5,40.41,4.79,17.75,1.9,35.19,3.21,52.69.37,4.93-.06,9.53,3.51,14.18,1.63,2.12-1.38,7.73-2.51,12.73h-47.85c-1.3-1.29-2.6-2.58-3.91-3.87Zm25.39-162.39c1.01-6.81,1.59-10.73,2.5-16.82-10.48,2.29-18.73,4.09-27.36,5.97-4.88,16.68-11.27,32.67-20.49,46.02,5.45,5.89,9.82,10.62,14.19,15.34.38-.64.77-1.28,1.15-1.92,8.35,4.64,16.71,9.27,25.92,14.39,3.64-5.55,6.92-10.55,10.29-15.69-2.38-16.41,4.78-34.21-6.2-47.28Zm-103.65,12.46c-4.64-.45-9.51-.92-18.87-1.83-.15-.51-1.35-4.5-2.51-8.33-7.13,2.79-12.16,4.76-16.24,6.36-7.29,18.28,11.13,31.6,6.17,48.74q19.34.26,35.78-18.78c-6.85-7.33-3.54-16.51-4.33-26.17Z"/>
  <path d="m1398.85,221.29c-1.3-1.29-2.6-2.58-3.91-3.87,1.3-.99,3.47-1.77,3.77-3,1.88-7.73-2.49-13.86-5.86-20.2h-9.63c-9.04-8.85-11.39-21.75-19.43-31.29-5.01-5.94-9.01-12.72-15.64-18.27.91,3.03,1.82,6.05,2.43,8.11-4.74,11.81-2.25,23.87-2.35,35.53-.09,11.69-2.58,23.82,4.68,36.62-9.31-1.32-17.46-2.93-25.69-3.51-8.27-.58-16.61-.13-24.96-.13-1.69-28.28-3.43-55.76-4.93-83.26-.38-7.02-.06-14.09-.06-21.13,5.05-1.66,8.86-4.16,7.09-11.6h-7.09c0-17.18.5-34.38-.16-51.54-.51-13.5-2.48-26.94-3.72-40.41-.22-2.43-.03-4.9-.03-8.57h15.63c-.89,6.65,2.66,10.03,9.56,12.1,1.98-2.68,4.03-5.46,6.07-8.23,4.47,0,8.95,0,13.75,0,7.47,12.53,15.11,25.16,22.53,37.91,2.95,5.07,7.33,9.66,6.69,16.22-1.49,1.84-2.97,3.69-6.24,7.73h10.14c6.25,6.39,9.63,14.38,12.93,22.48,3.86.13,8.87,4.06,10.51-3.15h7.97c-.32-6.08-.57-10.81-.82-15.47h-7.15v-11.54c0-9.62-.22-19.24.07-28.85.26-8.74-6.68-16.28-3.97-25.33,1.3-1.29,2.6-2.58,3.91-3.87,13.61,0,27.23,0,41.18,0,1.57,1.72,3.3,3.61,5.81,6.36-2.51,56.19,6.65,113.13,3.89,170.39-.61,12.74-.09,25.53-.09,37.83-1.85,1.83-3.22,3.19-5.86,5.8-11.5,0-24.31,0-37.11,0-1.3-1.29-2.6-2.58-3.91-3.87Zm-62.51-108.26c1.87,1.47,3.74,2.94,7.81,6.14v-13.87c5.61-4.8,11.23-9.6,16.73-14.3-4.69-6.91-8.44-12.44-12.88-18.99v-17.38c-4.19-1.19-8.49-3.85-12.13-3.16-8.18,1.55-17.33,1.85-23.97,11.02,1.66,14.24,3.47,29.67,5.26,44.99,1.88,1.91,3.69,3.74,5.47,5.54h13.71Zm73.65,14.79l-.14-3.19c-8.22,0-16.45-.04-24.67.11-.45,0-.88,1.64-1.59,3.08h26.4Zm-30.12-5.23c-4.63-1.98-8.07-3.46-12.46-5.33.32,4.42.56,7.83.8,11.2,4.11-2.07,7.22-3.63,11.66-5.87Zm23.56,67.02c1.13.02,2.25.03,3.38.05-.33-4.77-.66-9.53-.99-14.3-.79.04-1.59.09-2.39.13v14.13Zm18.18-45.04l-3.46.34c.49,3.38.98,6.75,1.48,10.13.66-.07,1.32-.14,1.98-.21v-10.27Zm-9.74,49.66h1.3v-3.87h-1.3v3.87Z"/>
  <path d="m136.97,143.96c-10.42,8.66-21.85,13.02-36.01,11.87-14.75-1.2-29.68-.27-44.04-.27-7.22,6.72-10.75,14.26-9.81,23.57,1.19,11.67-2.61,23.68,3.62,35.12,1.87,3.45.29,8.73.29,13.98H5.12C3.48,193.4,1.2,158.8.42,124.16-.4,88.25.23,52.3.23,16.37c1.3-1.29,2.6-2.58,3.91-3.87,11.03,0,22.68,2.29,32.95-.47,22.85-6.12,45.78-1.6,68.55-3.51,8.5-.71,16.37,2.16,22.82,5.88,9.71,5.61,12.19,16.58,12.34,27.33.28,19.89.08,39.8.08,59.69,2.77,14.54-4.27,28.2-3.91,42.53Zm-23.44-58c.41,2.65.83,5.29,1.38,8.86,6.44-2.72,11.43-4.51,9.83-12.72-2.66,0-4.98,0-7.31,0-1.3,1.29-2.6,2.58-3.91,3.87Zm-55.03-36.84c-2.76,3.82-7.35,10.18-11.03,15.28v47.05c1.72,1.71,3.06,4.2,4.47,4.24,11.27.32,22.56.18,34.08.18,12.89-20.38,6.16-42.51,8.12-61.96-6.62-4.53-11.53-7.88-16.13-11.02-6.05,1.94-11.21,3.59-19.5,6.24Z"/>
  <path d="m350.57,185.82c2.05-2.03,3.43-3.39,5.48-5.43v-28.9c12.74-1.63,24.97-3.2,34.25-4.39,11.2,5.92,10.69,14.62,11.49,21.63,1.02,8.95,1.24,17.89-1.99,27.51-2.68,7.96-8.08,14.89-9.37,23.48-2.99,1.52-6.23,3.17-10.59,5.39h-105.15c-3.93-5.33-8.34-11.29-12.71-17.21,0-19.98-2.69-40.38.73-59.73,3.69-20.91,2.53-41.51,3.06-62.24.54-21.22.12-42.47.12-63.59,4.61-4.63,9.16-9.2,11.83-11.87,26.49-8.7,51.61-4.45,76.42-5.84,14.83-.83,28.01,3.34,41.09,9.96,12.64,14.69,5.32,32.54,7.66,48.37-5.48,12.23-13.46,21.29-27.71,26.75h-18.29c-.42-8.69-5.17-16.42-5.63-25.99-.39-8.12-6.08-15.85-12.08-19.19-9.89,1.51-17.7,2.7-26.4,4.03,0,21.54.51,43.32-.15,65.06-.62,20.72-2.48,41.41-3.73,62.11-.19,3.13-.03,6.28-.03,10.09h41.71Zm-53.75-29.22c-5.07-1.85-10.71-3.91-16.48-6.02-2.99,3.54-5.3,6.28-7.7,9.13,3.68,4.13,6.54,7.34,8.44,9.48-1.68,7.24-3.04,13.13-4.4,19.01,4.94,4.06,9.21,7.57,13.77,11.32,9.67-20.01,11.12-29.8,6.37-42.91Z"/>
  <path d="m820.65,47.31c-7.81-6.23-16.98-3.08-25.76-4.08-3.07,16.93-11.51,33.41-.13,49.99,12.95,2.38,26.83-3.43,41.79,7.25,6.45,7.14,2.85,19.21,3.9,32.13-16.58-1.14-31.82.6-46.48,7.72v45.21h25.77c9.41-9.96,20-22.34,41.77-16.87,4.76,4.71,11.59,11.45,17.06,16.86,1.26,13.71,1.87,24.81-7.01,33.96-.98,1-.13,3.74-.13,5.67h-124.71V35.69c-2.97-5.54-4.96-9.26-6.71-12.51,1.22-5.82,2.42-11.51,3.87-18.4,20.69,0,42.06-1.24,63.2.36,19.97,1.51,38.91-6.36,58.73-3.98,1.8,1.78,3.63,3.59,4.92,4.87,1.58,14.16,3.09,27.72,4.6,41.28-3.91,3.87-7.81,7.73-11.72,11.6-3.36.91-6.72,1.82-11.98,3.25-4.06-1.04-10.41-2.66-18.44-4.71-1.81-1.31-5.23-3.79-8.65-6.27-1.3-1.29-2.6-2.58-3.91-3.87Zm-45.01,50.09c-1.33-.11-2.66-.22-3.99-.33-1.57,8-7.56,14.97-5.4,23.63.85,3.4,5.03,5.99,8.82,10.2,3.01-6.91,5.12-11.75,6.89-15.8-2.37-6.64-4.35-12.17-6.33-17.69Z"/>
  <path d="m1585.03,224.8h-48.64c6.32-23.94,12.69-47.4,18.69-70.95,6.09-23.9,11.57-47.95,17.78-71.81,6.21-23.85,13-47.55,19.89-72.59h51.28c5.1,25.25,15.03,50.32,20.79,76.67,3.54,16.22,10.33,31.74,15.27,47.68,6.72,21.7,13.02,43.53,19.62,65.26,2.42,7.99,5.18,15.88,8.14,24.88-8.15,2.38-16.44.91-24.53,1.16-8.37.26-16.76.06-24.66.06-1.85-1.84-3.23-3.2-5.29-5.23v-15.47c-3.89-3.85-7.11-7.03-10.32-10.22-14.29,0-28.58,0-44.27,0-4.39,9.76-9.02,20.06-13.74,30.56Zm13.45-148.12c9.3,6.92,19.74,5.69,30.83,5.09,4.36-8.45,8.45-16.38,12.73-24.67-9.92-7.63-19.2-14.78-28.27-21.76-17.08,9.98-16.78,25.46-15.3,41.35Zm14.82,24.81c2.38,21.22-11,36-6.43,53.69h25.07c2.26-2.58,4.23-4.83,6.76-7.71-13.89-11.54-5.74-32.57-25.4-45.98Z"/>
  <path d="m1108.96,221.29c3.62-15.15,6.61-28.63,10.08-41.99,4.52-17.41,9.65-34.67,14.05-52.1,1.93-7.67.27-17.55,4.64-22.97,5.36-6.65-.77-15.85,7.19-20.44-1.25-13.83,4.73-26.26,7.86-39.24,2.25-9.31,4.83-18.61,7.14-27.84,1.76-7.02,5.92-10.7,11.1-16.72,10.73,1.34,22.45,2.81,34.09,4.27,4.61,4.93,9,9.63,11.93,12.76,9.87,20.12,6.91,41.98,17.73,60.23,4.04,29.33,16.83,56.29,23.58,84.91,2.34,9.91,6.02,19.48,8.5,29.43,2.29,9.19,4.25,20.57,13.87,27.08.98.66.59,3.3.94,5.78h-53.54c-.98-1.05-2.74-2.93-4.79-5.13-2.55-7.6,4.16-17.71-5.92-24.7h-49.43c-2.51,8.06-5.16,16.54-7.85,25.18-9.51,4.27-18.32,9.09-29.53,1.96-4.58-2.91-12.63-.48-21.65-.48Zm59.69-172.34c-1.09,10.72-.28,19.77,7.46,27.31,9.65,3.28,17.79,12.74,30.08,8.99,6.74-6.3,9.41-13.95,9.17-23.17-.4-15.04-15.92-16.88-21.22-26.08h-12.41c-4.42,4.38-8.54,8.45-13.07,12.94Zm10.72,100.49c10.83,7.64,19.79,7.52,28.05-.65-5.66-16.09-11.14-31.69-16.83-47.86-2.42,2.27-4.2,3.93-5.66,5.3-1.92,14.92-3.79,29.44-5.57,43.21Z"/>
  <path d="m429.98,4.78h47.41c-7.95,19.67-2.83,38.47-4.73,57.13,7.8,2.11,9.8-2.05,12.11-6.93,4.86-10.26,11.19-19.92,15.26-30.45,3.52-9.11,8.23-16.08,21.65-19.68,11.04-.29,26.22-1.47,40.33,5.1-10.14,19.45-19.11,39.68-30.79,58.25-12.07,19.2-9.49,37.93-1.37,56.31,12.04,27.26,21.42,55.65,35.48,82.07,2.15,4.03,2.7,8.9,4.15,13.92-.58.57-1.96,1.94-4.03,3.99h-35.37c-20.98-6.81-22.7-26.62-29.86-42.95-3.28-7.48-1.56-17.39-12.2-22.98-4.65,5.8-9.48,11.81-15.19,18.93v42c-2.06,2.04-3.44,3.4-5.28,5.22h-45.72c1.99-15.38-2.98-30.89,3.98-46.17,1.71-3.75.25-8.9.25-13.41V8.64c1.3-1.29,2.6-2.58,3.91-3.87Zm76.77,93.95c-1.2-1.42-2.84-3.38-4.23-5.03-9.69,0-18.83-.55-27.87.17-7.92.63-16.89.78-23.25,4.62-6.32,3.82-9.96,11.97-15.49,19.16,4.02,2.83,6.8,5.2,9.96,6.89,2.61,1.4,6.21,1.35,8.35,3.13,2.41,2.01,6.09,3.78,6.58,9.49-8.25-1.64-15.15-3.02-22.43-4.47-.17,2.41-.3,4.15-.41,5.78,2.88,1.3,5.46,2.46,8.4,3.79-1.92,6.64-3.6,12.43-5.64,19.47,4.42,2.4,8.53,4.64,13.15,7.15,4.43-4.71,10.74-8.33,10.75-11.98.06-13.18,10-14.09,18.52-16.71,8.6-2.64,15.82-6.86,19.97-12.64,1.28-10.13,2.35-18.62,3.63-28.84Zm-58.21-32.42c2.34-6.6,1.2-11.53-6.2-14.94v14.94h6.2Zm27.02,4.2h-1.3v3.87h1.3v-3.87Z"/>
  <path d="m597.97,4.78h41.17c.33.37.83.8,1.16,1.34.31.5.61,1.11.61,1.67.03,59.12.03,118.25.03,177.16,8.95,3.13,17.01,10.35,26.13,1.62,1.18-1.13,4.6-.99,4.83-1.94,4.11-17.34,22.65-8.9,29.51-19.42,8.27,5.79,14.4,9.86,20.2,14.35,1.14.88.45,3.95,1.57,5,5.58,5.28,4.13,10.94,2.11,17.18-2.77,8.57-4.81,17.36-7.53,27.42-9.19-1.76-19.49,3.67-28.55-4-12.5,1.87-25-2.16-37.94,2.5-9.17,3.31-21.58,4.06-30.33.54-8.91-3.58-17.47-1.09-26.88-4.13V8.64c1.3-1.29,2.6-2.58,3.91-3.87Zm8.43,173.81v20.34c4.53,1.3,8.92,2.55,13.34,3.81,1.87-7.41,8.97-12.23,4.57-18.97-6.06-1.75-11.61-3.36-17.92-5.18Zm22.83-102.28c-1.84-1.82-3.68-3.64-5.34-5.29h-13.37c-2.29,8.58.12,13.71,8.64,15.26,3.64-3.6,6.86-6.79,10.08-9.97Z"/>
  <path d="m222.92,225.16c-4.01,1.29-7.97,3.5-12.03,3.69-11,.52-22.04.18-34.85.18v-36.08c0-14.79-.3-29.58.11-44.36.25-9.19-.69-18.15,3.09-27.61,2.63-6.56,2.93-16.09-1.57-23.88-1.16-2-1.55-4.67-1.56-7.03-.1-26.86-.07-53.72-.07-80.99h50.79c0,14.56,2.63,29.75-.55,43.63-6.38,27.86-1.41,55.67-3.35,83.39,7.97,28.1,2.17,56.82,3.91,85.2-1.3,1.29-2.6,2.58-3.91,3.87Zm-22.13-153.52c2.71-3.76,5.04-7.01,7.3-10.14-5.97-3.65-10.81-6.6-15.86-9.68-1.01,7.81-2.18,14.87,8.56,19.82Z"/>
  <path d="m1469.18,221.29v-61.84c0-12.88.48-25.79-.14-38.64-.6-12.64,5.6-24.21,4.32-37.08-1.27-12.76-.28-25.74-.28-38.62V5.67c15.96-4.3,30.43,8.38,46.51,1.56v217.93h-46.51c-1.3-1.29-2.6-2.58-3.91-3.87Zm12.48-31.84c4.98-4.72,9.81-9.31,15.06-14.28-.22-3.58-.47-7.76-.68-11.31h-14.38v25.6Z"/>
  <path class="cls-1" d="m136.97,143.96c-.36-14.33,6.68-27.99,3.91-42.53,3.87,1.22,7.74,2.44,11.45,3.61v15.44c-3.46,8.41-6.56,15.96-9.65,23.48h-5.71Z"/>
  <path d="m1383.23,194.23h9.63c3.37,6.34,7.74,12.47,5.86,20.2-.3,1.23-2.46,2.01-3.77,3-6.07-6.66-11.29-13.75-11.72-23.2Z"/>
  <path class="cls-1" d="m863.63,58.9c3.91-3.87,7.81-7.73,11.72-11.6,7.83,3.62,4.82,8.52.85,12.44-3.96,3.92-8.92,6.91-12.58-.85Z"/>
  <path d="m1324.63,8.64c-2.05,2.77-4.09,5.54-6.07,8.23-6.89-2.07-10.45-5.45-9.56-12.1,3.68,0,7.42-.4,11.01.17,1.7.27,3.09,2.4,4.62,3.69Z"/>
  <path d="m1394.95,74.37h7.15c.25,4.65.5,9.38.82,15.47h-7.97v-15.47Z"/>
  <path class="cls-1" d="m859.72,225.16h11.72v6.99c-3.37.29-6.86.58-11.72,1v-7.99Z"/>
  <path class="cls-1" d="m902.7,186.49v11.6h-7.06c-.29-3.34-.59-6.79-1.01-11.6h8.07Z"/>
  <path d="m1297.28,105.3h7.09c1.78,7.44-2.03,9.93-7.09,11.6v-11.6Z"/>
  <path d="m1371.51,70.5h-10.14c3.26-4.05,4.75-5.89,6.24-7.73,5.84.33,3.32,4.8,3.91,7.73Z"/>
  <path class="cls-1" d="m222.92,225.16l3.91-3.87c5.52,1.03,5.27,4.58,2.1,7.18-2.06,1.69-5.9,1.23-6.01-3.31Z"/>
  <path class="cls-1" d="m844.09,225.16h7.81v5.71q-7.19,2.33-7.81-5.71Z"/>
  <path class="cls-9" d="m949.58,143.96v-10.93c.92-.1,1.85-.19,2.77-.29.38,3.74.76,7.48,1.14,11.22h-3.91Z"/>
  <path class="cls-3" d="m4.14,12.51c-1.3,1.29-2.6,2.58-3.91,3.87,1.3-1.29,2.6-2.58,3.91-3.87Z"/>
  <path class="cls-3" d="m1394.95,4.78c-1.3,1.29-2.6,2.58-3.91,3.87,1.3-1.29,2.6-2.58,3.91-3.87Z"/>
  <path class="cls-7" d="m597.97,4.78c-1.3,1.29-2.6,2.58-3.91,3.87,1.3-1.29,2.6-2.58,3.91-3.87Z"/>
  <path class="cls-10" d="m429.98,4.78c-1.3,1.29-2.6,2.58-3.91,3.87,1.3-1.29,2.6-2.58,3.91-3.87Z"/>
  <path class="cls-1" d="m820.65,47.31c1.3,1.29,2.6,2.58,3.91,3.87-1.3-1.29-2.6-2.58-3.91-3.87Z"/>
  <path class="cls-10" d="m1035.53,221.29c1.3,1.29,2.6,2.58,3.91,3.87-1.3-1.29-2.6-2.58-3.91-3.87Z"/>
  <path class="cls-4" d="m1398.85,221.29c1.3,1.29,2.6,2.58,3.91,3.87-1.3-1.29-2.6-2.58-3.91-3.87Z"/>
  <path class="cls-11" d="m1469.18,221.29c1.3,1.29,2.6,2.58,3.91,3.87-1.3-1.29-2.6-2.58-3.91-3.87Z"/>
  <path class="cls-12" d="m1060.92,58.9c10.98,13.08,3.82,30.87,6.2,47.28-3.37,5.14-6.65,10.14-10.29,15.69-9.21-5.11-17.57-9.75-25.92-14.39-.38.64-.77,1.28-1.15,1.92-4.37-4.72-8.74-9.44-14.19-15.34,9.22-13.34,15.61-29.34,20.49-46.02,8.63-1.88,16.88-3.68,27.36-5.97-.9,6.09-1.49,10.01-2.5,16.82Z"/>
  <path class="cls-12" d="m957.27,71.35c.79,9.66-2.52,18.83,4.33,26.17q-16.44,19.04-35.78,18.78c4.96-17.14-13.46-30.46-6.17-48.74,4.08-1.6,9.11-3.57,16.24-6.36,1.15,3.83,2.36,7.82,2.51,8.33,9.35.91,14.22,1.38,18.87,1.83Z"/>
  <path class="cls-1" d="m1336.35,113.03h-13.71c-1.78-1.8-3.59-3.64-5.47-5.54-1.79-15.32-3.59-30.75-5.26-44.99,6.63-9.17,15.79-9.46,23.97-11.02,3.64-.69,7.94,1.96,12.13,3.16v17.38c4.44,6.55,8.19,12.07,12.88,18.99-5.5,4.7-11.11,9.5-16.73,14.3-2.6,2.58-5.21,5.16-7.81,7.73Z"/>
  <path class="cls-6" d="m1410,127.82h-26.4c.71-1.43,1.14-3.07,1.59-3.08,8.22-.15,16.45-.11,24.67-.11l.14,3.19Z"/>
  <path d="m1336.35,113.03c2.6-2.58,5.21-5.16,7.81-7.73v13.87c-4.08-3.2-5.94-4.67-7.81-6.14Z"/>
  <path class="cls-7" d="m1379.88,122.59c-4.45,2.24-7.55,3.8-11.66,5.87-.24-3.37-.48-6.78-.8-11.2,4.39,1.88,7.84,3.35,12.46,5.33Z"/>
  <path class="cls-6" d="m1403.44,189.61v-14.13c.79-.04,1.59-.09,2.39-.13.33,4.77.66,9.53.99,14.3-1.13-.02-2.25-.03-3.38-.05Z"/>
  <path class="cls-6" d="m1421.62,144.56v10.27c-.66.07-1.32.14-1.98.21-.49-3.38-.98-6.75-1.48-10.13l3.46-.34Z"/>
  <path class="cls-4" d="m1411.88,194.23v-3.87h1.3v3.87h-1.3Z"/>
  <path class="cls-1" d="m58.5,49.12c8.29-2.65,13.45-4.3,19.5-6.24,4.6,3.14,9.51,6.5,16.13,11.02-1.96,19.45,4.77,41.57-8.12,61.96-11.52,0-22.81.14-34.08-.18-1.41-.04-2.75-2.53-4.47-4.24v-47.05c3.68-5.1,8.28-11.46,11.03-15.28Z"/>
  <path class="cls-12" d="m117.44,82.1h7.31c1.6,8.22-3.39,10-9.83,12.72-.56-3.56-.97-6.21-1.38-8.86,1.3-1.29,2.6-2.58,3.91-3.87Z"/>
  <path class="cls-5" d="m117.44,82.1c-1.3,1.29-2.6,2.58-3.91,3.87,1.3-1.29,2.6-2.58,3.91-3.87Z"/>
  <path class="cls-12" d="m296.82,156.6c4.75,13.12,3.3,22.91-6.37,42.91-4.55-3.74-8.82-7.26-13.77-11.32,1.36-5.87,2.73-11.77,4.4-19.01-1.91-2.14-4.77-5.35-8.44-9.48,2.4-2.85,4.71-5.59,7.7-9.13,5.77,2.11,11.41,4.17,16.48,6.02Z"/>
  <path class="cls-1" d="m775.65,97.39c1.98,5.53,3.95,11.05,6.33,17.69-1.77,4.06-3.88,8.89-6.89,15.8-3.79-4.21-7.97-6.79-8.82-10.2-2.16-8.66,3.83-15.63,5.4-23.63,1.33.11,2.66.22,3.99.33Z"/>
  <path class="cls-1" d="m1598.48,76.68c-1.49-15.89-1.79-31.36,15.3-41.35,9.06,6.98,18.35,14.13,28.27,21.76-4.28,8.29-8.37,16.23-12.73,24.67-11.1.61-21.53,1.84-30.83-5.09Z"/>
  <path class="cls-8" d="m1613.29,101.48c19.67,13.41,11.52,34.44,25.4,45.98-2.53,2.88-4.5,5.13-6.76,7.71h-25.07c-4.56-17.69,8.81-32.46,6.43-53.69Z"/>
  <path class="cls-12" d="m1168.65,48.95c4.54-4.49,8.65-8.56,13.07-12.94h12.41c5.3,9.19,20.82,11.04,21.22,26.08.24,9.22-2.43,16.87-9.16,23.17-12.29,3.75-20.44-5.71-30.08-8.99-7.73-7.54-8.55-16.59-7.46-27.31Z"/>
  <path class="cls-8" d="m1179.37,149.44c1.77-13.77,3.64-28.29,5.57-43.21,1.46-1.37,3.24-3.03,5.66-5.3,5.68,16.16,11.17,31.76,16.83,47.86-8.26,8.18-17.22,8.29-28.05.65Z"/>
  <path class="cls-12" d="m506.74,98.73c-1.29,10.22-2.36,18.71-3.63,28.84-4.15,5.78-11.37,10-19.97,12.64-8.53,2.62-18.46,3.53-18.52,16.71-.02,3.65-6.32,7.28-10.75,11.98-4.62-2.51-8.73-4.75-13.15-7.15,2.04-7.04,3.71-12.83,5.64-19.47-2.94-1.33-5.52-2.49-8.4-3.79.12-1.63.24-3.38.41-5.78,7.28,1.45,14.18,2.82,22.43,4.47-.49-5.71-4.17-7.48-6.58-9.49-2.14-1.79-5.74-1.73-8.35-3.13-3.15-1.69-5.94-4.06-9.96-6.89,5.53-7.19,9.17-15.34,15.49-19.16,6.36-3.84,15.33-4,23.25-4.62,9.04-.71,18.18-.17,27.87-.17,1.38,1.64,3.03,3.61,4.23,5.03Z"/>
  <path class="cls-5" d="m448.54,66.3h-6.2v-14.94c7.4,3.41,8.54,8.34,6.2,14.94Z"/>
  <path class="cls-9" d="m475.56,70.5v3.87h-1.3v-3.87h1.3Z"/>
  <path class="cls-8" d="m606.4,178.59c6.3,1.82,11.85,3.42,17.92,5.18,4.4,6.74-2.7,11.56-4.57,18.97-4.43-1.27-8.81-2.52-13.34-3.81v-20.34Z"/>
  <path class="cls-2" d="m629.22,76.3c-3.22,3.19-6.44,6.37-10.08,9.97-8.52-1.56-10.93-6.68-8.64-15.26h13.37c1.67,1.65,3.5,3.47,5.34,5.29Z"/>
  <path class="cls-1" d="m200.79,71.63c-10.75-4.96-9.58-12.01-8.56-19.82,5.05,3.08,9.89,6.03,15.86,9.68-2.26,3.14-4.59,6.38-7.3,10.14Z"/>
  <path class="cls-2" d="m1481.65,189.45v-25.6h14.38c.21,3.56.46,7.73.68,11.31-5.24,4.97-10.08,9.56-15.06,14.28Z"/>
</svg>